<?xml version="1.0" encoding="utf-8"?>
<!-- Generator: Adobe Illustrator 16.0.0, SVG Export Plug-In . SVG Version: 6.00 Build 0)  -->
<!DOCTYPE svg PUBLIC "-//W3C//DTD SVG 1.1//EN" "http://www.w3.org/Graphics/SVG/1.1/DTD/svg11.dtd">
<svg version="1.1" id="Layer_1" xmlns="http://www.w3.org/2000/svg" xmlns:xlink="http://www.w3.org/1999/xlink" x="0px" y="0px"
	 width="64px" height="64px" viewBox="0 0 64 64" enable-background="new 0 0 64 64" xml:space="preserve">
<g id="ALARM_1_" enable-background="new    ">
	<g id="ALARM">
		<g>
			<path d="M44,31h-9V18c0-1.657-1.343-3-3-3s-3,1.343-3,3v16c0,1.657,1.343,3,3,3h12c1.657,0,3-1.343,3-3S45.657,31,44,31z
				 M19.412,4.575C17.37,2.967,14.8,2,12,2C5.373,2,0,7.373,0,14c0,2.8,0.967,5.37,2.575,7.412
				C5.809,13.862,11.862,7.809,19.412,4.575z M52.251,2c-2.742,0-5.258,0.947-7.257,2.521c7.393,3.167,13.318,9.093,16.484,16.485
				c1.574-2,2.521-4.516,2.521-7.257C64,7.26,58.74,2,52.251,2z M32,5C15.984,5,3,17.984,3,34c0,7.691,3.015,14.664,7.902,19.855
				l-4.023,4.023C6.336,58.422,6,59.172,6,60c0,1.657,1.343,3,3,3c0.828,0,1.578-0.336,2.121-0.879l4.327-4.327
				C20.144,61.066,25.842,63,32,63c6.17,0,11.878-1.941,16.579-5.227l4.356,4.357C53.473,62.668,54.215,63,55.034,63
				C56.672,63,58,61.672,58,60.034c0-0.819-0.332-1.562-0.869-2.099l-4.056-4.056C57.977,48.688,61,41.704,61,34
				C61,17.984,48.016,5,32,5z M32,57C19.297,57,9,46.703,9,34s10.297-23,23-23c12.702,0,23,10.297,23,23S44.703,57,32,57z"/>
		</g>
	</g>
</g>
</svg>
