<?xml version="1.0" encoding="utf-8"?>
<!-- Generator: Adobe Illustrator 17.0.0, SVG Export Plug-In . SVG Version: 6.00 Build 0)  -->
<!DOCTYPE svg PUBLIC "-//W3C//DTD SVG 1.1//EN" "http://www.w3.org/Graphics/SVG/1.1/DTD/svg11.dtd">
<svg version="1.1" id="ALT_1_" xmlns="http://www.w3.org/2000/svg" xmlns:xlink="http://www.w3.org/1999/xlink" x="0px" y="0px"
	 width="64px" height="64px" viewBox="0 0 64 64" enable-background="new 0 0 64 64" xml:space="preserve">
<g id="ALT">
	<g>
		<path fill-rule="evenodd" clip-rule="evenodd" d="M31,20h30c1.657,0,3-1.343,3-3s-1.343-3-3-3H31c-1.657,0-3,1.343-3,3
			S29.343,20,31,20z M61,44H32.651L14.535,15.395l-0.006,0.004C13.997,14.56,13.066,14,12,14H3c-1.657,0-3,1.343-3,3s1.343,3,3,3
			h7.349l18.117,28.605l0.006-0.004C29.003,49.44,29.934,50,31,50h30c1.657,0,3-1.343,3-3C64,45.343,62.657,44,61,44z"/>
	</g>
</g>
</svg>
