<?xml version="1.0" encoding="utf-8"?>
<!-- Generator: Adobe Illustrator 16.0.0, SVG Export Plug-In . SVG Version: 6.00 Build 0)  -->
<!DOCTYPE svg PUBLIC "-//W3C//DTD SVG 1.1//EN" "http://www.w3.org/Graphics/SVG/1.1/DTD/svg11.dtd">
<svg version="1.1" id="Layer_1" xmlns="http://www.w3.org/2000/svg" xmlns:xlink="http://www.w3.org/1999/xlink" x="0px" y="0px"
	 width="64px" height="64px" viewBox="0 0 64 64" enable-background="new 0 0 64 64" xml:space="preserve">
<g id="android_1_" enable-background="new    ">
	<g id="android">
		<g>
			<path d="M15.647,47.493c0,2.164,1.709,3.926,3.812,3.926h2.752c-0.092,0.327-0.144,0.673-0.144,1.031v7.848
				c0,2.052,1.618,3.718,3.612,3.718c1.995,0,3.613-1.666,3.613-3.718V52.45c0-0.358-0.053-0.704-0.144-1.031h6.708
				c-0.092,0.327-0.144,0.673-0.144,1.031v7.848c0,2.052,1.618,3.718,3.612,3.718s3.613-1.666,3.613-3.718V52.45
				c0-0.358-0.053-0.704-0.145-1.031h2.752c2.104,0,3.812-1.761,3.812-3.926v-27.26h-33.71V47.493z M9.626,20.233
				c-1.995,0-3.612,1.664-3.612,3.717v15.901c0,2.053,1.617,3.717,3.612,3.717c1.994,0,3.612-1.664,3.612-3.717v-15.9
				C13.238,21.897,11.62,20.233,9.626,20.233z M55.375,20.233c-1.995,0-3.611,1.664-3.611,3.717v15.901
				c0,2.053,1.616,3.717,3.611,3.717s3.611-1.664,3.611-3.717v-15.9C58.986,21.897,57.37,20.233,55.375,20.233z M40.789,5.355
				l0.678-1.047l0.668-1.032l1.502-2.318c0.184-0.285,0.108-0.669-0.166-0.859c-0.279-0.191-0.652-0.114-0.837,0.172l-1.608,2.485
				l-0.678,1.045L39.662,4.86c-2.176-0.868-4.602-1.355-7.162-1.355c-2.559,0-4.986,0.487-7.16,1.354L24.655,3.8l-0.676-1.045
				L22.367,0.27c-0.184-0.285-0.558-0.362-0.836-0.172c-0.275,0.19-0.351,0.574-0.166,0.859l1.5,2.318l0.669,1.032l0.678,1.047
				c-5.109,2.449-8.566,7.089-8.566,12.4h33.708C49.355,12.444,45.898,7.804,40.789,5.355z M25.278,12.799
				c-0.998,0-1.806-0.833-1.806-1.859s0.808-1.857,1.806-1.857c0.997,0,1.806,0.831,1.806,1.857S26.275,12.799,25.278,12.799z
				 M39.725,12.799c-0.998,0-1.806-0.833-1.806-1.859s0.808-1.857,1.806-1.857s1.805,0.831,1.805,1.857S40.723,12.799,39.725,12.799
				z"/>
		</g>
	</g>
</g>
</svg>
