<?xml version="1.0" encoding="utf-8"?>
<!-- Generator: Adobe Illustrator 16.0.0, SVG Export Plug-In . SVG Version: 6.00 Build 0)  -->
<!DOCTYPE svg PUBLIC "-//W3C//DTD SVG 1.1//EN" "http://www.w3.org/Graphics/SVG/1.1/DTD/svg11.dtd">
<svg version="1.1" id="Layer_1" xmlns="http://www.w3.org/2000/svg" xmlns:xlink="http://www.w3.org/1999/xlink" x="0px" y="0px"
	 width="64px" height="64px" viewBox="0 0 64 64" enable-background="new 0 0 64 64" xml:space="preserve">
<g id="apple_1_" enable-background="new    ">
	<g id="apple">
		<g>
			<path d="M42.111,10.214c2.4-2.709,4.021-6.473,3.58-10.221c-3.459,0.13-7.647,2.14-10.131,4.846
				c-2.225,2.401-4.17,6.226-3.65,9.906C35.77,15.025,39.708,12.918,42.111,10.214z M50.771,34.008
				c-0.086-8.109,7.104-11.997,7.427-12.193c-4.041-5.499-10.337-6.254-12.576-6.34c-5.354-0.506-10.451,2.935-13.169,2.935
				c-2.711,0-6.906-2.861-11.346-2.788c-5.84,0.081-11.222,3.161-14.228,8.028c-6.065,9.793-1.552,24.307,4.359,32.256
				c2.89,3.886,6.335,8.257,10.855,8.097c4.357-0.16,6.002-2.622,11.267-2.622c5.269,0,6.746,2.622,11.354,2.541
				c4.685-0.079,7.655-3.959,10.522-7.859c3.318-4.514,4.683-8.886,4.765-9.106C59.896,46.91,50.865,43.689,50.771,34.008z"/>
		</g>
	</g>
</g>
</svg>
