<?xml version="1.0" encoding="utf-8"?>
<!-- Generator: Adobe Illustrator 16.0.0, SVG Export Plug-In . SVG Version: 6.00 Build 0)  -->
<!DOCTYPE svg PUBLIC "-//W3C//DTD SVG 1.1//EN" "http://www.w3.org/Graphics/SVG/1.1/DTD/svg11.dtd">
<svg version="1.1" id="Layer_1" xmlns="http://www.w3.org/2000/svg" xmlns:xlink="http://www.w3.org/1999/xlink" x="0px" y="0px"
	 width="64px" height="64px" viewBox="0 0 64 64" enable-background="new 0 0 64 64" xml:space="preserve">
<g id="ARROW__x2F__UP_1_" enable-background="new    ">
	<g id="ARROW__x2F__UP">
		<g>
			<path d="M52.159,38.918L52.159,38.918L34.16,20.917l-0.001,0.001C33.613,20.352,32.848,20,32,20c-0.002,0-0.004,0-0.007,0
				s-0.004,0-0.007,0c-0.848,0-1.613,0.352-2.159,0.918l-0.001-0.001l-18,18l0.008,0.008C11.318,39.464,11,40.195,11,41
				c0,1.657,1.343,3,3,3c0.91,0,1.725-0.406,2.275-1.046l15.718-15.718L47.917,43.16l0.001-0.001C48.458,43.68,49.191,44,50,44
				c1.657,0,3-1.343,3-3C53,40.191,52.68,39.458,52.159,38.918z"/>
		</g>
	</g>
</g>
</svg>
