<?xml version="1.0" encoding="utf-8"?>
<!-- Generator: Adobe Illustrator 16.0.0, SVG Export Plug-In . SVG Version: 6.00 Build 0)  -->
<!DOCTYPE svg PUBLIC "-//W3C//DTD SVG 1.1//EN" "http://www.w3.org/Graphics/SVG/1.1/DTD/svg11.dtd">
<svg version="1.1" id="Layer_1" xmlns="http://www.w3.org/2000/svg" xmlns:xlink="http://www.w3.org/1999/xlink" x="0px" y="0px"
	 width="64px" height="64px" viewBox="0 0 64 64" enable-background="new 0 0 64 64" xml:space="preserve">
<g id="ARROWS_1_" enable-background="new    ">
	<g id="ARROWS">
		<g>
			<path d="M64,32c0-0.885-0.383-1.681-0.993-2.23l0,0l-10-9l0,0C52.475,20.292,51.771,20,51,20c-1.657,0-3,1.343-3,3
				c0,0.885,0.384,1.681,0.993,2.23l0,0L53.182,29H35V10.818l3.77,4.189l0,0C39.318,15.616,40.115,16,41,16c1.657,0,3-1.343,3-3
				c0-0.772-0.292-1.475-0.77-2.007l0,0l-9-10l0,0C33.682,0.384,32.885,0,32,0s-1.681,0.384-2.23,0.993l0,0l-9,10l0,0
				C20.292,11.525,20,12.228,20,13c0,1.657,1.343,3,3,3c0.885,0,1.68-0.384,2.23-0.993l0,0L29,10.818V29H10.818l4.189-3.77l0,0
				C15.617,24.681,16,23.885,16,23c0-1.657-1.343-3-3-3c-0.772,0-1.475,0.292-2.007,0.77l0,0l-10,9l0,0C0.384,30.319,0,31.115,0,32
				s0.384,1.68,0.993,2.23l0,0l10,9l0,0C11.525,43.709,12.228,44,13,44c1.657,0,3-1.343,3-3c0-0.885-0.384-1.68-0.993-2.23l0,0
				L10.818,35H29v18.182l-3.77-4.188l0,0C24.681,48.384,23.885,48,23,48c-1.657,0-3,1.343-3,3c0,0.771,0.292,1.475,0.77,2.007l0,0
				l9,10l0,0C30.319,63.617,31.115,64,32,64s1.682-0.383,2.23-0.993l0,0l9-10l0,0C43.708,52.475,44,51.771,44,51
				c0-1.657-1.343-3-3-3c-0.885,0-1.682,0.384-2.23,0.993l0,0L35,53.182V35h18.182l-4.188,3.77l0,0C48.384,39.32,48,40.115,48,41
				c0,1.657,1.343,3,3,3c0.771,0,1.475-0.292,2.007-0.77l0,0l10-9l0,0C63.617,33.682,64,32.885,64,32z"/>
		</g>
	</g>
</g>
</svg>
