<?xml version="1.0" encoding="utf-8"?>
<!-- Generator: Adobe Illustrator 16.0.0, SVG Export Plug-In . SVG Version: 6.00 Build 0)  -->
<!DOCTYPE svg PUBLIC "-//W3C//DTD SVG 1.1//EN" "http://www.w3.org/Graphics/SVG/1.1/DTD/svg11.dtd">
<svg version="1.1" id="Layer_1" xmlns="http://www.w3.org/2000/svg" xmlns:xlink="http://www.w3.org/1999/xlink" x="0px" y="0px"
	 width="64px" height="64px" viewBox="0 0 64 64" enable-background="new 0 0 64 64" xml:space="preserve">
<g id="ARROWS_HORIZONTAL_1_" enable-background="new    ">
	<g id="ARROWS_HORIZONTAL">
		<g>
			<path d="M64,32c0-0.885-0.384-1.681-0.993-2.23l0,0l-10-9l0,0C52.475,20.292,51.771,20,51,20c-1.657,0-3,1.343-3,3
				c0,0.885,0.383,1.681,0.993,2.23l0,0L53.182,29H10.818l4.189-3.77l0,0C15.617,24.681,16,23.885,16,23c0-1.657-1.343-3-3-3
				c-0.772,0-1.475,0.292-2.007,0.77l0,0l-10,9l0,0C0.384,30.319,0,31.115,0,32s0.383,1.68,0.993,2.23l0,0l10,9l0,0
				C11.525,43.709,12.228,44,13,44c1.657,0,3-1.343,3-3c0-0.885-0.383-1.68-0.993-2.23l0,0L10.818,35h42.364l-4.188,3.77l0,0
				C48.384,39.32,48,40.115,48,41c0,1.657,1.343,3,3,3c0.771,0,1.475-0.292,2.007-0.77l0,0l10-9l0,0C63.617,33.682,64,32.885,64,32z
				"/>
		</g>
	</g>
</g>
</svg>
