<?xml version="1.0" encoding="utf-8"?>
<!-- Generator: Adobe Illustrator 16.0.0, SVG Export Plug-In . SVG Version: 6.00 Build 0)  -->
<!DOCTYPE svg PUBLIC "-//W3C//DTD SVG 1.1//EN" "http://www.w3.org/Graphics/SVG/1.1/DTD/svg11.dtd">
<svg version="1.1" id="Layer_1" xmlns="http://www.w3.org/2000/svg" xmlns:xlink="http://www.w3.org/1999/xlink" x="0px" y="0px"
	 width="64px" height="64px" viewBox="0 0 64 64" enable-background="new 0 0 64 64" xml:space="preserve">
<g id="ARROW__x2F__DOWN_1_" enable-background="new    ">
	<g id="ARROW__x2F__DOWN">
		<g>
			<path d="M53,23c0-1.657-1.343-3-3-3c-0.809,0-1.542,0.321-2.082,0.841l-0.001-0.001L31.993,36.764L16.275,21.046
				C15.725,20.406,14.91,20,14,20c-1.657,0-3,1.343-3,3c0,0.805,0.318,1.536,0.835,2.075l-0.008,0.008l18,18l0.001-0.001
				C30.374,43.648,31.139,44,31.987,44c0.002,0,0.004,0,0.007,0c0.002,0,0.004,0,0.007,0c0.849,0,1.612-0.352,2.159-0.918
				l0.001,0.001l18-18l-0.001-0.001C52.68,24.543,53,23.809,53,23z"/>
		</g>
	</g>
</g>
</svg>
