<?xml version="1.0" encoding="utf-8"?>
<!-- Generator: Adobe Illustrator 16.0.0, SVG Export Plug-In . SVG Version: 6.00 Build 0)  -->
<!DOCTYPE svg PUBLIC "-//W3C//DTD SVG 1.1//EN" "http://www.w3.org/Graphics/SVG/1.1/DTD/svg11.dtd">
<svg version="1.1" id="Layer_1" xmlns="http://www.w3.org/2000/svg" xmlns:xlink="http://www.w3.org/1999/xlink" x="0px" y="0px"
	 width="64px" height="64px" viewBox="0 0 64 64" enable-background="new 0 0 64 64" xml:space="preserve">
<g id="ARROWS__x2F__VERTICAL_1_" enable-background="new    ">
	<g id="ARROWS__x2F__VERTICAL">
		<g>
			<path d="M57,51c0-1.657-1.343-3-3-3c-0.885,0-1.673,0.391-2.223,1l-0.008-0.007L48,53.182V29l0,0V3c0-1.657-1.343-3-3-3
				s-3,1.343-3,3v7.818l0,0V26l0,0v13l0,0v14.182l-3.77-4.188L38.223,49c-0.55-0.609-1.338-1-2.223-1c-1.657,0-3,1.343-3,3
				c0,0.771,0.3,1.468,0.777,2l-0.008,0.007l9,10L42.777,63c0.55,0.609,1.338,1,2.223,1s1.672-0.391,2.223-1l0.008,0.007l9-10
				L56.223,53C56.701,52.468,57,51.771,57,51z M30.23,10.993l-9-10L21.222,1C20.673,0.391,19.885,0,19,0s-1.673,0.391-2.222,1.001
				L16.77,0.993l-9,10L7.778,11C7.3,11.532,7,12.228,7,13c0,1.657,1.343,3,3,3c0.885,0,1.673-0.391,2.222-1l0.008,0.007L16,10.818
				V25l0,0v13l0,0v15.182l0,0V61c0,1.657,1.343,3,3,3s3-1.343,3-3V29l0,0V10.818l3.77,4.189L25.778,15c0.549,0.61,1.337,1,2.222,1
				c1.657,0,3-1.343,3-3c0-0.772-0.299-1.468-0.778-2L30.23,10.993z"/>
		</g>
	</g>
</g>
</svg>
