<?xml version="1.0" encoding="utf-8"?>
<!-- Generator: Adobe Illustrator 16.0.0, SVG Export Plug-In . SVG Version: 6.00 Build 0)  -->
<!DOCTYPE svg PUBLIC "-//W3C//DTD SVG 1.1//EN" "http://www.w3.org/Graphics/SVG/1.1/DTD/svg11.dtd">
<svg version="1.1" id="Layer_1" xmlns="http://www.w3.org/2000/svg" xmlns:xlink="http://www.w3.org/1999/xlink" x="0px" y="0px"
	 width="64px" height="64px" viewBox="0 0 64 64" enable-background="new 0 0 64 64" xml:space="preserve">
<g id="ARROW_2_1_" enable-background="new    ">
	<g id="ARROW_2">
		<g>
			<path d="M63.137,17.884l-7-7c-0.543-0.543-1.293-0.879-2.121-0.879c-1.656,0-3,1.343-3,3c0,0.828,0.336,1.578,0.879,2.121
				L53.768,17H45c-0.828,0-1.578,0.336-2.121,0.879L11.757,49H9l0,0H3c-1.657,0-3,1.343-3,3s1.343,3,3,3h10
				c0.828,0,1.578-0.336,2.121-0.879L46.243,23H52v0.005h1.773l-1.879,1.879c-0.543,0.543-0.879,1.293-0.879,2.121
				c0,1.657,1.342,3,3,3c0.827,0,1.577-0.336,2.12-0.879l7-7c0.544-0.543,0.88-1.293,0.88-2.121S63.68,18.427,63.137,17.884z"/>
		</g>
	</g>
</g>
</svg>
