<?xml version="1.0" encoding="utf-8"?>
<!-- Generator: Adobe Illustrator 16.0.0, SVG Export Plug-In . SVG Version: 6.00 Build 0)  -->
<!DOCTYPE svg PUBLIC "-//W3C//DTD SVG 1.1//EN" "http://www.w3.org/Graphics/SVG/1.1/DTD/svg11.dtd">
<svg version="1.1" id="Layer_1" xmlns="http://www.w3.org/2000/svg" xmlns:xlink="http://www.w3.org/1999/xlink" x="0px" y="0px"
	 width="64px" height="64px" viewBox="0 0 64 64" enable-background="new 0 0 64 64" xml:space="preserve">
<g id="BASKET__x2F__REMOVE_1_" enable-background="new    ">
	<g id="BASKET__x2F__REMOVE">
		<g>
			<path d="M28.623,9.469L28.606,9.46C28.849,9.026,29,8.533,29,8c0-1.657-1.343-3-3-3c-1.175,0-2.181,0.682-2.673,1.665
				L23.32,6.662L15.2,22h6.789L28.623,9.469z M35.383,9.469l3.329,6.289c1.313-1.574,2.922-2.89,4.742-3.866l-2.769-5.23
				l-0.012,0.006C40.184,5.683,39.176,5,38,5c-1.657,0-3,1.343-3,3c0,0.534,0.15,1.028,0.396,1.462L35.383,9.469z M47,41.477V50
				c0,1.657-1.343,3-3,3s-3-1.343-3-3V38.479C37.346,35.547,35,31.05,35,26c0-0.338,0.029-0.668,0.05-1H3c-1.657,0-3,1.343-3,3
				s1.343,3,3,3h2.658l6.432,25.729l0.009-0.002C12.424,58.029,13.595,59,15,59l0,0c0.005,0,0.01-0.001,0.016-0.001V59H49
				c1.404,0,2.576-0.971,2.9-2.275l0.01,0.002l3.863-15.453C54.266,41.746,52.663,42,51,42C49.616,42,48.281,41.807,47,41.477z
				 M23,50c0,1.657-1.343,3-3,3s-3-1.343-3-3V34c0-1.657,1.343-3,3-3s3,1.343,3,3V50z M35,50c0,1.657-1.343,3-3,3s-3-1.343-3-3V34
				c0-1.657,1.343-3,3-3s3,1.343,3,3V50z M51,13c-7.18,0-13,5.82-13,13c0,7.18,5.82,13,13,13s13-5.82,13-13C64,18.82,58.18,13,51,13
				z M57,29H45c-1.657,0-3-1.343-3-3s1.343-3,3-3h12c1.657,0,3,1.343,3,3S58.657,29,57,29z"/>
		</g>
	</g>
</g>
</svg>
