<?xml version="1.0" encoding="utf-8"?>
<!-- Generator: Adobe Illustrator 16.0.0, SVG Export Plug-In . SVG Version: 6.00 Build 0)  -->
<!DOCTYPE svg PUBLIC "-//W3C//DTD SVG 1.1//EN" "http://www.w3.org/Graphics/SVG/1.1/DTD/svg11.dtd">
<svg version="1.1" id="Layer_1" xmlns="http://www.w3.org/2000/svg" xmlns:xlink="http://www.w3.org/1999/xlink" x="0px" y="0px"
	 width="64px" height="64px" viewBox="0 0 64 64" enable-background="new 0 0 64 64" xml:space="preserve">
<g id="BATTERY_FULL_1_" enable-background="new    ">
	<g id="BATTERY_FULL">
		<g>
			<path d="M61,26v-6c0-1.657-1.343-3-3-3H3c-1.657,0-3,1.343-3,3v24c0,1.657,1.343,3,3,3h55c1.657,0,3-1.343,3-3v-6
				c1.657,0,3-1.343,3-3v-6C64,27.343,62.657,26,61,26z M55,41H6V23h49V41z M52,26H9v12h43V26z"/>
		</g>
	</g>
</g>
</svg>
