<?xml version="1.0" encoding="utf-8"?>
<!-- Generator: Adobe Illustrator 17.0.0, SVG Export Plug-In . SVG Version: 6.00 Build 0)  -->
<!DOCTYPE svg PUBLIC "-//W3C//DTD SVG 1.1//EN" "http://www.w3.org/Graphics/SVG/1.1/DTD/svg11.dtd">
<svg version="1.1" id="BLUETOOTH_1_" xmlns="http://www.w3.org/2000/svg" xmlns:xlink="http://www.w3.org/1999/xlink" x="0px"
	 y="0px" width="64px" height="64px" viewBox="0 0 64 64" enable-background="new 0 0 64 64" xml:space="preserve">
<g id="BLUETOOTH">
	<g>
		<path fill-rule="evenodd" clip-rule="evenodd" d="M37.243,32l11.879-11.879C49.664,19.578,50,18.829,50,18
			c0-0.829-0.336-1.578-0.879-2.121l-15-15C33.578,0.336,32.828,0,32,0c-1.657,0-3,1.343-3,3v20.758l-9.879-9.879
			C18.579,13.336,17.828,13,17,13c-1.657,0-3,1.343-3,3c0,0.829,0.336,1.578,0.879,2.121L28.758,32L14.879,45.879
			C14.336,46.422,14,47.172,14,48c0,1.657,1.343,3,3,3c0.828,0,1.578-0.336,2.121-0.879L29,40.243V61c0,1.657,1.343,3,3,3
			c0.828,0,1.578-0.336,2.121-0.879l15-15C49.664,47.579,50,46.829,50,46c0-0.828-0.336-1.578-0.879-2.121L37.243,32z M35,10.243
			L42.757,18L35,25.757V10.243z M35,53.757V38.243L42.757,46L35,53.757z"/>
	</g>
</g>
</svg>
