<?xml version="1.0" encoding="utf-8"?>
<!-- Generator: Adobe Illustrator 16.0.0, SVG Export Plug-In . SVG Version: 6.00 Build 0)  -->
<!DOCTYPE svg PUBLIC "-//W3C//DTD SVG 1.1//EN" "http://www.w3.org/Graphics/SVG/1.1/DTD/svg11.dtd">
<svg version="1.1" id="Layer_1" xmlns="http://www.w3.org/2000/svg" xmlns:xlink="http://www.w3.org/1999/xlink" x="0px" y="0px"
	 width="64px" height="64px" viewBox="0 0 64 64" enable-background="new 0 0 64 64" xml:space="preserve">
<g id="BOOK_1_" enable-background="new    ">
	<g id="BOOK">
		<g>
			<path d="M10,18h8c1.657,0,3-1.343,3-3s-1.343-3-3-3h-8c-1.657,0-3,1.343-3,3S8.343,18,10,18z M10,35h8c1.657,0,3-1.343,3-3
				s-1.343-3-3-3h-8c-1.657,0-3,1.343-3,3S8.343,35,10,35z M54,3h-3v58h3c1.657,0,3-1.343,3-3V6C57,4.343,55.657,3,54,3z M13,6v3h5
				c3.314,0,6,2.686,6,6s-2.686,6-6,6h-5v5h5c3.314,0,6,2.686,6,6c0,3.314-2.686,6-6,6h-5v5h5c3.314,0,6,2.686,6,6s-2.686,6-6,6h-5
				v3c0,1.657,1.343,3,3,3h32V3H16C14.343,3,13,4.343,13,6z M21,49c0-1.657-1.343-3-3-3h-8c-1.657,0-3,1.343-3,3s1.343,3,3,3h8
				C19.657,52,21,50.657,21,49z"/>
		</g>
	</g>
</g>
</svg>
