<?xml version="1.0" encoding="utf-8"?>
<!-- Generator: Adobe Illustrator 16.0.0, SVG Export Plug-In . SVG Version: 6.00 Build 0)  -->
<!DOCTYPE svg PUBLIC "-//W3C//DTD SVG 1.1//EN" "http://www.w3.org/Graphics/SVG/1.1/DTD/svg11.dtd">
<svg version="1.1" id="Layer_1" xmlns="http://www.w3.org/2000/svg" xmlns:xlink="http://www.w3.org/1999/xlink" x="0px" y="0px"
	 width="64px" height="64px" viewBox="0 0 64 64" enable-background="new 0 0 64 64" xml:space="preserve">
<g id="BRIGHTNESS__x2F__HIGH_1_" enable-background="new    ">
	<g id="BRIGHTNESS__x2F__HIGH">
		<g>
			<path d="M14.879,19.121l0.009-0.009C15.427,19.659,16.17,20,17,20c1.657,0,3-1.343,3-3c0-0.83-0.341-1.573-0.887-2.113
				l0.009-0.009l-1.556-1.556l-5.445-5.445C11.578,7.336,10.828,7,10,7c-1.657,0-3,1.343-3,3c0,0.828,0.336,1.578,0.879,2.121
				L14.879,19.121z M47,20c0.83,0,1.573-0.342,2.113-0.888l0.009,0.009l1.555-1.556l5.444-5.444C56.664,11.578,57,10.828,57,10
				c0-1.657-1.343-3-3-3c-0.828,0-1.578,0.336-2.121,0.879l-5.443,5.445l-1.557,1.556l0.01,0.009C44.342,15.427,44,16.17,44,17
				C44,18.657,45.343,20,47,20z M32,14c1.657,0,3-1.343,3-3V3c0-1.657-1.343-3-3-3s-3,1.343-3,3v8C29,12.657,30.343,14,32,14z
				 M14,32c0-1.657-1.343-3-3-3H3c-1.657,0-3,1.343-3,3s1.343,3,3,3h8C12.657,35,14,33.657,14,32z M50.677,46.434l-1.555-1.556
				C48.578,44.336,47.828,44,47,44c-1.657,0-3,1.343-3,3c0,0.828,0.336,1.578,0.879,2.121l1.557,1.556l5.443,5.444
				C52.422,56.664,53.172,57,54,57c1.657,0,3-1.343,3-3c0-0.828-0.336-1.578-0.879-2.121L50.677,46.434z M17,44
				c-0.828,0-1.578,0.336-2.121,0.879l-7,7C7.336,52.422,7,53.172,7,54c0,1.657,1.343,3,3,3c0.828,0,1.578-0.336,2.121-0.879
				l5.445-5.444l1.556-1.556C19.664,48.579,20,47.828,20,47C20,45.343,18.657,44,17,44z M61,29h-8c-1.657,0-3,1.343-3,3s1.343,3,3,3
				h8c1.657,0,3-1.343,3-3S62.657,29,61,29z M32,20c-6.627,0-12,5.373-12,12c0,1.021,0.141,2.007,0.381,2.953l1.183,2.958
				C23.627,41.544,27.524,44,32,44c6.627,0,12-5.372,12-12C44,25.373,38.627,20,32,20z M32,38c-3.314,0-6-2.686-6-6
				c0-3.314,2.686-6,6-6c3.314,0,6,2.686,6,6C38,35.314,35.314,38,32,38z M32,50c-1.657,0-3,1.343-3,3v8c0,1.657,1.343,3,3,3
				s3-1.343,3-3v-8C35,51.343,33.657,50,32,50z"/>
		</g>
	</g>
</g>
</svg>
