<?xml version="1.0" encoding="utf-8"?>
<!-- Generator: Adobe Illustrator 16.0.0, SVG Export Plug-In . SVG Version: 6.00 Build 0)  -->
<!DOCTYPE svg PUBLIC "-//W3C//DTD SVG 1.1//EN" "http://www.w3.org/Graphics/SVG/1.1/DTD/svg11.dtd">
<svg version="1.1" id="Layer_1" xmlns="http://www.w3.org/2000/svg" xmlns:xlink="http://www.w3.org/1999/xlink" x="0px" y="0px"
	 width="64px" height="64px" viewBox="0 0 64 64" enable-background="new 0 0 64 64" xml:space="preserve">
<g id="BROWSER_LAYOUT_2_1_" enable-background="new    ">
	<g id="BROWSER_LAYOUT_2">
		<g>
			<path d="M61,4H3C1.343,4,0,5.343,0,7v50c0,1.657,1.343,3,3,3h58c1.657,0,3-1.343,3-3V7C64,5.343,62.657,4,61,4z M24,7
				c1.657,0,3,1.343,3,3s-1.343,3-3,3s-3-1.343-3-3S22.343,7,24,7z M15,7c1.657,0,3,1.343,3,3s-1.343,3-3,3s-3-1.343-3-3
				S13.343,7,15,7z M6,7c1.657,0,3,1.343,3,3s-1.343,3-3,3s-3-1.343-3-3S4.343,7,6,7z M46,57H3V31h43V57z M61,57H49V31h12V57z
				 M61,28H3V16h58V28z"/>
		</g>
	</g>
</g>
</svg>
