<?xml version="1.0" encoding="utf-8"?>
<!-- Generator: Adobe Illustrator 16.0.0, SVG Export Plug-In . SVG Version: 6.00 Build 0)  -->
<!DOCTYPE svg PUBLIC "-//W3C//DTD SVG 1.1//EN" "http://www.w3.org/Graphics/SVG/1.1/DTD/svg11.dtd">
<svg version="1.1" id="Layer_1" xmlns="http://www.w3.org/2000/svg" xmlns:xlink="http://www.w3.org/1999/xlink" x="0px" y="0px"
	 width="64px" height="64px" viewBox="0 0 64 64" enable-background="new 0 0 64 64" xml:space="preserve">
<g id="BROWSER__x2F__DELETE_1_" enable-background="new    ">
	<g id="BROWSER__x2F__DELETE">
		<g>
			<path d="M61,4H3C1.343,4,0,5.343,0,7v50c0,1.657,1.343,3,3,3h58c1.657,0,3-1.343,3-3V7C64,5.343,62.657,4,61,4z M24,7
				c1.657,0,3,1.343,3,3s-1.343,3-3,3s-3-1.343-3-3S22.343,7,24,7z M15,7c1.657,0,3,1.343,3,3s-1.343,3-3,3s-3-1.343-3-3
				S13.343,7,15,7z M6,7c1.657,0,3,1.343,3,3s-1.343,3-3,3s-3-1.343-3-3S4.343,7,6,7z M61,57H3V16h58V57z M27.758,37l-4.95,4.95
				c-1.172,1.172-1.172,3.071,0,4.243s3.071,1.172,4.243,0l4.95-4.95l4.95,4.95c1.172,1.172,3.07,1.172,4.242,0
				c1.173-1.172,1.172-3.071,0-4.243L36.243,37l4.95-4.95c1.172-1.172,1.172-3.071,0-4.243c-1.172-1.172-3.071-1.172-4.243,0
				L32,32.758l-4.95-4.95c-1.171-1.171-3.071-1.172-4.243,0c-1.171,1.172-1.171,3.071,0,4.243L27.758,37z"/>
		</g>
	</g>
</g>
</svg>
