<?xml version="1.0" encoding="utf-8"?>
<!-- Generator: Adobe Illustrator 16.0.0, SVG Export Plug-In . SVG Version: 6.00 Build 0)  -->
<!DOCTYPE svg PUBLIC "-//W3C//DTD SVG 1.1//EN" "http://www.w3.org/Graphics/SVG/1.1/DTD/svg11.dtd">
<svg version="1.1" id="Layer_1" xmlns="http://www.w3.org/2000/svg" xmlns:xlink="http://www.w3.org/1999/xlink" x="0px" y="0px"
	 width="64px" height="64px" viewBox="0 0 64 64" enable-background="new 0 0 64 64" xml:space="preserve">
<g id="BROWSER__x2F__OK_1_" enable-background="new    ">
	<g id="BROWSER__x2F__OK">
		<g>
			<path d="M26.879,45.121C27.422,45.664,28.172,46,29,46s1.578-0.336,2.121-0.879l12-12C43.664,32.579,44,31.828,44,31
				c0-1.657-1.343-3-3-3c-0.828,0-1.578,0.336-2.121,0.879L29,38.757l-3.879-3.878C24.579,34.336,23.828,34,23,34
				c-1.657,0-3,1.343-3,3c0,0.828,0.336,1.578,0.879,2.121L26.879,45.121z M61,4H3C1.343,4,0,5.343,0,7v50c0,1.657,1.343,3,3,3h58
				c1.657,0,3-1.343,3-3V7C64,5.343,62.657,4,61,4z M24,7c1.657,0,3,1.343,3,3s-1.343,3-3,3s-3-1.343-3-3S22.343,7,24,7z M15,7
				c1.657,0,3,1.343,3,3s-1.343,3-3,3s-3-1.343-3-3S13.343,7,15,7z M6,7c1.657,0,3,1.343,3,3s-1.343,3-3,3s-3-1.343-3-3S4.343,7,6,7
				z M61,57H3V16h58V57z"/>
		</g>
	</g>
</g>
</svg>
