<?xml version="1.0" encoding="utf-8"?>
<!-- Generator: Adobe Illustrator 16.0.0, SVG Export Plug-In . SVG Version: 6.00 Build 0)  -->
<!DOCTYPE svg PUBLIC "-//W3C//DTD SVG 1.1//EN" "http://www.w3.org/Graphics/SVG/1.1/DTD/svg11.dtd">
<svg version="1.1" id="Layer_1" xmlns="http://www.w3.org/2000/svg" xmlns:xlink="http://www.w3.org/1999/xlink" x="0px" y="0px"
	 width="64px" height="64px" viewBox="0 0 64 64" enable-background="new 0 0 64 64" xml:space="preserve">
<g id="CALENDAR__x2F__OK_1_" enable-background="new    ">
	<g id="CALENDAR__x2F__OK">
		<g>
			<path d="M48,14c1.657,0,3-1.343,3-3V3c0-1.657-1.343-3-3-3s-3,1.343-3,3v8C45,12.657,46.343,14,48,14z M61,8h-6v3
				c0,3.866-3.134,7-7,7s-7-3.134-7-7V8H23v3c0,3.866-3.134,7-7,7s-7-3.134-7-7V8H3c-1.657,0-3,1.343-3,3v50c0,1.657,1.343,3,3,3h58
				c1.657,0,3-1.343,3-3V11C64,9.343,62.657,8,61,8z M58,58H6V24h52V58z M16,14c1.657,0,3-1.343,3-3V3c0-1.657-1.343-3-3-3
				s-3,1.343-3,3v8C13,12.657,14.343,14,16,14z M26.879,50.121C27.422,50.664,28.172,51,29,51s1.578-0.336,2.121-0.879l14-14
				C45.664,35.579,46,34.828,46,34c0-1.657-1.343-3-3-3c-0.828,0-1.578,0.336-2.121,0.879L29,43.757l-4.879-4.879
				C23.578,38.336,22.828,38,22,38c-1.657,0-3,1.343-3,3c0,0.828,0.336,1.578,0.879,2.121L26.879,50.121z"/>
		</g>
	</g>
</g>
</svg>
