<?xml version="1.0" encoding="utf-8"?>
<!-- Generator: Adobe Illustrator 16.0.0, SVG Export Plug-In . SVG Version: 6.00 Build 0)  -->
<!DOCTYPE svg PUBLIC "-//W3C//DTD SVG 1.1//EN" "http://www.w3.org/Graphics/SVG/1.1/DTD/svg11.dtd">
<svg version="1.1" id="Layer_1" xmlns="http://www.w3.org/2000/svg" xmlns:xlink="http://www.w3.org/1999/xlink" x="0px" y="0px"
	 width="64px" height="64px" viewBox="0 0 64 64" enable-background="new 0 0 64 64" xml:space="preserve">
<g id="CALENDAR__x2F__ADD_1_" enable-background="new    ">
	<g id="CALENDAR__x2F__ADD">
		<g>
			<path d="M16,14c1.657,0,3-1.343,3-3V3c0-1.657-1.343-3-3-3s-3,1.343-3,3v8C13,12.657,14.343,14,16,14z M25.126,31
				c-0.001,0-0.002,0-0.003,0h0.007C25.128,31,25.127,31,25.126,31z M48,14c1.657,0,3-1.343,3-3V3c0-1.657-1.343-3-3-3s-3,1.343-3,3
				v8C45,12.657,46.343,14,48,14z M25,44h4v4c0,1.657,1.343,3,3,3s3-1.343,3-3v-4h4c1.657,0,3-1.343,3-3s-1.343-3-3-3h-4v-4
				c0-1.657-1.343-3-3-3s-3,1.343-3,3v4h-4c-1.657,0-3,1.343-3,3S23.343,44,25,44z M61,8h-6v3c0,3.866-3.134,7-7,7s-7-3.134-7-7V8
				H23v3c0,3.866-3.134,7-7,7s-7-3.134-7-7V8H3c-1.657,0-3,1.343-3,3v50c0,1.657,1.343,3,3,3h58c1.657,0,3-1.343,3-3V11
				C64,9.343,62.657,8,61,8z M58,58H6V24h52V58z"/>
		</g>
	</g>
</g>
</svg>
