<?xml version="1.0" encoding="utf-8"?>
<!-- Generator: Adobe Illustrator 16.0.0, SVG Export Plug-In . SVG Version: 6.00 Build 0)  -->
<!DOCTYPE svg PUBLIC "-//W3C//DTD SVG 1.1//EN" "http://www.w3.org/Graphics/SVG/1.1/DTD/svg11.dtd">
<svg version="1.1" id="Layer_1" xmlns="http://www.w3.org/2000/svg" xmlns:xlink="http://www.w3.org/1999/xlink" x="0px" y="0px"
	 width="64px" height="64px" viewBox="0 0 64 64" enable-background="new 0 0 64 64" xml:space="preserve">
<g id="CHART_1_" enable-background="new    ">
	<g id="CHART">
		<g>
			<path d="M61,0H3C1.343,0,0,1.343,0,3v58c0,1.657,1.343,3,3,3h58c1.657,0,3-1.343,3-3V3C64,1.343,62.657,0,61,0z M58,58H6V6h52V58
				z M46,55h6c1.657,0,3-1.343,3-3V31c0-1.657-1.343-3-3-3h-6c-1.657,0-3,1.343-3,3v21C43,53.657,44.343,55,46,55z M29,55h6
				c1.657,0,3-1.343,3-3V19c0-1.657-1.343-3-3-3h-6c-1.657,0-3,1.343-3,3v33C26,53.657,27.343,55,29,55z M12,55h6
				c1.657,0,3-1.343,3-3v-6c0-1.657-1.343-3-3-3h-6c-1.657,0-3,1.343-3,3v6C9,53.657,10.343,55,12,55z"/>
		</g>
	</g>
</g>
</svg>
