<?xml version="1.0" encoding="utf-8"?>
<!-- Generator: Adobe Illustrator 16.0.0, SVG Export Plug-In . SVG Version: 6.00 Build 0)  -->
<!DOCTYPE svg PUBLIC "-//W3C//DTD SVG 1.1//EN" "http://www.w3.org/Graphics/SVG/1.1/DTD/svg11.dtd">
<svg version="1.1" id="Layer_1" xmlns="http://www.w3.org/2000/svg" xmlns:xlink="http://www.w3.org/1999/xlink" x="0px" y="0px"
	 width="64px" height="64px" viewBox="0 0 64 64" enable-background="new 0 0 64 64" xml:space="preserve">
<g id="CIRCLE__x2F__FAST_FORWARD_1_" enable-background="new    ">
	<g id="CIRCLE__x2F__FAST_FORWARD">
		<g>
			<path d="M32,0C14.327,0,0,14.327,0,32s14.327,32,32,32s32-14.327,32-32S49.673,0,32,0z M32,58C17.641,58,6,46.359,6,32
				C6,17.641,17.641,6,32,6c14.359,0,26,11.64,26,26C58,46.359,46.359,58,32,58z M45.559,29.437l-9.699-6.789
				C35.35,22.243,34.703,22,34,22c-1.657,0-3,1.343-3,3c0,0.008,0.001,0.016,0.001,0.024h-0.005v4.018l-9.135-6.394
				C21.349,22.243,20.703,22,20,22c-1.657,0-3,1.343-3,3c0,0.008,0.001,0.016,0.001,0.024h-0.005v14h0.005
				C17.013,40.67,18.351,42,20,42c0.708,0,1.358-0.246,1.871-0.654l9.125-6.388v4.067h0.005C31.013,40.67,32.351,42,34,42
				c0.708,0,1.357-0.246,1.871-0.654l9.68-6.777C46.419,34.043,47,33.089,47,32C47,30.914,46.423,29.963,45.559,29.437z"/>
		</g>
	</g>
</g>
</svg>
