<?xml version="1.0" encoding="utf-8"?>
<!-- Generator: Adobe Illustrator 16.0.0, SVG Export Plug-In . SVG Version: 6.00 Build 0)  -->
<!DOCTYPE svg PUBLIC "-//W3C//DTD SVG 1.1//EN" "http://www.w3.org/Graphics/SVG/1.1/DTD/svg11.dtd">
<svg version="1.1" id="Layer_1" xmlns="http://www.w3.org/2000/svg" xmlns:xlink="http://www.w3.org/1999/xlink" x="0px" y="0px"
	 width="64px" height="64px" viewBox="0 0 64 64" enable-background="new 0 0 64 64" xml:space="preserve">
<g id="CIRCLE__x2F__PLAY_1_" enable-background="new    ">
	<g id="CIRCLE__x2F__PLAY">
		<g>
			<path d="M41.492,29.398l-15.8-9.875C25.21,19.193,24.628,19,24,19c-1.657,0-3,1.343-3,3v20c0,1.657,1.343,3,3,3
				c0.066,0,0.131-0.003,0.195-0.007c0.017-0.001,0.034-0.003,0.051-0.004c0.055-0.005,0.109-0.011,0.163-0.019
				c0.01,0,0.021-0.002,0.031-0.004c0.064-0.01,0.128-0.021,0.191-0.035c0.01-0.002,0.019-0.005,0.029-0.007
				c0.057-0.013,0.112-0.026,0.167-0.043c0.009-0.003,0.018-0.005,0.027-0.008c0.128-0.038,0.252-0.084,0.372-0.138
				c0.005-0.002,0.009-0.004,0.014-0.006c0.123-0.057,0.242-0.121,0.355-0.191l0.013,0.02l15.912-9.974
				C42.404,34.066,43,33.104,43,32C43,30.886,42.393,29.915,41.492,29.398z M32,0C14.327,0,0,14.327,0,32s14.327,32,32,32
				s32-14.327,32-32S49.673,0,32,0z M32,58C17.641,58,6,46.359,6,32C6,17.641,17.641,6,32,6c14.359,0,26,11.64,26,26
				C58,46.359,46.359,58,32,58z"/>
		</g>
	</g>
</g>
</svg>
