<?xml version="1.0" encoding="utf-8"?>
<!-- Generator: Adobe Illustrator 17.0.0, SVG Export Plug-In . SVG Version: 6.00 Build 0)  -->
<!DOCTYPE svg PUBLIC "-//W3C//DTD SVG 1.1//EN" "http://www.w3.org/Graphics/SVG/1.1/DTD/svg11.dtd">
<svg version="1.1" id="CLIP_1_" xmlns="http://www.w3.org/2000/svg" xmlns:xlink="http://www.w3.org/1999/xlink" x="0px" y="0px"
	 width="64px" height="64px" viewBox="0 0 64 64" enable-background="new 0 0 64 64" xml:space="preserve">
<g id="CLIP">
	<g>
		<path fill-rule="evenodd" clip-rule="evenodd" d="M55.628,11.373c-7.029-7.029-18.426-7.029-25.456,0L6.837,34.707
			c-5.077,5.077-5.077,13.308,0,18.385c5.077,5.077,13.308,5.077,18.385,0l21.92-21.92c3.124-3.124,3.124-8.189,0-11.314
			c-3.124-3.124-8.19-3.124-11.314,0L17.444,38.243c-1.172,1.172-1.172,3.071,0,4.243c1.172,1.172,3.071,1.172,4.243,0
			l18.385-18.385c0.781-0.781,2.047-0.781,2.828,0c0.781,0.781,0.781,2.047,0,2.828l-21.92,21.92c-2.734,2.734-7.166,2.734-9.899,0
			c-2.734-2.734-2.734-7.166,0-9.9l23.334-23.334c4.686-4.686,12.284-4.686,16.971,0c4.686,4.686,4.686,12.284,0,16.971
			L31.586,52.385c-1.172,1.172-1.172,3.071,0,4.243c1.172,1.171,3.071,1.171,4.243,0l19.799-19.799
			C62.657,29.799,62.657,18.402,55.628,11.373z"/>
	</g>
</g>
</svg>
