<?xml version="1.0" encoding="utf-8"?>
<!-- Generator: Adobe Illustrator 16.0.0, SVG Export Plug-In . SVG Version: 6.00 Build 0)  -->
<!DOCTYPE svg PUBLIC "-//W3C//DTD SVG 1.1//EN" "http://www.w3.org/Graphics/SVG/1.1/DTD/svg11.dtd">
<svg version="1.1" id="Layer_1" xmlns="http://www.w3.org/2000/svg" xmlns:xlink="http://www.w3.org/1999/xlink" x="0px" y="0px"
	 width="64px" height="64px" viewBox="0 0 64 64" enable-background="new 0 0 64 64" xml:space="preserve">
<g id="CLOSE_1_" enable-background="new    ">
	<g id="CLOSE">
		<g>
			<path d="M36.243,32l11.879-11.879C48.664,19.579,49,18.828,49,18c0-1.657-1.343-3-3-3c-0.828,0-1.578,0.336-2.121,0.879
				L32,27.757L20.121,15.879C19.578,15.336,18.828,15,18,15c-1.657,0-3,1.343-3,3c0,0.828,0.336,1.578,0.879,2.121L27.757,32
				L15.879,43.879C15.336,44.422,15,45.172,15,46c0,1.657,1.343,3,3,3c0.828,0,1.578-0.336,2.121-0.879L32,36.243l11.879,11.879
				C44.422,48.664,45.172,49,46,49c1.657,0,3-1.343,3-3c0-0.828-0.336-1.578-0.879-2.121L36.243,32z"/>
		</g>
	</g>
</g>
</svg>
