<?xml version="1.0" encoding="utf-8"?>
<!-- Generator: Adobe Illustrator 17.0.0, SVG Export Plug-In . SVG Version: 6.00 Build 0)  -->
<!DOCTYPE svg PUBLIC "-//W3C//DTD SVG 1.1//EN" "http://www.w3.org/Graphics/SVG/1.1/DTD/svg11.dtd">
<svg version="1.1" id="COMMAND_1_" xmlns="http://www.w3.org/2000/svg" xmlns:xlink="http://www.w3.org/1999/xlink" x="0px" y="0px"
	 width="64px" height="64px" viewBox="0 0 64 64" enable-background="new 0 0 64 64" xml:space="preserve">
<g id="COMMAND">
	<g>
		<path fill-rule="evenodd" clip-rule="evenodd" d="M51,39h-6V25h6c6.627,0,12-5.372,12-12c0-6.628-5.372-12-12-12
			c-6.628,0-12,5.373-12,12v6H25v-6c0-6.628-5.373-12-12-12C6.373,1,1,6.373,1,13c0,6.627,5.373,12,12,12h6v14h-6
			C6.373,39,1,44.373,1,51c0,6.628,5.373,12,12,12c6.627,0,12-5.372,12-12v-6h14v6c0,6.628,5.372,12,12,12c6.627,0,12-5.372,12-12
			C63,44.373,57.627,39,51,39z M45,13c0-3.314,2.686-6,6-6c3.314,0,6,2.686,6,6s-2.686,6-6,6h-6V13z M19,51c0,3.314-2.686,6-6,6
			c-3.314,0-6-2.686-6-6c0-3.314,2.686-6,6-6h6V51z M19,19h-6c-3.314,0-6-2.686-6-6s2.686-6,6-6c3.314,0,6,2.686,6,6V19z M39,39H25
			V25h14V39z M51,57c-3.314,0-6-2.686-6-6v-6h7v0.101c2.835,0.478,5,2.928,5,5.899C57,54.314,54.314,57,51,57z"/>
	</g>
</g>
</svg>
