<?xml version="1.0" encoding="utf-8"?>
<!-- Generator: Adobe Illustrator 17.0.0, SVG Export Plug-In . SVG Version: 6.00 Build 0)  -->
<!DOCTYPE svg PUBLIC "-//W3C//DTD SVG 1.1//EN" "http://www.w3.org/Graphics/SVG/1.1/DTD/svg11.dtd">
<svg version="1.1" id="COPY_3_" xmlns="http://www.w3.org/2000/svg" xmlns:xlink="http://www.w3.org/1999/xlink" x="0px" y="0px"
	 width="64px" height="64px" viewBox="0 0 64 64" enable-background="new 0 0 64 64" xml:space="preserve">
<g id="COPY">
	<g>
		<path fill-rule="evenodd" clip-rule="evenodd" d="M41,20H3c-1.657,0-3,1.343-3,3v38c0,1.657,1.343,3,3,3h38c1.657,0,3-1.343,3-3
			V23C44,21.343,42.657,20,41,20z M38,58H6V26h9v0h13v0h10V58z M61,0H23c-1.657,0-3,1.343-3,3v14h6V6h9v0h13v0h10v32H47v6h14
			c1.657,0,3-1.343,3-3V3C64,1.344,62.657,0,61,0z"/>
	</g>
</g>
</svg>
