<?xml version="1.0" encoding="utf-8"?>
<!-- Generator: Adobe Illustrator 17.0.0, SVG Export Plug-In . SVG Version: 6.00 Build 0)  -->
<!DOCTYPE svg PUBLIC "-//W3C//DTD SVG 1.1//EN" "http://www.w3.org/Graphics/SVG/1.1/DTD/svg11.dtd">
<svg version="1.1" id="COPY_2_" xmlns="http://www.w3.org/2000/svg" xmlns:xlink="http://www.w3.org/1999/xlink" x="0px" y="0px"
	 width="64px" height="64px" viewBox="0 0 64 64" enable-background="new 0 0 64 64" xml:space="preserve">
<g id="COPY_1_">
	<g>
		<path fill-rule="evenodd" clip-rule="evenodd" d="M38,58h-9v0H16v0H6V26h11v-6H3c-1.657,0-3,1.343-3,3v38c0,1.657,1.343,3,3,3h10
			v0h17v0h11c1.657,0,3-1.343,3-3V47h-6V58z M61,0H23c-1.657,0-3,1.343-3,3v38c0,1.657,1.343,3,3,3h38c1.657,0,3-1.343,3-3V3
			C64,1.343,62.657,0,61,0z M58,38h-9v0H36v0H26V6h32V38z"/>
	</g>
</g>
</svg>
