<?xml version="1.0" encoding="utf-8"?>
<!-- Generator: Adobe Illustrator 17.0.0, SVG Export Plug-In . SVG Version: 6.00 Build 0)  -->
<!DOCTYPE svg PUBLIC "-//W3C//DTD SVG 1.1//EN" "http://www.w3.org/Graphics/SVG/1.1/DTD/svg11.dtd">
<svg version="1.1" id="CROP_1_" xmlns="http://www.w3.org/2000/svg" xmlns:xlink="http://www.w3.org/1999/xlink" x="0px" y="0px"
	 width="64px" height="64px" viewBox="0 0 64 64" enable-background="new 0 0 64 64" xml:space="preserve">
<g id="CROP">
	<g>
		<path fill-rule="evenodd" clip-rule="evenodd" d="M61,49h-6V13.243l8.121-8.121C63.664,4.579,64,3.828,64,3c0-1.657-1.343-3-3-3
			c-0.829,0-1.578,0.336-2.121,0.879L50.757,9H15V3c0-1.657-1.343-3-3-3S9,1.343,9,3v6H3c-1.657,0-3,1.343-3,3c0,1.657,1.343,3,3,3
			h6v35.758l-0.121,0.121L9,51v1.5c0,1.381,1.119,2.5,2.5,2.5H13l0.121,0.121L13.243,55H49v6c0,1.657,1.343,3,3,3
			c1.657,0,3-1.343,3-3v-6h6c1.657,0,3-1.343,3-3C64,50.343,62.657,49,61,49z M15,15h29.757L15,44.757V15z M49,49H19.243L49,19.243
			V49z"/>
	</g>
</g>
</svg>
