<?xml version="1.0" encoding="utf-8"?>
<!-- Generator: Adobe Illustrator 16.0.0, SVG Export Plug-In . SVG Version: 6.00 Build 0)  -->
<!DOCTYPE svg PUBLIC "-//W3C//DTD SVG 1.1//EN" "http://www.w3.org/Graphics/SVG/1.1/DTD/svg11.dtd">
<svg version="1.1" id="Layer_1" xmlns="http://www.w3.org/2000/svg" xmlns:xlink="http://www.w3.org/1999/xlink" x="0px" y="0px"
	 width="64px" height="64px" viewBox="0 0 64 64" enable-background="new 0 0 64 64" xml:space="preserve">
<g id="DOCUMENT__x2F__UPLOAD_1_" enable-background="new    ">
	<g id="DOCUMENT__x2F__UPLOAD">
		<g>
			<path d="M30,21.008h19L27.039,1H27v17.001C27,19.662,28.343,21.008,30,21.008z M36,46c0-1.657,0.672-3.157,1.757-4.243l7-7
				C45.843,33.672,47.343,33,49,33v-8.986H30c-3.314,0-6-2.692-6-6.013V1H8C6.343,1,5,2.343,5,4v52c0,1.657,1.343,3,3,3h35v-7.102
				C42.673,51.954,42.343,52,42,52C38.686,52,36,49.314,36,46z M58.121,43.879l-7-7C50.578,36.336,49.828,36,49,36
				s-1.578,0.336-2.121,0.879l-7,7C39.336,44.422,39,45.172,39,46c0,1.657,1.343,3,3,3c0.828,0,1.578-0.336,2.121-0.879L46,46.243
				V60c0,1.657,1.343,3,3,3s3-1.343,3-3V46.243l1.879,1.879C54.422,48.664,55.172,49,56,49c1.657,0,3-1.343,3-3
				C59,45.172,58.664,44.422,58.121,43.879z"/>
		</g>
	</g>
</g>
</svg>
