<?xml version="1.0" encoding="utf-8"?>
<!-- Generator: Adobe Illustrator 16.0.0, SVG Export Plug-In . SVG Version: 6.00 Build 0)  -->
<!DOCTYPE svg PUBLIC "-//W3C//DTD SVG 1.1//EN" "http://www.w3.org/Graphics/SVG/1.1/DTD/svg11.dtd">
<svg version="1.1" id="Layer_1" xmlns="http://www.w3.org/2000/svg" xmlns:xlink="http://www.w3.org/1999/xlink" x="0px" y="0px"
	 width="64px" height="64px" viewBox="0 0 64 64" enable-background="new 0 0 64 64" xml:space="preserve">
<g id="DOCUMENT__x2F__DOWNLOAD_1_" enable-background="new    ">
	<g id="DOCUMENT__x2F__DOWNLOAD">
		<g>
			<path d="M30,21.008h19L27.039,1H27v17.001C27,19.662,28.343,21.008,30,21.008z M36,53c0-3.314,2.686-6,6-6
				c0.343,0,0.673,0.046,1,0.102V39c0-3.314,2.686-6,6-6l0,0v-8.986H30c-3.314,0-6-2.692-6-6.013V1H8C6.343,1,5,2.343,5,4v52
				c0,1.657,1.343,3,3,3h31.516l-1.758-1.757C36.672,56.157,36,54.657,36,53z M56,50c-0.828,0-1.578,0.336-2.121,0.879L52,52.757V39
				c0-1.657-1.343-3-3-3s-3,1.343-3,3v13.757l-1.879-1.879C43.578,50.336,42.828,50,42,50c-1.657,0-3,1.343-3,3
				c0,0.828,0.336,1.578,0.879,2.121l7,7C47.422,62.664,48.172,63,49,63s1.578-0.336,2.121-0.879l7-7C58.664,54.579,59,53.829,59,53
				C59,51.343,57.657,50,56,50z"/>
		</g>
	</g>
</g>
</svg>
