<?xml version="1.0" encoding="utf-8"?>
<!-- Generator: Adobe Illustrator 16.0.0, SVG Export Plug-In . SVG Version: 6.00 Build 0)  -->
<!DOCTYPE svg PUBLIC "-//W3C//DTD SVG 1.1//EN" "http://www.w3.org/Graphics/SVG/1.1/DTD/svg11.dtd">
<svg version="1.1" id="Layer_1" xmlns="http://www.w3.org/2000/svg" xmlns:xlink="http://www.w3.org/1999/xlink" x="0px" y="0px"
	 width="64px" height="64px" viewBox="0 0 64 64" enable-background="new 0 0 64 64" xml:space="preserve">
<g id="DOCUMENT__x2F__REMOVE_1_" enable-background="new    ">
	<g id="DOCUMENT__x2F__REMOVE">
		<g>
			<path d="M31,23.008h19L28,2.964v17.037C28,21.662,29.343,23.008,31,23.008z M38,55c0-3.314,2.686-6,6-6h6V26.014H31
				c-3.314,0-6-2.692-6-6.013V2.964h-9V3H9C7.343,3,6,4.343,6,6v52c0,1.657,1.343,3,3,3h35l0,0C40.686,61,38,58.314,38,55z M56,52
				H44c-1.657,0-3,1.343-3,3s1.343,3,3,3h12c1.657,0,3-1.343,3-3S57.657,52,56,52z"/>
		</g>
	</g>
</g>
</svg>
