<?xml version="1.0" encoding="utf-8"?>
<!-- Generator: Adobe Illustrator 16.0.0, SVG Export Plug-In . SVG Version: 6.00 Build 0)  -->
<!DOCTYPE svg PUBLIC "-//W3C//DTD SVG 1.1//EN" "http://www.w3.org/Graphics/SVG/1.1/DTD/svg11.dtd">
<svg version="1.1" id="Layer_1" xmlns="http://www.w3.org/2000/svg" xmlns:xlink="http://www.w3.org/1999/xlink" x="0px" y="0px"
	 width="64px" height="64px" viewBox="0 0 64 64" enable-background="new 0 0 64 64" xml:space="preserve">
<g id="dropbox_1_" enable-background="new    ">
	<g id="dropbox">
		<g>
			<path d="M32.04,39.477L18.826,50.346l-5.654-3.662v4.105L32.04,62.003l18.864-11.215v-4.106l-5.652,3.662L32.04,39.477z
				 M0.001,35.846l18.825,12.184L32,37.134L13.018,25.513L0.001,35.846z M32,37.134l13.174,10.896L64,35.846L50.982,25.513
				L32,37.134z M18.826,2.997L0.001,15.176l13.017,10.337L32,13.893L18.826,2.997z M63.999,15.176L45.174,2.997L32,13.893
				l18.982,11.619L63.999,15.176z"/>
		</g>
	</g>
</g>
</svg>
