<?xml version="1.0" encoding="utf-8"?>
<!-- Generator: Adobe Illustrator 16.0.0, SVG Export Plug-In . SVG Version: 6.00 Build 0)  -->
<!DOCTYPE svg PUBLIC "-//W3C//DTD SVG 1.1//EN" "http://www.w3.org/Graphics/SVG/1.1/DTD/svg11.dtd">
<svg version="1.1" id="Layer_1" xmlns="http://www.w3.org/2000/svg" xmlns:xlink="http://www.w3.org/1999/xlink" x="0px" y="0px"
	 width="64px" height="64px" viewBox="0 0 64 64" enable-background="new 0 0 64 64" xml:space="preserve">
<g id="EQUALIZER_1_" enable-background="new    ">
	<g id="EQUALIZER">
		<g>
			<path d="M13,23H7c-1.657,0-3,1.343-3,3v12c0,1.657,1.343,3,3,3h6c1.657,0,3-1.343,3-3V26C16,24.343,14.657,23,13,23z M13,3
				c0-1.657-1.343-3-3-3S7,1.343,7,3v17h6V3z M35,3c0-1.657-1.343-3-3-3s-3,1.343-3,3v25h6V3z M57,3c0-1.657-1.343-3-3-3
				s-3,1.343-3,3v9h6V3z M7,61c0,1.657,1.343,3,3,3s3-1.343,3-3V44H7V61z M57,15h-6c-1.657,0-3,1.343-3,3v12c0,1.657,1.343,3,3,3h6
				c1.657,0,3-1.343,3-3V18C60,16.343,58.657,15,57,15z M51,61c0,1.657,1.343,3,3,3s3-1.343,3-3V36h-6V61z M29,61
				c0,1.657,1.343,3,3,3s3-1.343,3-3v-9h-6V61z M35,31h-6c-1.657,0-3,1.343-3,3v12c0,1.657,1.343,3,3,3h6c1.657,0,3-1.343,3-3V34
				C38,32.343,36.657,31,35,31z"/>
		</g>
	</g>
</g>
</svg>
