<?xml version="1.0" encoding="utf-8"?>
<!-- Generator: Adobe Illustrator 16.0.0, SVG Export Plug-In . SVG Version: 6.00 Build 0)  -->
<!DOCTYPE svg PUBLIC "-//W3C//DTD SVG 1.1//EN" "http://www.w3.org/Graphics/SVG/1.1/DTD/svg11.dtd">
<svg version="1.1" id="Layer_1" xmlns="http://www.w3.org/2000/svg" xmlns:xlink="http://www.w3.org/1999/xlink" x="0px" y="0px"
	 width="64px" height="64px" viewBox="0 0 64 64" enable-background="new 0 0 64 64" xml:space="preserve">
<g id="FAST_FORWARD_1_" enable-background="new    ">
	<g id="FAST_FORWARD">
		<g>
			<path d="M51,32c0-1.073-0.562-2.013-1.41-2.544l0,0l-0.021-0.014c-0.006-0.003-0.01-0.007-0.017-0.01L33.59,19.456l0,0
				C33.129,19.168,32.584,19,32,19c-1.657,0-3,1.343-3,3v4.587l-11.41-7.131l0,0C17.129,19.168,16.584,19,16,19
				c-1.657,0-3,1.343-3,3v20c0,1.657,1.343,3,3,3c0.584,0,1.129-0.167,1.59-0.456l0,0L29,37.413V42c0,1.657,1.343,3,3,3
				c0.584,0,1.129-0.167,1.59-0.456l0,0l15.962-9.976c0.005-0.004,0.011-0.008,0.017-0.01l0.021-0.015l0,0
				C50.438,34.014,51,33.073,51,32z"/>
		</g>
	</g>
</g>
</svg>
