<?xml version="1.0" encoding="utf-8"?>
<!-- Generator: Adobe Illustrator 17.0.0, SVG Export Plug-In . SVG Version: 6.00 Build 0)  -->
<!DOCTYPE svg PUBLIC "-//W3C//DTD SVG 1.1//EN" "http://www.w3.org/Graphics/SVG/1.1/DTD/svg11.dtd">
<svg version="1.1" id="FIRST_AID_1_" xmlns="http://www.w3.org/2000/svg" xmlns:xlink="http://www.w3.org/1999/xlink" x="0px"
	 y="0px" width="64px" height="64px" viewBox="0 0 64 64" enable-background="new 0 0 64 64" xml:space="preserve">
<g id="FIRST_AID">
	<g>
		<path fill-rule="evenodd" clip-rule="evenodd" d="M61,18H47c0-8.284-6.716-15-15-15c-8.284,0-15,6.716-15,15H3
			c-1.657,0-3,1.343-3,3v37c0,1.657,1.343,3,3,3h5v0h3v0h42v0h3v0h5c1.657,0,3-1.343,3-3V21C64,19.343,62.657,18,61,18z M32,9
			c4.971,0,9,4.029,9,9H23C23,13.03,27.03,9,32,9z M43,42h-8v8c0,1.657-1.343,3-3,3c-1.657,0-3-1.343-3-3v-8h-8
			c-1.657,0-3-1.343-3-3c0-1.657,1.343-3,3-3h8v-8c0-1.657,1.343-3,3-3c1.657,0,3,1.343,3,3v8h8c1.657,0,3,1.343,3,3
			C46,40.657,44.657,42,43,42z"/>
	</g>
</g>
</svg>
