<?xml version="1.0" encoding="utf-8"?>
<!-- Generator: Adobe Illustrator 16.0.0, SVG Export Plug-In . SVG Version: 6.00 Build 0)  -->
<!DOCTYPE svg PUBLIC "-//W3C//DTD SVG 1.1//EN" "http://www.w3.org/Graphics/SVG/1.1/DTD/svg11.dtd">
<svg version="1.1" id="Layer_1" xmlns="http://www.w3.org/2000/svg" xmlns:xlink="http://www.w3.org/1999/xlink" x="0px" y="0px"
	 width="64px" height="64px" viewBox="0 0 64 64" enable-background="new 0 0 64 64" xml:space="preserve">
<g id="FOLDER__x2F__OK_3_" enable-background="new    ">
	<g id="FOLDER__x2F__OK">
		<g>
			<path d="M61,46c-0.828,0-1.578,0.336-2.121,0.879L53,52.758l-1.879-1.879C50.578,50.336,49.828,50,49,50c-1.657,0-3,1.343-3,3
				c0,0.828,0.336,1.578,0.879,2.121l4,4C51.422,59.664,52.172,60,53,60s1.578-0.336,2.121-0.879l8-8C63.664,50.579,64,49.828,64,49
				C64,47.343,62.657,46,61,46z M61,11H23.982L18,5H3C1.343,5,0,6.343,0,8v9h64v-3C64,12.343,62.657,11,61,11z M0,52
				c0,1.657,1.343,3,3,3h40.367l0,0C43.145,54.372,43,53.705,43,53c0-3.314,2.686-6,6-6c1.533,0,2.916,0.592,3.977,1.538
				l3.781-3.781C57.843,43.672,59.343,43,61,43c1.1,0,2.113,0.316,3,0.832V20H0V52z"/>
		</g>
	</g>
</g>
</svg>
