<?xml version="1.0" encoding="utf-8"?>
<!-- Generator: Adobe Illustrator 16.0.0, SVG Export Plug-In . SVG Version: 6.00 Build 0)  -->
<!DOCTYPE svg PUBLIC "-//W3C//DTD SVG 1.1//EN" "http://www.w3.org/Graphics/SVG/1.1/DTD/svg11.dtd">
<svg version="1.1" id="Layer_1" xmlns="http://www.w3.org/2000/svg" xmlns:xlink="http://www.w3.org/1999/xlink" x="0px" y="0px"
	 width="64px" height="64px" viewBox="0 0 64 64" enable-background="new 0 0 64 64" xml:space="preserve">
<g id="FOLDER__x2F__REMOVE_1_" enable-background="new    ">
	<g id="FOLDER__x2F__REMOVE">
		<g>
			<path d="M0,54c0,1.657,1.343,3,3,3h39.367C42.145,56.372,42,55.705,42,55c0-3.314,2.686-6,6-6h12c1.544,0,2.938,0.6,4,1.557V22H0
				V54z M60,52H48c-1.657,0-3,1.343-3,3s1.343,3,3,3h12c1.657,0,3-1.343,3-3S61.657,52,60,52z M61,13H23.982L18,7H3
				c-1.657,0-3,1.343-3,3v9h64v-3C64,14.343,62.657,13,61,13z"/>
		</g>
	</g>
</g>
</svg>
