<?xml version="1.0" encoding="utf-8"?>
<!-- Generator: Adobe Illustrator 16.0.0, SVG Export Plug-In . SVG Version: 6.00 Build 0)  -->
<!DOCTYPE svg PUBLIC "-//W3C//DTD SVG 1.1//EN" "http://www.w3.org/Graphics/SVG/1.1/DTD/svg11.dtd">
<svg version="1.1" id="Layer_1" xmlns="http://www.w3.org/2000/svg" xmlns:xlink="http://www.w3.org/1999/xlink" x="0px" y="0px"
	 width="64px" height="64px" viewBox="0 0 64 64" enable-background="new 0 0 64 64" xml:space="preserve">
<g id="FOLLOWERS_1_" enable-background="new    ">
	<g id="FOLLOWERS">
		<g>
			<path d="M34,53c0-1.657,0.672-3.157,1.757-4.242l7-7l0.017,0.018c0.379-0.375,0.806-0.702,1.272-0.969
				c-3.979-1.701-5.021-2.293-5.021-2.293l-0.055-5.894c0,0,2.324-1.764,3.049-7.337c1.451,0.42,1.942-1.701,2.021-3.056
				c0.086-1.309,0.858-5.389-0.917-5.025c0.363-2.724,0.648-5.187,0.52-6.491c-0.444-4.576-3.608-9.355-11.595-9.704
				c-6.79,0.349-11.198,5.131-11.643,9.708c-0.128,1.304,0.133,3.764,0.496,6.493c-1.774-0.369-1.01,3.719-0.932,5.027
				c0.086,1.355,0.566,3.482,2.02,3.062c0.722,5.574,3.046,7.352,3.046,7.352l-0.058,5.925c0,0-1.47,0.897-7.675,3.466
				c-6.205,2.574-4.259,0.533-9.314,3.047C0,49.062,0,59.993,0,59.993h0.002C0.001,59.995,0,59.998,0,60c0,1.657,1.343,3,3,3h38.516
				l-5.758-5.758C34.672,56.157,34,54.657,34,53z M52.898,47h5.828c-0.789-0.725-1.662-1.391-2.713-1.913
				c-1.854-0.923-2.765-1.246-3.482-1.415C52.833,44.387,53,45.174,53,46C53,46.343,52.954,46.673,52.898,47z M47.243,56H61
				c1.657,0,3-1.343,3-3s-1.343-3-3-3H47.243l1.879-1.879C49.664,47.579,50,46.828,50,46c0-1.657-1.343-3-3-3
				c-0.828,0-1.578,0.336-2.121,0.879l-7,7C37.336,51.422,37,52.172,37,53c0,0.829,0.336,1.578,0.879,2.121l7,7
				C45.422,62.664,46.172,63,47,63c1.657,0,3-1.343,3-3c0-0.828-0.336-1.578-0.879-2.121L47.243,56z M64.001,59.993
				c0,0,0-0.679-0.124-1.759C63.02,58.707,62.049,59,61,59h-8.104C52.953,59.326,53,59.657,53,60c0,1.1-0.316,2.114-0.832,3H61
				c1.657,0,3-1.343,3-3c0-0.003-0.001-0.005-0.001-0.007H64.001z"/>
		</g>
	</g>
</g>
</svg>
