<?xml version="1.0" encoding="utf-8"?>
<!-- Generator: Adobe Illustrator 16.0.0, SVG Export Plug-In . SVG Version: 6.00 Build 0)  -->
<!DOCTYPE svg PUBLIC "-//W3C//DTD SVG 1.1//EN" "http://www.w3.org/Graphics/SVG/1.1/DTD/svg11.dtd">
<svg version="1.1" id="Layer_1" xmlns="http://www.w3.org/2000/svg" xmlns:xlink="http://www.w3.org/1999/xlink" x="0px" y="0px"
	 width="64px" height="64px" viewBox="0 0 64 64" enable-background="new 0 0 64 64" xml:space="preserve">
<g id="forrst_1_" enable-background="new    ">
	<g id="forrst">
		<g>
			<path d="M59.873,61.947L33.865,0.88c-0.229-0.538-0.747-0.883-1.321-0.883c-0.574,0-1.093,0.345-1.32,0.88L5.127,61.943
				c-0.194,0.457-0.15,0.98,0.116,1.396c0.267,0.412,0.719,0.663,1.205,0.663h22.123V50.667L20.714,48c-1.085,0-1.964-0.895-1.964-2
				s0.879-2,1.964-2l7.857,2.667V34c0-1.104,0.879-2,1.964-2h3.929c1.085,0,1.964,0.896,1.964,2v3l5.893-3
				c1.086,0,1.965,0.895,1.965,2c0,1.104-0.879,2-1.965,2l-5.893,3v7l9.821-6c1.085,0,1.964,0.895,1.964,2c0,1.104-0.879,2-1.964,2
				l-9.821,6v12.003h22.123c0.487,0,0.938-0.248,1.205-0.663C60.021,62.928,60.066,62.4,59.873,61.947z"/>
		</g>
	</g>
</g>
</svg>
