<?xml version="1.0" encoding="utf-8"?>
<!-- Generator: Adobe Illustrator 17.0.0, SVG Export Plug-In . SVG Version: 6.00 Build 0)  -->
<!DOCTYPE svg PUBLIC "-//W3C//DTD SVG 1.1//EN" "http://www.w3.org/Graphics/SVG/1.1/DTD/svg11.dtd">
<svg version="1.1" id="GRAPH_FALL_1_" xmlns="http://www.w3.org/2000/svg" xmlns:xlink="http://www.w3.org/1999/xlink" x="0px"
	 y="0px" width="64px" height="64px" viewBox="0 0 64 64" enable-background="new 0 0 64 64" xml:space="preserve">
<g id="GRAPH_FALL">
	<g>
		<path fill-rule="evenodd" clip-rule="evenodd" d="M61,30c-1.657,0-3,1.343-3,3v4.757L43.086,22.843v0l-5.965-5.965
			C36.578,16.336,35.828,16,35,16s-1.578,0.336-2.121,0.879L19,30.758L5.121,16.879C4.578,16.336,3.828,16,3,16
			c-1.657,0-3,1.343-3,3c0,0.828,0.336,1.579,0.879,2.121l16,16C17.422,37.664,18.172,38,19,38c0.828,0,1.578-0.336,2.121-0.879
			L35,23.243l3.843,3.843l0.298,0.298l1.738,1.738L53.757,42H49c-1.657,0-3,1.343-3,3c0,1.657,1.343,3,3,3h12c1.657,0,3-1.343,3-3
			V33C64,31.343,62.657,30,61,30z"/>
	</g>
</g>
</svg>
