<?xml version="1.0" encoding="utf-8"?>
<!-- Generator: Adobe Illustrator 17.0.0, SVG Export Plug-In . SVG Version: 6.00 Build 0)  -->
<!DOCTYPE svg PUBLIC "-//W3C//DTD SVG 1.1//EN" "http://www.w3.org/Graphics/SVG/1.1/DTD/svg11.dtd">
<svg version="1.1" id="GRAPH_RISE_1_" xmlns="http://www.w3.org/2000/svg" xmlns:xlink="http://www.w3.org/1999/xlink" x="0px"
	 y="0px" width="64px" height="64px" viewBox="0 0 64 64" enable-background="new 0 0 64 64" xml:space="preserve">
<g id="GRAPH_RISE">
	<g>
		<path fill-rule="evenodd" clip-rule="evenodd" d="M61,16H49c-1.657,0-3,1.343-3,3c0,1.657,1.343,3,3,3h4.757L40.879,34.879
			l-1.738,1.738l-0.298,0.298L35,40.758L21.121,26.879C20.578,26.336,19.829,26,19,26c-0.828,0-1.578,0.336-2.121,0.879l-16,16
			C0.336,43.422,0,44.172,0,45c0,1.657,1.343,3,3,3c0.828,0,1.578-0.336,2.121-0.879L19,33.243l13.879,13.879
			C33.422,47.664,34.172,48,35,48c0.828,0,1.578-0.336,2.121-0.879l5.964-5.965h0L58,26.243V31c0,1.657,1.343,3,3,3
			c1.657,0,3-1.343,3-3V19C64,17.343,62.657,16,61,16z"/>
	</g>
</g>
</svg>
