<?xml version="1.0" encoding="utf-8"?>
<!-- Generator: Adobe Illustrator 16.0.0, SVG Export Plug-In . SVG Version: 6.00 Build 0)  -->
<!DOCTYPE svg PUBLIC "-//W3C//DTD SVG 1.1//EN" "http://www.w3.org/Graphics/SVG/1.1/DTD/svg11.dtd">
<svg version="1.1" id="Layer_1" xmlns="http://www.w3.org/2000/svg" xmlns:xlink="http://www.w3.org/1999/xlink" x="0px" y="0px"
	 width="64px" height="64px" viewBox="0 0 64 64" enable-background="new 0 0 64 64" xml:space="preserve">
<g id="GRID_2_1_" enable-background="new    ">
	<g id="GRID_2">
		<g>
			<path d="M26,35H6c-1.657,0-3,1.343-3,3v20c0,1.657,1.343,3,3,3h20c1.657,0,3-1.343,3-3V38C29,36.343,27.657,35,26,35z M26,3H6
				C4.343,3,3,4.343,3,6v20c0,1.657,1.343,3,3,3h20c1.657,0,3-1.343,3-3V6C29,4.343,27.657,3,26,3z M58,3H38c-1.657,0-3,1.343-3,3
				v20c0,1.657,1.343,3,3,3h20c1.657,0,3-1.343,3-3V6C61,4.343,59.657,3,58,3z M58,35H38c-1.657,0-3,1.343-3,3v20
				c0,1.657,1.343,3,3,3h20c1.657,0,3-1.343,3-3V38C61,36.343,59.657,35,58,35z"/>
		</g>
	</g>
</g>
</svg>
