<?xml version="1.0" encoding="utf-8"?>
<!-- Generator: Adobe Illustrator 16.0.0, SVG Export Plug-In . SVG Version: 6.00 Build 0)  -->
<!DOCTYPE svg PUBLIC "-//W3C//DTD SVG 1.1//EN" "http://www.w3.org/Graphics/SVG/1.1/DTD/svg11.dtd">
<svg version="1.1" id="Layer_1" xmlns="http://www.w3.org/2000/svg" xmlns:xlink="http://www.w3.org/1999/xlink" x="0px" y="0px"
	 width="64px" height="64px" viewBox="0 0 64 64" enable-background="new 0 0 64 64" xml:space="preserve">
<g id="INBOX__x2F__IN_1_" enable-background="new    ">
	<g id="INBOX__x2F__IN">
		<g>
			<path d="M22,27c0,0.828,0.336,1.578,0.879,2.121l7,7C30.422,36.664,31.172,37,32,37s1.578-0.336,2.121-0.879l7-7
				C41.664,28.579,42,27.828,42,27c0-1.657-1.343-3-3-3c-0.828,0-1.578,0.336-2.121,0.879L35,26.758V8c0-1.657-1.343-3-3-3
				s-3,1.343-3,3v18.757l-1.879-1.879C26.578,24.336,25.829,24,25,24C23.343,24,22,25.343,22,27z M63.8,36.924l-7.978-20.941
				C55.406,14.827,54.3,14,53,14H38v6h12.932l5.715,15H47c-1.657,0-3,1.343-3,3v3H20v-3c0-1.657-1.343-3-3-3H7.353l5.714-15H26v-6
				H11c-1.3,0-2.406,0.827-2.823,1.982L0.2,36.924C0.071,37.258,0,37.621,0,38v19c0,1.657,1.343,3,3,3h58c1.657,0,3-1.343,3-3V38
				C64,37.621,63.93,37.258,63.8,36.924z"/>
		</g>
	</g>
</g>
</svg>
