<?xml version="1.0" encoding="utf-8"?>
<!-- Generator: Adobe Illustrator 16.0.0, SVG Export Plug-In . SVG Version: 6.00 Build 0)  -->
<!DOCTYPE svg PUBLIC "-//W3C//DTD SVG 1.1//EN" "http://www.w3.org/Graphics/SVG/1.1/DTD/svg11.dtd">
<svg version="1.1" id="Layer_1" xmlns="http://www.w3.org/2000/svg" xmlns:xlink="http://www.w3.org/1999/xlink" x="0px" y="0px"
	 width="64px" height="64px" viewBox="0 0 64 64" enable-background="new 0 0 64 64" xml:space="preserve">
<g id="INBOX__x2F__OUT_1_" enable-background="new    ">
	<g id="INBOX__x2F__OUT">
		<g>
			<path d="M25,18c0.828,0,1.578-0.336,2.121-0.879L29,15.243V34c0,1.657,1.343,3,3,3s3-1.343,3-3V15.243l1.879,1.879
				C37.422,17.664,38.172,18,39,18c1.657,0,3-1.343,3-3c0-0.828-0.336-1.578-0.879-2.121l-7-7C33.578,5.336,32.829,5,32,5
				c-0.828,0-1.578,0.336-2.121,0.879l-7,7C22.336,13.422,22,14.172,22,15C22,16.657,23.343,18,25,18z M63.8,36.924l-7.978-20.941
				C55.406,14.827,54.3,14,53,14h-8.102C44.954,14.327,45,14.658,45,15c0,2.09-1.07,3.926-2.691,5h8.623l5.715,15H47
				c-1.657,0-3,1.343-3,3v3H20v-3c0-1.657-1.343-3-3-3H7.353l5.714-15h8.623C20.071,18.926,19,17.09,19,15
				c0-0.342,0.046-0.673,0.101-1H11l0,0c-1.3,0-2.406,0.827-2.823,1.982L0.2,36.924C0.071,37.258,0,37.621,0,38v19
				c0,1.657,1.343,3,3,3h58c1.657,0,3-1.343,3-3V38C64,37.621,63.93,37.258,63.8,36.924z"/>
		</g>
	</g>
</g>
</svg>
