<?xml version="1.0" encoding="utf-8"?>
<!-- Generator: Adobe Illustrator 16.0.0, SVG Export Plug-In . SVG Version: 6.00 Build 0)  -->
<!DOCTYPE svg PUBLIC "-//W3C//DTD SVG 1.1//EN" "http://www.w3.org/Graphics/SVG/1.1/DTD/svg11.dtd">
<svg version="1.1" id="Layer_1" xmlns="http://www.w3.org/2000/svg" xmlns:xlink="http://www.w3.org/1999/xlink" x="0px" y="0px"
	 width="64px" height="64px" viewBox="0 0 64 64" enable-background="new 0 0 64 64" xml:space="preserve">
<g id="IPAD_1_" enable-background="new    ">
	<g id="IPAD">
		<g>
			<path d="M54,3H10C8.343,3,7,4.343,7,6v52c0,1.657,1.343,3,3,3h44c1.657,0,3-1.343,3-3V6C57,4.343,55.657,3,54,3z M32,59
				c-1.105,0-2-0.896-2-2s0.895-2,2-2c1.105,0,2,0.896,2,2S33.105,59,32,59z M51,53H13V9h38V53z"/>
		</g>
	</g>
</g>
</svg>
