<?xml version="1.0" encoding="utf-8"?>
<!-- Generator: Adobe Illustrator 16.0.0, SVG Export Plug-In . SVG Version: 6.00 Build 0)  -->
<!DOCTYPE svg PUBLIC "-//W3C//DTD SVG 1.1//EN" "http://www.w3.org/Graphics/SVG/1.1/DTD/svg11.dtd">
<svg version="1.1" id="Layer_1" xmlns="http://www.w3.org/2000/svg" xmlns:xlink="http://www.w3.org/1999/xlink" x="0px" y="0px"
	 width="64px" height="64px" viewBox="0 0 64 64" enable-background="new 0 0 64 64" xml:space="preserve">
<g id="IPHONE_1_" enable-background="new    ">
	<g id="IPHONE">
		<g>
			<path d="M46,3H18c-1.657,0-3,1.343-3,3v52c0,1.657,1.343,3,3,3h28c1.657,0,3-1.343,3-3V6C49,4.343,47.657,3,46,3z M32,58
				c-1.105,0-2-0.895-2-2s0.895-2,2-2c1.105,0,2,0.895,2,2S33.105,58,32,58z M46,51H18V9h28V51z"/>
		</g>
	</g>
</g>
</svg>
