<?xml version="1.0" encoding="utf-8"?>
<!-- Generator: Adobe Illustrator 16.0.0, SVG Export Plug-In . SVG Version: 6.00 Build 0)  -->
<!DOCTYPE svg PUBLIC "-//W3C//DTD SVG 1.1//EN" "http://www.w3.org/Graphics/SVG/1.1/DTD/svg11.dtd">
<svg version="1.1" id="Layer_1" xmlns="http://www.w3.org/2000/svg" xmlns:xlink="http://www.w3.org/1999/xlink" x="0px" y="0px"
	 width="64px" height="64px" viewBox="0 0 64 64" enable-background="new 0 0 64 64" xml:space="preserve">
<g id="LINE_GRAPH_2_" enable-background="new    ">
	<g id="LINE_GRAPH_1_">
		<g>
			<path d="M61,53H6V40.716l13.9-8.177l13.42,8.947c0.002,0,0.003,0.002,0.005,0.003l0.011,0.007l0.001-0.001
				C33.812,41.812,34.384,42,35,42c0.635,0,1.221-0.2,1.706-0.536l0.002,0.002l25.969-17.979c0,0,0.001,0,0.001-0.001l0.03-0.021
				l-0.002-0.003C63.486,22.923,64,22.022,64,21c0-1.657-1.343-3-3-3c-0.635,0-1.221,0.2-1.706,0.536l-0.002-0.003l-24.324,16.84
				l-13.289-8.859c-0.001-0.001-0.003-0.002-0.005-0.003l-0.011-0.007l-0.001,0.001C21.187,26.187,20.616,26,20,26
				c-0.555,0-1.069,0.161-1.515,0.424l-0.006-0.01L6,33.755V8c0-1.657-1.343-3-3-3S0,6.343,0,8v48c0,1.657,1.343,3,3,3h58
				c1.657,0,3-1.343,3-3S62.657,53,61,53z"/>
		</g>
	</g>
</g>
</svg>
