<?xml version="1.0" encoding="utf-8"?>
<!-- Generator: Adobe Illustrator 16.0.0, SVG Export Plug-In . SVG Version: 6.00 Build 0)  -->
<!DOCTYPE svg PUBLIC "-//W3C//DTD SVG 1.1//EN" "http://www.w3.org/Graphics/SVG/1.1/DTD/svg11.dtd">
<svg version="1.1" id="Layer_1" xmlns="http://www.w3.org/2000/svg" xmlns:xlink="http://www.w3.org/1999/xlink" x="0px" y="0px"
	 width="64px" height="64px" viewBox="0 0 64 64" enable-background="new 0 0 64 64" xml:space="preserve">
<g id="LINE_GRAPH_3_" enable-background="new    ">
	<g id="LINE_GRAPH">
		<g>
			<path d="M12,38.035c0.628,0,1.212-0.194,1.694-0.524l6.271-3.919l13.312,8.875c0.488,0.344,1.082,0.545,1.724,0.545
				c0.656,0,1.263-0.211,1.757-0.568h0.001l17-12l-0.001-0.001C54.51,29.897,55,29.012,55,28.011c0-1.657-1.343-3-3-3
				c-0.662,0-1.273,0.215-1.77,0.578L34.953,36.373l-13.261-8.841l-0.012,0.017c-0.479-0.325-1.058-0.514-1.68-0.514
				c-0.575,0-1.113,0.162-1.569,0.443l-0.002-0.002l-8,5l0.001,0.002C9.573,33.006,9,33.953,9,35.035
				C9,36.691,10.343,38.035,12,38.035z M61,0H3C1.343,0,0,1.343,0,3v58c0,1.657,1.343,3,3,3h58c1.657,0,3-1.343,3-3V3
				C64,1.343,62.657,0,61,0z M58,58H6V6h52V58z"/>
		</g>
	</g>
</g>
</svg>
