<?xml version="1.0" encoding="utf-8"?>
<!-- Generator: Adobe Illustrator 16.0.0, SVG Export Plug-In . SVG Version: 6.00 Build 0)  -->
<!DOCTYPE svg PUBLIC "-//W3C//DTD SVG 1.1//EN" "http://www.w3.org/Graphics/SVG/1.1/DTD/svg11.dtd">
<svg version="1.1" id="Layer_1" xmlns="http://www.w3.org/2000/svg" xmlns:xlink="http://www.w3.org/1999/xlink" x="0px" y="0px"
	 width="64px" height="64px" viewBox="0 0 64 64" enable-background="new 0 0 64 64" xml:space="preserve">
<g id="LINK_1_" enable-background="new    ">
	<g id="LINK">
		<g>
			<path d="M26.461,45.766c-0.056,0.062-0.096,0.131-0.155,0.19l-8.349,8.37c-2.306,2.311-6.043,2.311-8.349,0
				c-2.305-2.311-2.305-6.059,0-8.37l8.349-8.37c0.018-0.018,0.041-0.029,0.059-0.049l7.187-7.187
				c-3.943-1.062-8.326-0.052-11.421,3.05L5.433,41.77c-4.611,4.623-4.611,12.119,0,16.74c4.611,4.623,12.087,4.623,16.697,0
				l8.349-8.369c3.091-3.101,4.1-7.49,3.044-11.44L26.461,45.766z M58.48,5.401c-4.61-4.623-12.086-4.623-16.696,0l-8.349,8.37
				c-3.083,3.09-4.094,7.462-3.055,11.403l7.221-7.221l0.006,0.006c0.002-0.001,0.002-0.002,0.002-0.002l8.35-8.37
				c2.305-2.311,6.043-2.311,8.35,0c2.305,2.311,2.305,6.059,0,8.37l-8.35,8.37c-0.098,0.098-0.211,0.167-0.312,0.256l-6.971,6.97
				c3.953,1.078,8.354,0.071,11.457-3.041l8.35-8.37C63.091,17.518,63.091,10.023,58.48,5.401z M42,19
				c-0.868,0-1.645,0.374-2.191,0.964L19.964,39.809C19.375,40.355,19,41.132,19,42c0,1.657,1.343,3,3,3
				c0.836,0,1.591-0.344,2.135-0.896l0.009,0.01l20-20l-0.01-0.009C44.669,23.563,45,22.82,45,22C45,20.343,43.657,19,42,19z"/>
		</g>
	</g>
</g>
</svg>
