<?xml version="1.0" encoding="utf-8"?>
<!-- Generator: Adobe Illustrator 16.0.0, SVG Export Plug-In . SVG Version: 6.00 Build 0)  -->
<!DOCTYPE svg PUBLIC "-//W3C//DTD SVG 1.1//EN" "http://www.w3.org/Graphics/SVG/1.1/DTD/svg11.dtd">
<svg version="1.1" id="Layer_1" xmlns="http://www.w3.org/2000/svg" xmlns:xlink="http://www.w3.org/1999/xlink" x="0px" y="0px"
	 width="64px" height="64px" viewBox="0 0 64 64" enable-background="new 0 0 64 64" xml:space="preserve">
<g id="linkedin_1_" enable-background="new    ">
	<g id="linkedin">
		<g>
			<path d="M0.798,62.986h14.315V22.368H0.798V62.986z M48.434,21.087c-5.925,0-9.192,1.972-12.953,6.749v-5.469H21.189v40.619
				H35.48V40.914c0-4.658,2.24-9.214,7.596-9.214s6.673,4.555,6.673,9.103v22.184H64v-23.09C64,23.854,54.361,21.087,48.434,21.087z
				 M7.982,2.013C3.572,2.013,0,5.222,0,9.183c0,3.958,3.572,7.162,7.982,7.162c4.406,0,7.978-3.205,7.978-7.162
				C15.96,5.222,12.388,2.013,7.982,2.013z"/>
		</g>
	</g>
</g>
</svg>
