<?xml version="1.0" encoding="utf-8"?>
<!-- Generator: Adobe Illustrator 16.0.0, SVG Export Plug-In . SVG Version: 6.00 Build 0)  -->
<!DOCTYPE svg PUBLIC "-//W3C//DTD SVG 1.1//EN" "http://www.w3.org/Graphics/SVG/1.1/DTD/svg11.dtd">
<svg version="1.1" id="Layer_1" xmlns="http://www.w3.org/2000/svg" xmlns:xlink="http://www.w3.org/1999/xlink" x="0px" y="0px"
	 width="64px" height="64px" viewBox="0 0 64 64" enable-background="new 0 0 64 64" xml:space="preserve">
<g id="LIST_1_" enable-background="new    ">
	<g id="LIST">
		<g>
			<path d="M3,19h58c1.657,0,3-1.343,3-3s-1.343-3-3-3H3c-1.657,0-3,1.343-3,3S1.343,19,3,19z M61,29H3c-1.657,0-3,1.343-3,3
				s1.343,3,3,3h58c1.657,0,3-1.343,3-3S62.657,29,61,29z M61,45H3c-1.657,0-3,1.343-3,3s1.343,3,3,3h58c1.657,0,3-1.343,3-3
				S62.657,45,61,45z"/>
		</g>
	</g>
</g>
</svg>
