<?xml version="1.0" encoding="utf-8"?>
<!-- Generator: Adobe Illustrator 16.0.0, SVG Export Plug-In . SVG Version: 6.00 Build 0)  -->
<!DOCTYPE svg PUBLIC "-//W3C//DTD SVG 1.1//EN" "http://www.w3.org/Graphics/SVG/1.1/DTD/svg11.dtd">
<svg version="1.1" id="Layer_1" xmlns="http://www.w3.org/2000/svg" xmlns:xlink="http://www.w3.org/1999/xlink" x="0px" y="0px"
	 width="64px" height="64px" viewBox="0 0 64 64" enable-background="new 0 0 64 64" xml:space="preserve">
<g id="LOCK_1_" enable-background="new    ">
	<g id="LOCK">
		<g>
			<path d="M55,32h-5V18c0-9.941-8.059-18-18-18c-9.941,0-18,8.059-18,18v14H9c-1.657,0-3,1.343-3,3v26c0,1.657,1.343,3,3,3h46
				c1.657,0,3-1.343,3-3V35C58,33.343,56.657,32,55,32z M35,49.168V55c0,1.657-1.343,3-3,3s-3-1.343-3-3v-5.832
				c-1.786-1.039-3-2.953-3-5.168c0-3.314,2.686-6,6-6c3.314,0,6,2.686,6,6C38,46.215,36.786,48.129,35,49.168z M44,32H20V18
				c0-6.627,5.373-12,12-12s12,5.373,12,12V32z"/>
		</g>
	</g>
</g>
</svg>
