<?xml version="1.0" encoding="utf-8"?>
<!-- Generator: Adobe Illustrator 16.0.0, SVG Export Plug-In . SVG Version: 6.00 Build 0)  -->
<!DOCTYPE svg PUBLIC "-//W3C//DTD SVG 1.1//EN" "http://www.w3.org/Graphics/SVG/1.1/DTD/svg11.dtd">
<svg version="1.1" id="Layer_1" xmlns="http://www.w3.org/2000/svg" xmlns:xlink="http://www.w3.org/1999/xlink" x="0px" y="0px"
	 width="64px" height="64px" viewBox="0 0 64 64" enable-background="new 0 0 64 64" xml:space="preserve">
<g id="LOGOUT_1_" enable-background="new    ">
	<g id="LOGOUT">
		<g>
			<path d="M56,32c0-0.885-0.383-1.681-0.993-2.23l0,0l-10-9l0,0C44.475,20.292,43.771,20,43,20c-1.657,0-3,1.343-3,3
				c0,0.885,0.384,1.681,0.993,2.23l0,0L45.182,29H27l0,0c-1.657,0-3,1.343-3,3s1.343,3,3,3l0,0h18.182l-4.188,3.77l0,0
				C40.384,39.32,40,40.115,40,41c0,1.657,1.343,3,3,3c0.771,0,1.475-0.292,2.007-0.77l0,0l10-9l0,0C55.617,33.682,56,32.885,56,32z
				 M26,52H14V12h12c1.657,0,3-1.343,3-3s-1.343-3-3-3H11C9.343,6,8,7.343,8,9v46c0,1.657,1.343,3,3,3h15c1.657,0,3-1.343,3-3
				S27.657,52,26,52z"/>
		</g>
	</g>
</g>
</svg>
