<?xml version="1.0" encoding="utf-8"?>
<!-- Generator: Adobe Illustrator 16.0.0, SVG Export Plug-In . SVG Version: 6.00 Build 0)  -->
<!DOCTYPE svg PUBLIC "-//W3C//DTD SVG 1.1//EN" "http://www.w3.org/Graphics/SVG/1.1/DTD/svg11.dtd">
<svg version="1.1" id="Layer_1" xmlns="http://www.w3.org/2000/svg" xmlns:xlink="http://www.w3.org/1999/xlink" x="0px" y="0px"
	 width="64px" height="64px" viewBox="0 0 64 64" enable-background="new 0 0 64 64" xml:space="preserve">
<g id="MAIL_1_" enable-background="new    ">
	<g id="MAIL">
		<g>
			<path d="M63.002,10.78C62.471,10.3,61.773,10,61,10H3c-0.773,0-1.47,0.3-2.002,0.78L32,35L63.002,10.78z M0.894,10.866
				C0.343,11.41,0,12.165,0,13v38c0,0.789,0.311,1.501,0.809,2.037l19.569-23.296L0.894,10.866z M32,41l-8.136-7.881L0.943,53.175
				C1.481,53.684,2.202,54,3,54h58c0.798,0,1.52-0.316,2.057-0.825l-22.92-20.056L32,41z M63.105,10.866L43.622,29.741
				l19.569,23.296C63.689,52.502,64,51.789,64,51V13C64,12.165,63.657,11.41,63.105,10.866z"/>
		</g>
	</g>
</g>
</svg>
