<?xml version="1.0" encoding="utf-8"?>
<!-- Generator: Adobe Illustrator 16.0.0, SVG Export Plug-In . SVG Version: 6.00 Build 0)  -->
<!DOCTYPE svg PUBLIC "-//W3C//DTD SVG 1.1//EN" "http://www.w3.org/Graphics/SVG/1.1/DTD/svg11.dtd">
<svg version="1.1" id="Layer_1" xmlns="http://www.w3.org/2000/svg" xmlns:xlink="http://www.w3.org/1999/xlink" x="0px" y="0px"
	 width="64px" height="64px" viewBox="0 0 64 64" enable-background="new 0 0 64 64" xml:space="preserve">
<g id="MAIL__x2F__OUTGOING_1_" enable-background="new    ">
	<g id="MAIL__x2F__OUTGOING">
		<g>
			<path d="M0.894,17.866C0.343,18.41,0,19.165,0,20v38c0,0.789,0.311,1.501,0.809,2.037l19.569-23.296L0.894,17.866z M25,16
				c0.828,0,1.578-0.336,2.121-0.879L29,13.243V27c0,1.657,1.343,3,3,3s3-1.343,3-3V13.243l1.879,1.879
				C37.422,15.664,38.172,16,39,16c1.657,0,3-1.343,3-3c0-0.828-0.336-1.578-0.879-2.121l-7-7C33.578,3.336,32.828,3,32,3
				s-1.578,0.336-2.121,0.879l-7,7C22.336,11.422,22,12.172,22,13C22,14.657,23.343,16,25,16z M63.002,17.78
				C62.471,17.3,61.773,17,61,17H43.443c-1.098,1.219-2.674,2-4.443,2c-0.344,0-0.673-0.053-1-0.11V27c0,3.314-2.686,6-6,6
				c-3.314,0-6-2.686-6-6v-8.11C25.673,18.947,25.344,19,25,19c-1.77,0-3.345-0.781-4.443-2H3c-0.773,0-1.47,0.3-2.002,0.78L32,42
				L63.002,17.78z M63.105,17.866L43.622,36.741l19.569,23.296C63.689,59.502,64,58.789,64,58V20
				C64,19.165,63.657,18.41,63.105,17.866z M32,48l-8.136-7.881L0.943,60.175C1.481,60.684,2.202,61,3,61h58
				c0.798,0,1.52-0.316,2.057-0.825l-22.92-20.056L32,48z"/>
		</g>
	</g>
</g>
</svg>
