<?xml version="1.0" encoding="utf-8"?>
<!-- Generator: Adobe Illustrator 16.0.0, SVG Export Plug-In . SVG Version: 6.00 Build 0)  -->
<!DOCTYPE svg PUBLIC "-//W3C//DTD SVG 1.1//EN" "http://www.w3.org/Graphics/SVG/1.1/DTD/svg11.dtd">
<svg version="1.1" id="Layer_1" xmlns="http://www.w3.org/2000/svg" xmlns:xlink="http://www.w3.org/1999/xlink" x="0px" y="0px"
	 width="64px" height="64px" viewBox="0 0 64 64" enable-background="new 0 0 64 64" xml:space="preserve">
<g id="MAP_1_" enable-background="new    ">
	<g id="MAP">
		<g>
			<path d="M60.866,15.668L60.866,15.668l-0.024-0.02c-0.072-0.058-0.145-0.117-0.224-0.168L44.867,3.667l-0.001,0.001
				C44.352,3.256,43.709,3,43,3c-0.495,0-0.956,0.131-1.367,0.344L41.63,3.339L21.251,14.455L6.867,3.667L6.866,3.668
				C6.352,3.256,5.709,3,5,3C3.343,3,2,4.343,2,6v40c0,1.057,0.548,1.98,1.372,2.514l15.815,11.861C19.692,60.762,20.315,61,21,61
				c0.528,0,1.018-0.148,1.449-0.389l0.003,0.007l20.272-11.058l14.543,10.905l0.012-0.016C57.766,60.795,58.357,61,59,61
				c1.657,0,3-1.343,3-3V18C62,17.052,61.552,16.218,60.866,15.668z M18,51.986l-10-7.5V12.017l10,7.5V51.986z M40,44.212l-16,8.728
				V19.79l16-8.727V44.212z M56,52.018l-10-7.5v-32.5l10,7.5V52.018z"/>
		</g>
	</g>
</g>
</svg>
