<?xml version="1.0" encoding="utf-8"?>
<!-- Generator: Adobe Illustrator 16.0.0, SVG Export Plug-In . SVG Version: 6.00 Build 0)  -->
<!DOCTYPE svg PUBLIC "-//W3C//DTD SVG 1.1//EN" "http://www.w3.org/Graphics/SVG/1.1/DTD/svg11.dtd">
<svg version="1.1" id="Layer_1" xmlns="http://www.w3.org/2000/svg" xmlns:xlink="http://www.w3.org/1999/xlink" x="0px" y="0px"
	 width="64px" height="64px" viewBox="0 0 64 64" enable-background="new 0 0 64 64" xml:space="preserve">
<g id="MAP__x2F__OK_1_" enable-background="new    ">
	<g id="MAP__x2F__OK">
		<g>
			<path d="M50,35c-7.18,0-13,5.82-13,13s5.82,13,13,13s13-5.82,13-13S57.18,35,50,35z M58.121,47.121l-8,8
				C49.578,55.664,48.828,56,48,56s-1.578-0.336-2.121-0.879l-4-4C41.336,50.578,41,49.828,41,49c0-1.657,1.343-3,3-3
				c0.828,0,1.578,0.336,2.121,0.879L48,48.757l5.879-5.879C54.422,42.336,55.172,42,56,42c1.657,0,3,1.343,3,3
				C59,45.829,58.664,46.578,58.121,47.121z M34.055,46.909L23,52.939V19.79l16-8.727V36.4c1.693-1.605,3.732-2.846,6-3.592V12.017
				l10,7.5v13.292c2.268,0.746,4.307,1.986,6,3.592V18c0-0.948-0.448-1.782-1.134-2.332l0.001-0.001l-0.025-0.019
				c-0.074-0.058-0.145-0.117-0.224-0.168L43.867,3.667l-0.001,0.001C43.352,3.256,42.709,3,42,3c-0.495,0-0.955,0.131-1.367,0.344
				L40.63,3.339L20.251,14.455L5.867,3.667L5.866,3.668C5.352,3.256,4.709,3,4,3C2.343,3,1,4.343,1,6v40
				c0,1.057,0.548,1.98,1.372,2.514l15.815,11.861C18.692,60.762,19.315,61,20,61c0.528,0,1.018-0.148,1.449-0.389l0.004,0.007
				l13.457-7.341C34.331,51.623,34,49.852,34,48C34,47.632,34.031,47.271,34.055,46.909z M17,51.986l-10-7.5V12.017l10,7.5V51.986z"
				/>
		</g>
	</g>
</g>
</svg>
