<?xml version="1.0" encoding="utf-8"?>
<!-- Generator: Adobe Illustrator 16.0.0, SVG Export Plug-In . SVG Version: 6.00 Build 0)  -->
<!DOCTYPE svg PUBLIC "-//W3C//DTD SVG 1.1//EN" "http://www.w3.org/Graphics/SVG/1.1/DTD/svg11.dtd">
<svg version="1.1" id="Layer_1" xmlns="http://www.w3.org/2000/svg" xmlns:xlink="http://www.w3.org/1999/xlink" x="0px" y="0px"
	 width="64px" height="64px" viewBox="0 0 64 64" enable-background="new 0 0 64 64" xml:space="preserve">
<g id="COMPUTER__x2F__OK_1_" enable-background="new    ">
	<g id="COMPUTER__x2F__OK">
		<g>
			<path d="M27.879,31.121C28.422,31.664,29.172,32,30,32c0.829,0,1.578-0.336,2.121-0.879l8-8C40.664,22.578,41,21.829,41,21
				c0-1.657-1.343-3-3-3c-0.828,0-1.578,0.336-2.121,0.879L30,24.757l-1.879-1.879C27.578,22.336,26.828,22,26,22
				c-1.657,0-3,1.343-3,3c0,0.828,0.336,1.578,0.879,2.121L27.879,31.121z M60,4H4C2.343,4,1,5.343,1,7v40c0,1.657,1.343,3,3,3h19v5
				l-4,4v1h26v-1l-4-4v-5h19c1.657,0,3-1.343,3-3V7C63,5.343,61.657,4,60,4z M59,42H5V8h54V42z"/>
		</g>
	</g>
</g>
</svg>
