<?xml version="1.0" encoding="utf-8"?>
<!-- Generator: Adobe Illustrator 16.0.0, SVG Export Plug-In . SVG Version: 6.00 Build 0)  -->
<!DOCTYPE svg PUBLIC "-//W3C//DTD SVG 1.1//EN" "http://www.w3.org/Graphics/SVG/1.1/DTD/svg11.dtd">
<svg version="1.1" id="Layer_1" xmlns="http://www.w3.org/2000/svg" xmlns:xlink="http://www.w3.org/1999/xlink" x="0px" y="0px"
	 width="64px" height="64px" viewBox="0 0 64 64" enable-background="new 0 0 64 64" xml:space="preserve">
<g id="COMPUTER__x2F__UPLOAD_1_" enable-background="new    ">
	<g id="COMPUTER__x2F__UPLOAD">
		<g>
			<path d="M25,15c0.829,0,1.579-0.336,2.121-0.879L29,12.243V26c0,1.657,1.343,3,3,3s3-1.343,3-3V12.243l1.879,1.879
				C37.422,14.664,38.172,15,39,15c1.657,0,3-1.343,3-3c0-0.828-0.336-1.578-0.879-2.121l-7-7C33.578,2.336,32.829,2,32,2
				c-0.828,0-1.578,0.336-2.121,0.879l-7,7C22.336,10.422,22,11.172,22,12C22,13.657,23.343,15,25,15z M60,6H41.484l4,4H59v34H5V10
				h13.515l4-4H4C2.343,6,1,7.343,1,9v40c0,1.657,1.343,3,3,3h19v5l-4,4v1h26v-1l-4-4v-5h19c1.657,0,3-1.343,3-3V9
				C63,7.343,61.657,6,60,6z"/>
		</g>
	</g>
</g>
</svg>
