<?xml version="1.0" encoding="utf-8"?>
<!-- Generator: Adobe Illustrator 16.0.0, SVG Export Plug-In . SVG Version: 6.00 Build 0)  -->
<!DOCTYPE svg PUBLIC "-//W3C//DTD SVG 1.1//EN" "http://www.w3.org/Graphics/SVG/1.1/DTD/svg11.dtd">
<svg version="1.1" id="Layer_1" xmlns="http://www.w3.org/2000/svg" xmlns:xlink="http://www.w3.org/1999/xlink" x="0px" y="0px"
	 width="64px" height="64px" viewBox="0 0 64 64" enable-background="new 0 0 64 64" xml:space="preserve">
<g id="COMPUTER__x2F__DELETE_1_" enable-background="new    ">
	<g id="COMPUTER__x2F__DELETE">
		<g>
			<path d="M60,4H4C2.343,4,1,5.343,1,7v40c0,1.657,1.343,3,3,3h19v5l-4,4v1h26v-1l-4-4v-5h19c1.657,0,3-1.343,3-3V7
				C63,5.343,61.657,4,60,4z M59,42H5V8h54V42z M23,31c0,1.657,1.343,3,3,3c0.828,0,1.578-0.336,2.121-0.879L32,29.243l3.879,3.879
				C36.422,33.664,37.172,34,38,34c1.657,0,3-1.343,3-3c0-0.828-0.336-1.578-0.879-2.121L36.243,25l3.879-3.879
				C40.664,20.578,41,19.828,41,19c0-1.657-1.343-3-3-3c-0.828,0-1.578,0.336-2.121,0.879L32,20.757l-3.879-3.879
				C27.578,16.336,26.828,16,26,16c-1.657,0-3,1.343-3,3c0,0.828,0.336,1.578,0.879,2.121L27.757,25l-3.879,3.879
				C23.336,29.422,23,30.172,23,31z"/>
		</g>
	</g>
</g>
</svg>
