<?xml version="1.0" encoding="utf-8"?>
<!-- Generator: Adobe Illustrator 16.0.0, SVG Export Plug-In . SVG Version: 6.00 Build 0)  -->
<!DOCTYPE svg PUBLIC "-//W3C//DTD SVG 1.1//EN" "http://www.w3.org/Graphics/SVG/1.1/DTD/svg11.dtd">
<svg version="1.1" id="Layer_1" xmlns="http://www.w3.org/2000/svg" xmlns:xlink="http://www.w3.org/1999/xlink" x="0px" y="0px"
	 width="64px" height="64px" viewBox="0 0 64 64" enable-background="new 0 0 64 64" xml:space="preserve">
<g id="COMPUTER__x2F__ADD_1_" enable-background="new    ">
	<g id="COMPUTER__x2F__ADD">
		<g>
			<path d="M26,28h3v3c0,1.657,1.343,3,3,3s3-1.343,3-3v-3h3c1.657,0,3-1.343,3-3s-1.343-3-3-3h-3v-3c0-1.657-1.343-3-3-3
				s-3,1.343-3,3v3h-3c-1.657,0-3,1.343-3,3S24.343,28,26,28z M60,4H4C2.343,4,1,5.343,1,7v40c0,1.657,1.343,3,3,3h19v5l-4,4v1h26
				v-1l-4-4v-5h19c1.657,0,3-1.343,3-3V7C63,5.343,61.657,4,60,4z M59,42H5V8h54V42z"/>
		</g>
	</g>
</g>
</svg>
