<?xml version="1.0" encoding="utf-8"?>
<!-- Generator: Adobe Illustrator 16.0.0, SVG Export Plug-In . SVG Version: 6.00 Build 0)  -->
<!DOCTYPE svg PUBLIC "-//W3C//DTD SVG 1.1//EN" "http://www.w3.org/Graphics/SVG/1.1/DTD/svg11.dtd">
<svg version="1.1" id="Layer_1" xmlns="http://www.w3.org/2000/svg" xmlns:xlink="http://www.w3.org/1999/xlink" x="0px" y="0px"
	 width="64px" height="64px" viewBox="0 0 64 64" enable-background="new 0 0 64 64" xml:space="preserve">
<g id="COMPUTER__x2F__DOWNLOAD_1_" enable-background="new    ">
	<g id="COMPUTER__x2F__DOWNLOAD">
		<g>
			<path d="M22,19c0,0.828,0.336,1.578,0.879,2.121l7,7C30.422,28.664,31.172,29,32,29s1.578-0.336,2.121-0.879l7-7
				C41.664,20.579,42,19.828,42,19c0-1.657-1.343-3-3-3c-0.828,0-1.578,0.336-2.121,0.879L35,18.758V5c0-1.657-1.343-3-3-3
				s-3,1.343-3,3v13.757l-1.879-1.879C26.578,16.336,25.828,16,25,16C23.343,16,22,17.343,22,19z M60,6H38v4h21v34H5V10h21V6H4
				C2.343,6,1,7.343,1,9v40c0,1.657,1.343,3,3,3h19v5l-4,4v1h26v-1l-4-4v-5h19c1.657,0,3-1.343,3-3V9C63,7.343,61.657,6,60,6z"/>
		</g>
	</g>
</g>
</svg>
