<?xml version="1.0" encoding="utf-8"?>
<!-- Generator: Adobe Illustrator 16.0.0, SVG Export Plug-In . SVG Version: 6.00 Build 0)  -->
<!DOCTYPE svg PUBLIC "-//W3C//DTD SVG 1.1//EN" "http://www.w3.org/Graphics/SVG/1.1/DTD/svg11.dtd">
<svg version="1.1" id="Layer_1" xmlns="http://www.w3.org/2000/svg" xmlns:xlink="http://www.w3.org/1999/xlink" x="0px" y="0px"
	 width="64px" height="64px" viewBox="0 0 64 64" enable-background="new 0 0 64 64" xml:space="preserve">
<g id="MORE_1_" enable-background="new    ">
	<g id="MORE">
		<g>
			<path d="M13.001,26C9.687,26,7,28.687,7,32.002c0,3.314,2.687,6.001,6.001,6.001s6.001-2.687,6.001-6.001
				C19.001,28.687,16.315,26,13.001,26z M51.001,26C47.688,26,45,28.687,45,32.002c0,3.314,2.688,6.001,6.001,6.001
				s6.001-2.687,6.001-6.001C57.001,28.687,54.314,26,51.001,26z M32.001,26C28.687,26,26,28.687,26,32.002
				c0,3.314,2.686,6.001,6.001,6.001c3.315,0,6.001-2.687,6.001-6.001C38.001,28.687,35.314,26,32.001,26z"/>
		</g>
	</g>
</g>
</svg>
