<?xml version="1.0" encoding="utf-8"?>
<!-- Generator: Adobe Illustrator 16.0.0, SVG Export Plug-In . SVG Version: 6.00 Build 0)  -->
<!DOCTYPE svg PUBLIC "-//W3C//DTD SVG 1.1//EN" "http://www.w3.org/Graphics/SVG/1.1/DTD/svg11.dtd">
<svg version="1.1" id="Layer_1" xmlns="http://www.w3.org/2000/svg" xmlns:xlink="http://www.w3.org/1999/xlink" x="0px" y="0px"
	 width="64px" height="64px" viewBox="0 0 64 64" enable-background="new 0 0 64 64" xml:space="preserve">
<g id="MUSIC_1_" enable-background="new    ">
	<g id="MUSIC">
		<g>
			<path d="M60,0L20,9c0,0-3,0.681-3,3v40.66C15.499,52.241,13.802,52,12,52c-6.075,0-11,2.686-11,6s4.925,6,11,6s11-2.686,11-6
				V26.123l34-7.415V43.66C55.499,43.241,53.802,43,52,43c-6.075,0-11,2.686-11,6s4.925,6,11,6s11-2.686,11-6V3
				C63,1.343,61.657,0,60,0z"/>
		</g>
	</g>
</g>
</svg>
