<?xml version="1.0" encoding="utf-8"?>
<!-- Generator: Adobe Illustrator 16.0.0, SVG Export Plug-In . SVG Version: 6.00 Build 0)  -->
<!DOCTYPE svg PUBLIC "-//W3C//DTD SVG 1.1//EN" "http://www.w3.org/Graphics/SVG/1.1/DTD/svg11.dtd">
<svg version="1.1" id="Layer_1" xmlns="http://www.w3.org/2000/svg" xmlns:xlink="http://www.w3.org/1999/xlink" x="0px" y="0px"
	 width="64px" height="64px" viewBox="0 0 64 64" enable-background="new 0 0 64 64" xml:space="preserve">
<g id="NOTEPAD__x2F__OK_1_" enable-background="new    ">
	<g id="NOTEPAD__x2F__OK">
		<g>
			<path d="M31,12c1.657,0,3-1.343,3-3V3c0-1.657-1.343-3-3-3s-3,1.343-3,3v6C28,10.657,29.343,12,31,12z M46,12
				c1.657,0,3-1.343,3-3V3c0-1.657-1.343-3-3-3s-3,1.343-3,3v6C43,10.657,44.343,12,46,12z M16,12c1.657,0,3-1.343,3-3V3
				c0-1.657-1.343-3-3-3s-3,1.343-3,3v6C13,10.657,14.343,12,16,12z M60,50c-0.828,0-1.578,0.336-2.121,0.879L52,56.758
				l-1.879-1.879C49.578,54.336,48.829,54,48,54c-1.657,0-3,1.343-3,3c0,0.828,0.336,1.578,0.879,2.121l4,4
				C50.422,63.664,51.172,64,52,64s1.578-0.336,2.121-0.879l8-8C62.664,54.578,63,53.828,63,53C63,51.343,61.657,50,60,50z
				 M43.775,61.225C42.684,60.146,42,58.659,42,57c0-3.314,2.686-6,6-6c1.535,0,2.908,0.602,3.961,1.555l3.797-3.798
				C56.843,47.672,58.343,47,60,47V9c0-1.657-1.343-3-3-3h-5v3c0,3.314-2.686,6-6,6s-6-2.686-6-6V6h-3v3c0,3.314-2.686,6-6,6
				c-3.314,0-6-2.686-6-6V6h-3v3c0,3.314-2.686,6-6,6s-6-2.686-6-6V6H5C3.343,6,2,7.343,2,9v52c0,1.657,1.343,3,3,3h41.516
				l-2.758-2.757L43.775,61.225z M13,23h36c1.657,0,3,1.343,3,3s-1.343,3-3,3H13c-1.657,0-3-1.343-3-3S11.343,23,13,23z M13,36h36
				c1.657,0,3,1.343,3,3s-1.343,3-3,3H13c-1.657,0-3-1.343-3-3S11.343,36,13,36z M31.5,54h-19c-1.381,0-2.5-1.119-2.5-2.5
				s1.119-2.5,2.5-2.5h19c1.381,0,2.5,1.119,2.5,2.5S32.881,54,31.5,54z"/>
		</g>
	</g>
</g>
</svg>
