<?xml version="1.0" encoding="utf-8"?>
<!-- Generator: Adobe Illustrator 16.0.0, SVG Export Plug-In . SVG Version: 6.00 Build 0)  -->
<!DOCTYPE svg PUBLIC "-//W3C//DTD SVG 1.1//EN" "http://www.w3.org/Graphics/SVG/1.1/DTD/svg11.dtd">
<svg version="1.1" id="Layer_1" xmlns="http://www.w3.org/2000/svg" xmlns:xlink="http://www.w3.org/1999/xlink" x="0px" y="0px"
	 width="64px" height="64px" viewBox="0 0 64 64" enable-background="new 0 0 64 64" xml:space="preserve">
<g id="NOTEPAD__x2F__ADD_1_" enable-background="new    ">
	<g id="NOTEPAD__x2F__ADD">
		<g>
			<path d="M46,12c1.657,0,3-1.343,3-3V3c0-1.657-1.343-3-3-3s-3,1.343-3,3v6C43,10.657,44.343,12,46,12z M31,12
				c1.657,0,3-1.343,3-3V3c0-1.657-1.343-3-3-3s-3,1.343-3,3v6C28,10.657,29.343,12,31,12z M60,52h-3v-3c0-1.657-1.343-3-3-3
				s-3,1.343-3,3v3h-3c-1.657,0-3,1.343-3,3s1.343,3,3,3h3v3c0,1.657,1.343,3,3,3s3-1.343,3-3v-3h3c1.657,0,3-1.343,3-3
				S61.657,52,60,52z M42,55c0-3.314,2.686-6,6-6c0-3.314,2.686-6,6-6s6,2.686,6,6V9c0-1.657-1.343-3-3-3h-5v3c0,3.314-2.686,6-6,6
				s-6-2.686-6-6V6h-3v3c0,3.314-2.686,6-6,6c-3.314,0-6-2.686-6-6V6h-3v3c0,3.314-2.686,6-6,6s-6-2.686-6-6V6H5
				C3.343,6,2,7.343,2,9v52c0,1.657,1.343,3,3,3h43v-3C44.686,61,42,58.314,42,55z M13,23h36c1.657,0,3,1.343,3,3s-1.343,3-3,3H13
				c-1.657,0-3-1.343-3-3S11.343,23,13,23z M31.5,54h-19c-1.381,0-2.5-1.119-2.5-2.5s1.119-2.5,2.5-2.5h19
				c1.381,0,2.5,1.119,2.5,2.5S32.881,54,31.5,54z M39,42H13c-1.657,0-3-1.343-3-3s1.343-3,3-3h26c1.657,0,3,1.343,3,3
				S40.657,42,39,42z M16,12c1.657,0,3-1.343,3-3V3c0-1.657-1.343-3-3-3s-3,1.343-3,3v6C13,10.657,14.343,12,16,12z"/>
		</g>
	</g>
</g>
</svg>
