<?xml version="1.0" encoding="utf-8"?>
<!-- Generator: Adobe Illustrator 16.0.0, SVG Export Plug-In . SVG Version: 6.00 Build 0)  -->
<!DOCTYPE svg PUBLIC "-//W3C//DTD SVG 1.1//EN" "http://www.w3.org/Graphics/SVG/1.1/DTD/svg11.dtd">
<svg version="1.1" id="Layer_1" xmlns="http://www.w3.org/2000/svg" xmlns:xlink="http://www.w3.org/1999/xlink" x="0px" y="0px"
	 width="64px" height="64px" viewBox="0 0 64 64" enable-background="new 0 0 64 64" xml:space="preserve">
<g id="NOTEPAD__x2F__DELETE_1_" enable-background="new    ">
	<g id="NOTEPAD__x2F__DELETE">
		<g>
			<path d="M46,12c1.657,0,3-1.343,3-3V3c0-1.657-1.343-3-3-3s-3,1.343-3,3v6C43,10.657,44.343,12,46,12z M31,12
				c1.657,0,3-1.343,3-3V3c0-1.657-1.343-3-3-3s-3,1.343-3,3v6C28,10.657,29.343,12,31,12z M58.243,55l3.879-3.879
				C62.664,50.579,63,49.828,63,49c0-1.657-1.343-3-3-3c-0.828,0-1.578,0.336-2.121,0.879L54,50.757l-3.879-3.879
				C49.578,46.336,48.828,46,48,46c-1.657,0-3,1.343-3,3c0,0.828,0.336,1.578,0.879,2.121L49.757,55l-3.879,3.879
				C45.336,59.422,45,60.172,45,61c0,1.657,1.343,3,3,3c0.828,0,1.578-0.336,2.121-0.879L54,59.243l3.879,3.879
				C58.422,63.664,59.172,64,60,64c1.657,0,3-1.343,3-3c0-0.829-0.336-1.578-0.879-2.121L58.243,55z M16,12c1.657,0,3-1.343,3-3V3
				c0-1.657-1.343-3-3-3s-3,1.343-3,3v6C13,10.657,14.343,12,16,12z M43.757,56.758L45.516,55l-1.758-1.757
				C42.672,52.157,42,50.657,42,49c0-3.314,2.686-6,6-6c1.657,0,3.157,0.672,4.243,1.757L54,46.516l1.757-1.759l0.015,0.017
				C56.854,43.682,58.341,43,60,43V9c0-1.657-1.343-3-3-3h-5v3c0,3.314-2.686,6-6,6s-6-2.686-6-6V6h-3v3c0,3.314-2.686,6-6,6
				c-3.314,0-6-2.686-6-6V6h-3v3c0,3.314-2.686,6-6,6s-6-2.686-6-6V6H5C3.343,6,2,7.343,2,9v52c0,1.657,1.343,3,3,3h37.832
				C42.316,63.114,42,62.1,42,61c0-1.659,0.682-3.146,1.773-4.227L43.757,56.758z M31.5,54h-19c-1.381,0-2.5-1.119-2.5-2.5
				s1.119-2.5,2.5-2.5h19c1.381,0,2.5,1.119,2.5,2.5S32.881,54,31.5,54z M37,42H13c-1.657,0-3-1.343-3-3s1.343-3,3-3h24
				c1.657,0,3,1.343,3,3S38.657,42,37,42z M13,29c-1.657,0-3-1.343-3-3s1.343-3,3-3h36c1.657,0,3,1.343,3,3s-1.343,3-3,3H13z"/>
		</g>
	</g>
</g>
</svg>
