<?xml version="1.0" encoding="utf-8"?>
<!-- Generator: Adobe Illustrator 16.0.0, SVG Export Plug-In . SVG Version: 6.00 Build 0)  -->
<!DOCTYPE svg PUBLIC "-//W3C//DTD SVG 1.1//EN" "http://www.w3.org/Graphics/SVG/1.1/DTD/svg11.dtd">
<svg version="1.1" id="Layer_1" xmlns="http://www.w3.org/2000/svg" xmlns:xlink="http://www.w3.org/1999/xlink" x="0px" y="0px"
	 width="64px" height="64px" viewBox="0 0 64 64" enable-background="new 0 0 64 64" xml:space="preserve">
<g id="PEN_2_1_" enable-background="new    ">
	<g id="PEN_2">
		<g>
			<path d="M46.721,19.639l-8.445-8.429L12.938,36.498l8.446,8.429L46.721,19.639z M55.167,11.21c1.166-1.164,1.166-3.051,0-4.214
				l-4.224-4.215c-1.166-1.164-3.057-1.164-4.223,0l-6.334,6.322l8.446,8.429L55.167,11.21z M61,56H3c-1.657,0-3,1.343-3,3
				s1.343,3,3,3h58c1.657,0,3-1.343,3-3S62.657,56,61,56z M10.809,38.604L7.998,49.84l11.258-2.806L10.809,38.604z"/>
		</g>
	</g>
</g>
</svg>
