<?xml version="1.0" encoding="utf-8"?>
<!-- Generator: Adobe Illustrator 16.0.0, SVG Export Plug-In . SVG Version: 6.00 Build 0)  -->
<!DOCTYPE svg PUBLIC "-//W3C//DTD SVG 1.1//EN" "http://www.w3.org/Graphics/SVG/1.1/DTD/svg11.dtd">
<svg version="1.1" id="Layer_1" xmlns="http://www.w3.org/2000/svg" xmlns:xlink="http://www.w3.org/1999/xlink" x="0px" y="0px"
	 width="64px" height="64px" viewBox="0 0 64 64" enable-background="new 0 0 64 64" xml:space="preserve">
<g id="PICTURE_1_" enable-background="new    ">
	<g id="PICTURE">
		<g>
			<path d="M22,28c3.314,0,6-2.686,6-6s-2.686-6-6-6s-6,2.686-6,6S18.686,28,22,28z M62,14c0-1.304-0.837-2.403-2-2.816V7.816
				C61.163,7.403,62,6.305,62,5c0-1.657-1.343-3-3-3c-1.305,0-2.402,0.838-2.816,2h-3.367C52.402,2.838,51.305,2,50,2
				s-2.402,0.838-2.816,2h-3.367C43.402,2.838,42.305,2,41,2s-2.402,0.838-2.816,2h-3.367C34.402,2.838,33.305,2,32,2
				c-1.304,0-2.403,0.838-2.816,2h-3.367C25.403,2.838,24.304,2,23,2s-2.403,0.838-2.816,2h-3.367C16.403,2.838,15.304,2,14,2
				s-2.403,0.838-2.816,2H7.816C7.403,2.838,6.304,2,5,2C3.343,2,2,3.343,2,5c0,1.304,0.837,2.403,2,2.816v3.367
				C2.838,11.597,2,12.696,2,14s0.837,2.403,2,2.816v3.367C2.838,20.597,2,21.696,2,23s0.837,2.403,2,2.816v3.367
				C2.838,29.597,2,30.696,2,32c0,1.305,0.837,2.402,2,2.816v3.367C2.838,38.598,2,39.695,2,41s0.837,2.402,2,2.816v3.367
				C2.838,47.598,2,48.695,2,50s0.837,2.402,2,2.816v3.367C2.838,56.598,2,57.695,2,59c0,1.657,1.343,3,3,3
				c1.304,0,2.403-0.837,2.816-2h3.367c0.413,1.162,1.512,2,2.816,2s2.403-0.837,2.816-2h3.367c0.413,1.162,1.512,2,2.816,2
				c1.304,0,2.403-0.837,2.816-2h3.367c0.413,1.162,1.512,2,2.816,2c1.304,0,2.403-0.837,2.815-2h3.367c0.413,1.162,1.512,2,2.816,2
				c1.304,0,2.402-0.837,2.816-2h3.367c0.412,1.162,1.512,2,2.815,2s2.403-0.837,2.815-2h3.367c0.413,1.162,1.512,2,2.816,2
				c1.656,0,3-1.343,3-3c0-1.305-0.837-2.402-2-2.816v-3.367c1.163-0.412,2-1.512,2-2.815s-0.837-2.403-2-2.815v-3.367
				c1.163-0.414,2-1.512,2-2.816c0-1.304-0.837-2.402-2-2.816v-3.367c1.163-0.412,2-1.512,2-2.815s-0.837-2.403-2-2.816V25.82
				c1.163-0.413,2-1.512,2-2.816c0-1.304-0.837-2.403-2-2.816v-3.367C61.163,16.403,62,15.304,62,14z M54,54H10V10h44V54z M51,39
				l-9-14L28,42l-3-3L13,51h38V39z"/>
		</g>
	</g>
</g>
</svg>
