<?xml version="1.0" encoding="utf-8"?>
<!-- Generator: Adobe Illustrator 17.0.0, SVG Export Plug-In . SVG Version: 6.00 Build 0)  -->
<!DOCTYPE svg PUBLIC "-//W3C//DTD SVG 1.1//EN" "http://www.w3.org/Graphics/SVG/1.1/DTD/svg11.dtd">
<svg version="1.1" id="PILL_1_" xmlns="http://www.w3.org/2000/svg" xmlns:xlink="http://www.w3.org/1999/xlink" x="0px" y="0px"
	 width="64px" height="64px" viewBox="0 0 64 64" enable-background="new 0 0 64 64" xml:space="preserve">
<g id="PILL">
	<g>
		<path fill-rule="evenodd" clip-rule="evenodd" d="M54.981,9.726l-0.707-0.707c-6.834-6.834-17.914-6.834-24.749,0L9.019,29.525
			c-6.834,6.834-6.834,17.914,0,24.748l0.707,0.707c6.834,6.834,17.914,6.834,24.749,0l20.506-20.506
			C61.815,27.641,61.815,16.56,54.981,9.726z M30.232,50.738c-4.491,4.491-11.772,4.491-16.263,0l-0.707-0.707
			c-4.491-4.491-4.491-11.772,0-16.263l10.253-10.253l16.971,16.97L30.232,50.738z"/>
	</g>
</g>
</svg>
