<?xml version="1.0" encoding="utf-8"?>
<!-- Generator: Adobe Illustrator 16.0.0, SVG Export Plug-In . SVG Version: 6.00 Build 0)  -->
<!DOCTYPE svg PUBLIC "-//W3C//DTD SVG 1.1//EN" "http://www.w3.org/Graphics/SVG/1.1/DTD/svg11.dtd">
<svg version="1.1" id="Layer_1" xmlns="http://www.w3.org/2000/svg" xmlns:xlink="http://www.w3.org/1999/xlink" x="0px" y="0px"
	 width="64px" height="64px" viewBox="0 0 64 64" enable-background="new 0 0 64 64" xml:space="preserve">
<g id="PIN__x2F__ZOOM_IN_1_" enable-background="new    ">
	<g id="PIN__x2F__ZOOM_IN">
		<g>
			<path d="M40,21h-5v-5c0-1.657-1.343-3-3-3s-3,1.343-3,3v5h-5c-1.657,0-3,1.343-3,3s1.343,3,3,3h5v5c0,1.657,1.343,3,3,3
				s3-1.343,3-3v-5h5c1.657,0,3-1.343,3-3S41.657,21,40,21z M32,0C18.746,0,8,10.747,8,24c0,13.254,24,40,24,40s24-26.746,24-40
				C56,10.747,45.254,0,32,0z M32,40c-8.836,0-16-7.164-16-16S23.164,8,32,8s16,7.164,16,16S40.836,40,32,40z"/>
		</g>
	</g>
</g>
</svg>
