<?xml version="1.0" encoding="utf-8"?>
<!-- Generator: Adobe Illustrator 16.0.0, SVG Export Plug-In . SVG Version: 6.00 Build 0)  -->
<!DOCTYPE svg PUBLIC "-//W3C//DTD SVG 1.1//EN" "http://www.w3.org/Graphics/SVG/1.1/DTD/svg11.dtd">
<svg version="1.1" id="Layer_1" xmlns="http://www.w3.org/2000/svg" xmlns:xlink="http://www.w3.org/1999/xlink" x="0px" y="0px"
	 width="64px" height="64px" viewBox="0 0 64 64" enable-background="new 0 0 64 64" xml:space="preserve">
<g id="pinterest_3_" enable-background="new    ">
	<g id="pinterest">
		<g>
			<path d="M32,0C14.328,0,0,14.328,0,32c0,13.172,7.961,24.484,19.33,29.396c-0.082-2.23-0.002-4.892,0.562-7.303
				c0.621-2.604,4.137-17.5,4.137-17.5s-1.027-2.053-1.027-5.084c0-4.754,2.762-8.312,6.193-8.312c2.922,0,4.334,2.199,4.334,4.826
				c0,2.936-1.873,7.326-2.84,11.393c-0.801,3.406,1.715,6.188,5.075,6.188c6.079,0,10.176-7.815,10.176-17.079
				c0-7.035-4.734-12.307-13.359-12.307c-9.738,0-15.815,7.265-15.815,15.383c0,2.797,0.828,4.773,2.123,6.299
				c0.594,0.701,0.674,0.983,0.457,1.793c-0.156,0.588-0.502,2.01-0.65,2.578c-0.213,0.812-0.875,1.098-1.609,0.799
				c-4.484-1.828-6.578-6.742-6.578-12.266c0-9.125,7.695-20.064,22.953-20.064c12.266,0,20.334,8.875,20.334,18.395
				c0,12.605-7.006,22.013-17.328,22.013c-3.469,0-6.732-1.875-7.844-4c0,0-1.871,7.393-2.262,8.826
				c-0.674,2.439-1.973,4.877-3.176,6.797C25.982,63.57,28.94,64,32,64c17.672,0,32-14.328,32-32S49.672,0,32,0z"/>
		</g>
	</g>
</g>
</svg>
