<?xml version="1.0" encoding="utf-8"?>
<!-- Generator: Adobe Illustrator 16.0.0, SVG Export Plug-In . SVG Version: 6.00 Build 0)  -->
<!DOCTYPE svg PUBLIC "-//W3C//DTD SVG 1.1//EN" "http://www.w3.org/Graphics/SVG/1.1/DTD/svg11.dtd">
<svg version="1.1" id="Layer_1" xmlns="http://www.w3.org/2000/svg" xmlns:xlink="http://www.w3.org/1999/xlink" x="0px" y="0px"
	 width="64px" height="64px" viewBox="0 0 64 64" enable-background="new 0 0 64 64" xml:space="preserve">
<g id="PLAY_1_" enable-background="new    ">
	<g id="PLAY">
		<g>
			<path d="M46,32c0-1.099-0.592-2.06-1.475-2.583l0,0L22.561,16.438c-0.008-0.005-0.016-0.009-0.024-0.014l-0.011-0.007l0,0
				C22.079,16.153,21.557,16,21,16c-1.657,0-3,1.343-3,3v26c0,1.657,1.343,3,3,3c0.557,0,1.079-0.152,1.526-0.417l0,0l0.011-0.007
				c0.008-0.006,0.016-0.01,0.024-0.014l21.964-12.979l0,0C45.408,34.061,46,33.1,46,32z"/>
		</g>
	</g>
</g>
</svg>
