<?xml version="1.0" encoding="utf-8"?>
<!-- Generator: Adobe Illustrator 16.0.0, SVG Export Plug-In . SVG Version: 6.00 Build 0)  -->
<!DOCTYPE svg PUBLIC "-//W3C//DTD SVG 1.1//EN" "http://www.w3.org/Graphics/SVG/1.1/DTD/svg11.dtd">
<svg version="1.1" id="Layer_1" xmlns="http://www.w3.org/2000/svg" xmlns:xlink="http://www.w3.org/1999/xlink" x="0px" y="0px"
	 width="64px" height="64px" viewBox="0 0 64 64" enable-background="new 0 0 64 64" xml:space="preserve">
<g id="POLAROIDS_1_" enable-background="new    ">
	<g id="POLAROIDS">
		<g>
			<path d="M45,12H3c-1.657,0-3,1.343-3,3v46c0,1.657,1.343,3,3,3h42c1.657,0,3-1.343,3-3V15C48,13.343,46.657,12,45,12z M42,49H6
				V18h36V49z M61,0H19c-1.657,0-3,1.343-3,3v6h6V6h36v31h-7v15h10c1.657,0,3-1.343,3-3V3C64,1.343,62.657,0,61,0z"/>
		</g>
	</g>
</g>
</svg>
