<?xml version="1.0" encoding="utf-8"?>
<!-- Generator: Adobe Illustrator 16.0.0, SVG Export Plug-In . SVG Version: 6.00 Build 0)  -->
<!DOCTYPE svg PUBLIC "-//W3C//DTD SVG 1.1//EN" "http://www.w3.org/Graphics/SVG/1.1/DTD/svg11.dtd">
<svg version="1.1" id="Layer_1" xmlns="http://www.w3.org/2000/svg" xmlns:xlink="http://www.w3.org/1999/xlink" x="0px" y="0px"
	 width="64px" height="64px" viewBox="0 0 64 64" enable-background="new 0 0 64 64" xml:space="preserve">
<g id="PRINTER_1_" enable-background="new    ">
	<g id="PRINTER">
		<g>
			<path d="M61,15H3c-1.657,0-3,1.343-3,3v28c0,1.657,1.343,3,3,3h10V34h38v15h10c1.657,0,3-1.343,3-3V18C64,16.343,62.657,15,61,15
				z M9,27c-1.657,0-3-1.343-3-3s1.343-3,3-3s3,1.343,3,3S10.657,27,9,27z M48,2.969h-0.003c0-0.001,0-0.002,0-0.003
				C47.99,2.351,47.8,1.782,47.477,1.309c-0.004-0.007-0.012-0.013-0.017-0.02c-0.104-0.15-0.22-0.291-0.351-0.419l0,0
				c-0.002-0.002-0.004-0.004-0.008-0.006c-0.166-0.165-0.358-0.302-0.561-0.425c-0.002-0.001-0.005-0.002-0.007-0.004
				c0,0-0.001,0-0.001-0.001c-0.285-0.171-0.594-0.305-0.93-0.373l0,0c-0.139-0.028-0.283-0.034-0.427-0.043
				C45.117,0.014,45.061,0,45,0H19c-1.243,0-2.309,0.756-2.764,1.832C16.084,2.191,16,2.586,16,3v9h32V2.969z M16,61
				c0,1.657,1.343,3,3,3h26c1.657,0,3-1.343,3-3V37H16V61z M22,43h20v3H22V43z M22,49h20v3H22V49z M22,55h20v3H22V55z"/>
		</g>
	</g>
</g>
</svg>
