<?xml version="1.0" encoding="utf-8"?>
<!-- Generator: Adobe Illustrator 16.0.0, SVG Export Plug-In . SVG Version: 6.00 Build 0)  -->
<!DOCTYPE svg PUBLIC "-//W3C//DTD SVG 1.1//EN" "http://www.w3.org/Graphics/SVG/1.1/DTD/svg11.dtd">
<svg version="1.1" id="Layer_1" xmlns="http://www.w3.org/2000/svg" xmlns:xlink="http://www.w3.org/1999/xlink" x="0px" y="0px"
	 width="64px" height="64px" viewBox="0 0 64 64" enable-background="new 0 0 64 64" xml:space="preserve">
<g id="PROGRESS_1_" enable-background="new    ">
	<g id="PROGRESS">
		<g>
			<path d="M26,29c-1.657,0-3,1.343-3,3v16c0,1.657,1.343,3,3,3s3-1.343,3-3V32C29,30.343,27.657,29,26,29z M14,37
				c-1.657,0-3,1.343-3,3v8c0,1.657,1.343,3,3,3s3-1.343,3-3v-8C17,38.343,15.657,37,14,37z M50,13c-1.657,0-3,1.343-3,3v32
				c0,1.657,1.343,3,3,3s3-1.343,3-3V16C53,14.343,51.657,13,50,13z M38,21c-1.657,0-3,1.343-3,3v24c0,1.657,1.343,3,3,3
				s3-1.343,3-3V24C41,22.343,39.657,21,38,21z"/>
		</g>
	</g>
</g>
</svg>
