<?xml version="1.0" encoding="utf-8"?>
<!-- Generator: Adobe Illustrator 16.0.0, SVG Export Plug-In . SVG Version: 6.00 Build 0)  -->
<!DOCTYPE svg PUBLIC "-//W3C//DTD SVG 1.1//EN" "http://www.w3.org/Graphics/SVG/1.1/DTD/svg11.dtd">
<svg version="1.1" id="Layer_1" xmlns="http://www.w3.org/2000/svg" xmlns:xlink="http://www.w3.org/1999/xlink" x="0px" y="0px"
	 width="64px" height="64px" viewBox="0 0 64 64" enable-background="new 0 0 64 64" xml:space="preserve">
<g id="REPEAT_1_1_" enable-background="new    ">
	<g id="REPEAT_1">
		<g>
			<path d="M45,20c0,1.657,1.343,3,3,3h13c1.657,0,3-1.343,3-3V8c0-1.657-1.343-3-3-3s-3,1.343-3,3v5.39C52.199,5.288,42.725,0,32,0
				C14.327,0,0,14.327,0,32s14.327,32,32,32s32-14.327,32-32c0-1.657-1.343-3-3-3s-3,1.343-3,3c0,14.359-11.641,26-26,26
				C17.641,58,6,46.359,6,32C6,17.641,17.641,6,32,6c8.77,0,16.512,4.348,21.218,11H48C46.343,17,45,18.343,45,20z"/>
		</g>
	</g>
</g>
</svg>
