<?xml version="1.0" encoding="utf-8"?>
<!-- Generator: Adobe Illustrator 17.0.0, SVG Export Plug-In . SVG Version: 6.00 Build 0)  -->
<!DOCTYPE svg PUBLIC "-//W3C//DTD SVG 1.1//EN" "http://www.w3.org/Graphics/SVG/1.1/DTD/svg11.dtd">
<svg version="1.1" id="REPEAT_1_" xmlns="http://www.w3.org/2000/svg" xmlns:xlink="http://www.w3.org/1999/xlink" x="0px" y="0px"
	 width="64px" height="64px" viewBox="0 0 64 64" enable-background="new 0 0 64 64" xml:space="preserve">
<g id="REPEAT">
	<g>
		<path fill-rule="evenodd" clip-rule="evenodd" d="M61,22c-1.657,0-3,1.343-3,3v7c0,6.627-5.373,12-12,12H26v0.003h-2.987v-0.005
			H21.24l1.878-1.879c0.543-0.543,0.878-1.293,0.878-2.122c0-1.657-1.343-3-2.999-3c-0.828,0-1.578,0.336-2.121,0.879l-6.998,7.001
			C11.336,45.42,11,46.17,11,46.999c0,0.829,0.336,1.578,0.878,2.122l6.998,7.001C19.42,56.664,20.169,57,20.998,57
			c1.657,0,2.999-1.343,2.999-3c0-0.829-0.336-1.578-0.878-2.122l-1.873-1.874H27V50h19c9.941,0,18-8.059,18-18v-7
			C64,23.343,62.657,22,61,22z M38,20v-0.004h2.987v0.005h1.773l-1.878,1.879c-0.543,0.543-0.879,1.293-0.879,2.122
			c0,1.657,1.343,3,2.999,3c0.828,0,1.578-0.336,2.121-0.879l6.998-7.001C52.664,18.58,53,17.83,53,17.001
			c0-0.829-0.336-1.579-0.878-2.122l-6.998-7.001C44.581,7.336,43.831,7,43.003,7c-1.657,0-2.999,1.344-2.999,3.001
			c0,0.828,0.336,1.579,0.879,2.122l1.873,1.874H37V14H18C8.059,14,0,22.059,0,32v7c0,1.657,1.343,3,3,3c1.657,0,3-1.343,3-3v-7
			c0-6.627,5.373-12,12-12H38z"/>
	</g>
</g>
</svg>
