<?xml version="1.0" encoding="utf-8"?>
<!-- Generator: Adobe Illustrator 16.0.0, SVG Export Plug-In . SVG Version: 6.00 Build 0)  -->
<!DOCTYPE svg PUBLIC "-//W3C//DTD SVG 1.1//EN" "http://www.w3.org/Graphics/SVG/1.1/DTD/svg11.dtd">
<svg version="1.1" id="Layer_1" xmlns="http://www.w3.org/2000/svg" xmlns:xlink="http://www.w3.org/1999/xlink" x="0px" y="0px"
	 width="64px" height="64px" viewBox="0 0 64 64" enable-background="new 0 0 64 64" xml:space="preserve">
<g id="RESIZE_2_4_" enable-background="new    ">
	<g id="RESIZE_2_1_">
		<g>
			<path d="M61,6c0-1.657-1.343-3-3-3c-0.828,0-1.578,0.336-2.121,0.879L41,18.757V14c0-1.657-1.343-3-3-3s-3,1.343-3,3v12
				c0,1.657,1.343,3,3,3h12c1.657,0,3-1.343,3-3s-1.343-3-3-3h-4.757L60.121,8.121C60.664,7.579,61,6.828,61,6z M26,35H14
				c-1.657,0-3,1.343-3,3s1.343,3,3,3h4.757L3.879,55.879C3.336,56.422,3,57.172,3,58c0,1.657,1.343,3,3,3
				c0.828,0,1.578-0.336,2.121-0.879L23,45.243V50c0,1.657,1.343,3,3,3s3-1.343,3-3V38C29,36.343,27.657,35,26,35z"/>
		</g>
	</g>
</g>
</svg>
