<?xml version="1.0" encoding="utf-8"?>
<!-- Generator: Adobe Illustrator 16.0.0, SVG Export Plug-In . SVG Version: 6.00 Build 0)  -->
<!DOCTYPE svg PUBLIC "-//W3C//DTD SVG 1.1//EN" "http://www.w3.org/Graphics/SVG/1.1/DTD/svg11.dtd">
<svg version="1.1" id="Layer_1" xmlns="http://www.w3.org/2000/svg" xmlns:xlink="http://www.w3.org/1999/xlink" x="0px" y="0px"
	 width="64px" height="64px" viewBox="0 0 64 64" enable-background="new 0 0 64 64" xml:space="preserve">
<g id="RESIZE_1_3_" enable-background="new    ">
	<g id="RESIZE_1_2_">
		<g>
			<path d="M28.157,23.914L13.243,9H18c1.657,0,3-1.343,3-3s-1.343-3-3-3H6C4.343,3,3,4.343,3,6v12c0,1.657,1.343,3,3,3s3-1.343,3-3
				v-4.757l14.914,14.914l0.003-0.003C24.457,28.676,25.19,29,26,29c1.657,0,3-1.343,3-3c0-0.81-0.324-1.543-0.847-2.083
				L28.157,23.914z M26,35c-0.81,0-1.543,0.325-2.082,0.848l-0.003-0.004L9,50.757V46c0-1.657-1.343-3-3-3s-3,1.343-3,3v12
				c0,1.657,1.343,3,3,3h12c1.657,0,3-1.343,3-3s-1.343-3-3-3h-4.757l14.914-14.914l-0.003-0.003C28.676,39.543,29,38.811,29,38
				C29,36.343,27.657,35,26,35z M58,43c-1.657,0-3,1.343-3,3v4.757L40.086,35.843l-0.003,0.003C39.543,35.325,38.811,35,38,35
				c-1.657,0-3,1.343-3,3c0,0.811,0.324,1.543,0.848,2.083l-0.004,0.003L50.757,55H46c-1.657,0-3,1.343-3,3s1.343,3,3,3h12
				c1.657,0,3-1.343,3-3V46C61,44.343,59.657,43,58,43z M58,3H46c-1.657,0-3,1.343-3,3s1.343,3,3,3h4.757L35.843,23.914l0.003,0.003
				C35.325,24.457,35,25.19,35,26c0,1.657,1.343,3,3,3c0.811,0,1.543-0.325,2.083-0.847l0.003,0.003L55,13.243V18
				c0,1.657,1.343,3,3,3s3-1.343,3-3V6C61,4.343,59.657,3,58,3z"/>
		</g>
	</g>
</g>
</svg>
