<?xml version="1.0" encoding="utf-8"?>
<!-- Generator: Adobe Illustrator 16.0.0, SVG Export Plug-In . SVG Version: 6.00 Build 0)  -->
<!DOCTYPE svg PUBLIC "-//W3C//DTD SVG 1.1//EN" "http://www.w3.org/Graphics/SVG/1.1/DTD/svg11.dtd">
<svg version="1.1" id="Layer_1" xmlns="http://www.w3.org/2000/svg" xmlns:xlink="http://www.w3.org/1999/xlink" x="0px" y="0px"
	 width="64px" height="64px" viewBox="0 0 64 64" enable-background="new 0 0 64 64" xml:space="preserve">
<g id="RESIZE_2_3_" enable-background="new    ">
	<g id="RESIZE_2_2_">
		<g>
			<path d="M26,35H14c-1.657,0-3,1.343-3,3s1.343,3,3,3h4.757L3.843,55.914l0.003,0.003C3.325,56.457,3,57.189,3,58
				c0,1.657,1.343,3,3,3c0.81,0,1.543-0.325,2.082-0.848l0.003,0.004L23,45.243V50c0,1.657,1.343,3,3,3s3-1.343,3-3V38
				C29,36.343,27.657,35,26,35z M38,29h12c1.657,0,3-1.343,3-3s-1.343-3-3-3h-4.757L60.157,8.086l-0.003-0.003
				C60.676,7.543,61,6.81,61,6c0-1.657-1.343-3-3-3c-0.811,0-1.543,0.325-2.083,0.847l-0.003-0.003L41,18.758V14
				c0-1.657-1.343-3-3-3s-3,1.343-3,3v12C35,27.657,36.343,29,38,29z M60.157,55.914L45.243,41H50c1.657,0,3-1.343,3-3s-1.343-3-3-3
				H38c-1.657,0-3,1.343-3,3v12c0,1.657,1.343,3,3,3s3-1.343,3-3v-4.757l14.914,14.914l0.003-0.003C56.457,60.676,57.189,61,58,61
				c1.657,0,3-1.343,3-3c0-0.811-0.325-1.543-0.848-2.083L60.157,55.914z M26,11c-1.657,0-3,1.343-3,3v4.757L8.086,3.843
				L8.083,3.847C7.543,3.325,6.81,3,6,3C4.343,3,3,4.343,3,6c0,0.81,0.325,1.543,0.847,2.082L3.843,8.086L18.757,23H14
				c-1.657,0-3,1.343-3,3s1.343,3,3,3h12c1.657,0,3-1.343,3-3V14C29,12.343,27.657,11,26,11z"/>
		</g>
	</g>
</g>
</svg>
