<?xml version="1.0" encoding="utf-8"?>
<!-- Generator: Adobe Illustrator 16.0.0, SVG Export Plug-In . SVG Version: 6.00 Build 0)  -->
<!DOCTYPE svg PUBLIC "-//W3C//DTD SVG 1.1//EN" "http://www.w3.org/Graphics/SVG/1.1/DTD/svg11.dtd">
<svg version="1.1" id="Layer_1" xmlns="http://www.w3.org/2000/svg" xmlns:xlink="http://www.w3.org/1999/xlink" x="0px" y="0px"
	 width="64px" height="64px" viewBox="0 0 64 64" enable-background="new 0 0 64 64" xml:space="preserve">
<g id="RESIZE_1_4_" enable-background="new    ">
	<g id="RESIZE_1_1_">
		<g>
			<path d="M26,35c-0.828,0-1.579,0.336-2.121,0.879L9,50.758V46c0-1.657-1.343-3-3-3s-3,1.343-3,3v12c0,1.657,1.343,3,3,3h12
				c1.657,0,3-1.343,3-3s-1.343-3-3-3h-4.757l14.879-14.879C28.664,39.579,29,38.828,29,38C29,36.343,27.657,35,26,35z M58,3H46
				c-1.657,0-3,1.343-3,3s1.343,3,3,3h4.757L35.879,23.879C35.336,24.422,35,25.172,35,26c0,1.657,1.343,3,3,3
				c0.828,0,1.578-0.336,2.121-0.879L55,13.243V18c0,1.657,1.343,3,3,3s3-1.343,3-3V6C61,4.343,59.657,3,58,3z"/>
		</g>
	</g>
</g>
</svg>
