<?xml version="1.0" encoding="utf-8"?>
<!-- Generator: Adobe Illustrator 16.0.0, SVG Export Plug-In . SVG Version: 6.00 Build 0)  -->
<!DOCTYPE svg PUBLIC "-//W3C//DTD SVG 1.1//EN" "http://www.w3.org/Graphics/SVG/1.1/DTD/svg11.dtd">
<svg version="1.1" id="Layer_1" xmlns="http://www.w3.org/2000/svg" xmlns:xlink="http://www.w3.org/1999/xlink" x="0px" y="0px"
	 width="64px" height="64px" viewBox="0 0 64 64" enable-background="new 0 0 64 64" xml:space="preserve">
<g id="RESIZE_2_5_" enable-background="new    ">
	<g id="RESIZE_2">
		<g>
			<path d="M18,43H6c-1.657,0-3,1.343-3,3s1.343,3,3,3h4.757l-9.879,9.879C0.336,59.422,0,60.172,0,61c0,1.657,1.343,3,3,3
				c0.828,0,1.578-0.336,2.121-0.879L15,53.243V58c0,1.657,1.343,3,3,3s3-1.343,3-3V46C21,44.343,19.657,43,18,43z M32,23
				c-4.971,0-9,4.029-9,9c0,4.971,4.029,9,9,9c4.971,0,9-4.029,9-9C41,27.029,36.971,23,32,23z M64,3c0-1.657-1.343-3-3-3
				c-0.828,0-1.578,0.336-2.121,0.879L49,10.757V6c0-1.657-1.343-3-3-3s-3,1.343-3,3v12c0,1.657,1.343,3,3,3h12c1.657,0,3-1.343,3-3
				s-1.343-3-3-3h-4.757l9.879-9.879C63.664,4.578,64,3.829,64,3z"/>
		</g>
	</g>
</g>
</svg>
