<?xml version="1.0" encoding="utf-8"?>
<!-- Generator: Adobe Illustrator 16.0.0, SVG Export Plug-In . SVG Version: 6.00 Build 0)  -->
<!DOCTYPE svg PUBLIC "-//W3C//DTD SVG 1.1//EN" "http://www.w3.org/Graphics/SVG/1.1/DTD/svg11.dtd">
<svg version="1.1" id="Layer_1" xmlns="http://www.w3.org/2000/svg" xmlns:xlink="http://www.w3.org/1999/xlink" x="0px" y="0px"
	 width="64px" height="64px" viewBox="0 0 64 64" enable-background="new 0 0 64 64" xml:space="preserve">
<g id="REWIND_1_" enable-background="new    ">
	<g id="REWIND">
		<g>
			<path d="M48,19c-0.584,0-1.129,0.168-1.59,0.456l0,0L35,26.587V22c0-1.657-1.343-3-3-3c-0.584,0-1.129,0.168-1.59,0.456l0,0
				l-15.962,9.976c-0.005,0.003-0.011,0.007-0.016,0.01l-0.023,0.014l0,0C13.564,29.987,13,30.927,13,32s0.564,2.014,1.41,2.544l0,0
				l0.023,0.015c0.005,0.002,0.01,0.006,0.016,0.01l15.962,9.976l0,0C30.871,44.833,31.416,45,32,45c1.657,0,3-1.343,3-3v-4.587
				l11.41,7.131l0,0C46.871,44.833,47.416,45,48,45c1.657,0,3-1.343,3-3V22C51,20.343,49.657,19,48,19z"/>
		</g>
	</g>
</g>
</svg>
