<?xml version="1.0" encoding="utf-8"?>
<!-- Generator: Adobe Illustrator 16.0.0, SVG Export Plug-In . SVG Version: 6.00 Build 0)  -->
<!DOCTYPE svg PUBLIC "-//W3C//DTD SVG 1.1//EN" "http://www.w3.org/Graphics/SVG/1.1/DTD/svg11.dtd">
<svg version="1.1" id="Layer_1" xmlns="http://www.w3.org/2000/svg" xmlns:xlink="http://www.w3.org/1999/xlink" x="0px" y="0px"
	 width="64px" height="64px" viewBox="0 0 64 64" enable-background="new 0 0 64 64" xml:space="preserve">
<g id="SCREEN_EXPAND_3_1_" enable-background="new    ">
	<g id="SCREEN_EXPAND_3">
		<g>
			<path d="M3,18c1.657,0,3-1.343,3-3V6h9l0,0c1.657,0,3-1.343,3-3s-1.343-3-3-3H3C1.343,0,0,1.343,0,3v12l0,0
				C0,16.657,1.343,18,3,18z M9,55h46V9H9V55z M15,15h34v34H15V15z M61,46c-1.657,0-3,1.343-3,3l0,0v9h-9c-1.657,0-3,1.343-3,3
				s1.343,3,3,3h12c1.657,0,3-1.343,3-3V49C64,47.343,62.657,46,61,46z M15,58H6v-9c0-1.657-1.343-3-3-3s-3,1.343-3,3l0,0v12
				c0,1.657,1.343,3,3,3h12c1.657,0,3-1.343,3-3S16.657,58,15,58z M61,0H49l0,0c-1.657,0-3,1.343-3,3s1.343,3,3,3l0,0h9v9l0,0
				c0,1.657,1.343,3,3,3s3-1.343,3-3V3C64,1.343,62.657,0,61,0z"/>
		</g>
	</g>
</g>
</svg>
