<?xml version="1.0" encoding="utf-8"?>
<!-- Generator: Adobe Illustrator 16.0.0, SVG Export Plug-In . SVG Version: 6.00 Build 0)  -->
<!DOCTYPE svg PUBLIC "-//W3C//DTD SVG 1.1//EN" "http://www.w3.org/Graphics/SVG/1.1/DTD/svg11.dtd">
<svg version="1.1" id="Layer_1" xmlns="http://www.w3.org/2000/svg" xmlns:xlink="http://www.w3.org/1999/xlink" x="0px" y="0px"
	 width="64px" height="64px" viewBox="0 0 64 64" enable-background="new 0 0 64 64" xml:space="preserve">
<g id="MAGNIFYING_GLASS_1_" enable-background="new    ">
	<g id="MAGNIFYING_GLASS">
		<g>
			<path d="M62.243,53.758L44.658,36.173C46.768,32.602,48,28.449,48,24C48,10.745,37.255,0,24,0S0,10.745,0,24s10.745,24,24,24
				c4.449,0,8.602-1.232,12.173-3.342l17.584,17.584C54.843,63.329,56.343,64,58,64c3.314,0,6-2.686,6-6
				C64,56.343,63.328,54.843,62.243,53.758z M24,42c-9.941,0-18-8.059-18-18c0-9.941,8.059-18,18-18c9.941,0,18,8.059,18,18
				C42,33.941,33.941,42,24,42z"/>
		</g>
	</g>
</g>
</svg>
