<?xml version="1.0" encoding="utf-8"?>
<!-- Generator: Adobe Illustrator 16.0.0, SVG Export Plug-In . SVG Version: 6.00 Build 0)  -->
<!DOCTYPE svg PUBLIC "-//W3C//DTD SVG 1.1//EN" "http://www.w3.org/Graphics/SVG/1.1/DTD/svg11.dtd">
<svg version="1.1" id="Layer_1" xmlns="http://www.w3.org/2000/svg" xmlns:xlink="http://www.w3.org/1999/xlink" x="0px" y="0px"
	 width="64px" height="64px" viewBox="0 0 64 64" enable-background="new 0 0 64 64" xml:space="preserve">
<g id="SHARE_2_1_" enable-background="new    ">
	<g id="SHARE_2">
		<g>
			<path d="M23,16c0.885,0,1.673-0.39,2.222-1l0.008,0.007L29,10.818V29c0,1.657,1.343,3,3,3s3-1.343,3-3V10.818l3.77,4.189
				L38.777,15c0.55,0.61,1.338,1,2.223,1c1.657,0,3-1.343,3-3c0-0.772-0.299-1.468-0.777-2l0.008-0.007l-9-10L34.223,1
				C33.673,0.391,32.885,0,32,0s-1.673,0.39-2.222,1L29.77,0.993l-9,10L20.778,11C20.3,11.532,20,12.228,20,13
				C20,14.657,21.343,16,23,16z M51,20H38v6h10v32H16V26h9v-6H13c-1.657,0-3,1.343-3,3v38c0,1.657,1.343,3,3,3h38
				c1.657,0,3-1.343,3-3V23C54,21.343,52.657,20,51,20z"/>
		</g>
	</g>
</g>
</svg>
