<?xml version="1.0" encoding="utf-8"?>
<!-- Generator: Adobe Illustrator 16.0.0, SVG Export Plug-In . SVG Version: 6.00 Build 0)  -->
<!DOCTYPE svg PUBLIC "-//W3C//DTD SVG 1.1//EN" "http://www.w3.org/Graphics/SVG/1.1/DTD/svg11.dtd">
<svg version="1.1" id="Layer_1" xmlns="http://www.w3.org/2000/svg" xmlns:xlink="http://www.w3.org/1999/xlink" x="0px" y="0px"
	 width="64px" height="64px" viewBox="0 0 64 64" enable-background="new 0 0 64 64" xml:space="preserve">
<g id="SHOP_1_" enable-background="new    ">
	<g id="SHOP">
		<g>
			<path d="M10,9h44c1.657,0,3-1.343,3-3s-1.343-3-3-3H10C8.343,3,7,4.343,7,6S8.343,9,10,9z M58.375,12H5.625L0,27
				c0,4.418,3.582,8,8,8s8-3.582,8-8c0,4.418,3.582,8,8,8s8-3.582,8-8c0,4.418,3.582,8,8,8s8-3.582,8-8c0,4.418,3.582,8,8,8
				s8-3.582,8-8L58.375,12z M55,37.952V37.95c-0.287-0.026-0.57-0.069-0.85-0.117c-0.061-0.01-0.123-0.015-0.183-0.026
				c-0.13-0.023-0.256-0.061-0.384-0.09C53.042,37.593,52.51,37.439,52,37.24V52H12V37.239c-0.51,0.2-1.042,0.354-1.586,0.478
				c-0.128,0.029-0.253,0.065-0.382,0.09c-0.06,0.012-0.122,0.017-0.183,0.027C9.569,37.88,9.287,37.924,9,37.95v0.002
				C8.671,37.982,8.338,38,8,38c-0.684,0-1.351-0.07-2-0.189V58c0,1.657,1.343,3,3,3h46c1.657,0,3-1.343,3-3V37.811
				C57.352,37.93,56.684,38,56,38C55.663,38,55.329,37.982,55,37.952z"/>
		</g>
	</g>
</g>
</svg>
