<?xml version="1.0" encoding="utf-8"?>
<!-- Generator: Adobe Illustrator 16.0.0, SVG Export Plug-In . SVG Version: 6.00 Build 0)  -->
<!DOCTYPE svg PUBLIC "-//W3C//DTD SVG 1.1//EN" "http://www.w3.org/Graphics/SVG/1.1/DTD/svg11.dtd">
<svg version="1.1" id="Layer_1" xmlns="http://www.w3.org/2000/svg" xmlns:xlink="http://www.w3.org/1999/xlink" x="0px" y="0px"
	 width="64px" height="64px" viewBox="0 0 64 64" enable-background="new 0 0 64 64" xml:space="preserve">
<g id="SHOPPING_BAG_1_" enable-background="new    ">
	<g id="SHOPPING_BAG">
		<g>
			<path d="M6,61c0,1.657,1.343,3,3,3h46c1.657,0,3-1.343,3-3v-3H6V61z M55,15h-8c0-8.284-6.716-15-15-15S17,6.716,17,15H9
				c-1.657,0-3,1.343-3,3v37h52V18C58,16.343,56.657,15,55,15z M23,15c0-4.971,4.029-9,9-9c4.971,0,9,4.03,9,9H23z"/>
		</g>
	</g>
</g>
</svg>
