<?xml version="1.0" encoding="utf-8"?>
<!-- Generator: Adobe Illustrator 16.0.0, SVG Export Plug-In . SVG Version: 6.00 Build 0)  -->
<!DOCTYPE svg PUBLIC "-//W3C//DTD SVG 1.1//EN" "http://www.w3.org/Graphics/SVG/1.1/DTD/svg11.dtd">
<svg version="1.1" id="Layer_1" xmlns="http://www.w3.org/2000/svg" xmlns:xlink="http://www.w3.org/1999/xlink" x="0px" y="0px"
	 width="64px" height="64px" viewBox="0 0 64 64" enable-background="new 0 0 64 64" xml:space="preserve">
<g id="SHOPPING_CART_1_" enable-background="new    ">
	<g id="SHOPPING_CART">
		<g>
			<path d="M52.2,39.993c1.132-0.074,2.092-0.776,2.536-1.763l0,0l9-20l-0.006-0.002C63.9,17.853,64,17.439,64,17
				c0-1.657-1.343-3-3-3H16.578l-1.747-4.991L14.82,9.013C14.411,7.844,13.309,7,12,7H3c-1.657,0-3,1.343-3,3s1.343,3,3,3h6.872
				l11.55,33H16c-3.314,0-6,2.686-6,6s2.686,6,6,6s6-2.686,6-6h28c0,3.314,2.686,6,6,6s6-2.686,6-6s-2.686-6-6-6H27.778
				l-1.497-4.279L52.2,39.993L52.2,39.993z M24.224,35.846L18.679,20h37.68l-6.356,14.127L24.224,35.846z"/>
		</g>
	</g>
</g>
</svg>
