<?xml version="1.0" encoding="utf-8"?>
<!-- Generator: Adobe Illustrator 16.0.0, SVG Export Plug-In . SVG Version: 6.00 Build 0)  -->
<!DOCTYPE svg PUBLIC "-//W3C//DTD SVG 1.1//EN" "http://www.w3.org/Graphics/SVG/1.1/DTD/svg11.dtd">
<svg version="1.1" id="Layer_1" xmlns="http://www.w3.org/2000/svg" xmlns:xlink="http://www.w3.org/1999/xlink" x="0px" y="0px"
	 width="64px" height="64px" viewBox="0 0 64 64" enable-background="new 0 0 64 64" xml:space="preserve">
<g id="SHUFFLE_1_" enable-background="new    ">
	<g id="SHUFFLE">
		<g>
			<path d="M3,19h8.757l10.879,10.879l4.243-4.243L15.121,13.879C14.578,13.336,13.828,13,13,13H3c-1.657,0-3,1.343-3,3
				S1.343,19,3,19z M52,19v0.005h1.773l-1.879,1.879c-0.543,0.543-0.879,1.293-0.879,2.121c0,1.657,1.342,3,3,3
				c0.827,0,1.577-0.336,2.12-0.879l7-7c0.544-0.543,0.88-1.293,0.88-2.121s-0.336-1.578-0.88-2.121l-7-7
				c-0.543-0.543-1.293-0.879-2.12-0.879c-1.658,0-3,1.343-3,3c0,0.828,0.336,1.578,0.879,2.121L53.768,13H45
				c-0.828,0-1.578,0.336-2.121,0.879L11.757,45H3c-1.657,0-3,1.343-3,3s1.343,3,3,3h10c0.828,0,1.578-0.336,2.121-0.879L46.243,19
				H52z M56.137,38.874c-0.543-0.543-1.293-0.879-2.121-0.879c-1.656,0-3,1.343-3,3c0,0.828,0.336,1.578,0.879,2.121l1.879,1.879H52
				V45h-5.757l-10.88-10.879l-4.242,4.242l11.757,11.758C43.422,50.664,44.172,51,45,51h8.768l-1.873,1.874
				c-0.543,0.543-0.879,1.293-0.879,2.121c0,1.657,1.344,3,3,3c0.828,0,1.578-0.336,2.121-0.879l7-7
				c0.543-0.543,0.879-1.293,0.879-2.121s-0.336-1.578-0.879-2.121L56.137,38.874z"/>
		</g>
	</g>
</g>
</svg>
