<?xml version="1.0" encoding="utf-8"?>
<!-- Generator: Adobe Illustrator 16.0.0, SVG Export Plug-In . SVG Version: 6.00 Build 0)  -->
<!DOCTYPE svg PUBLIC "-//W3C//DTD SVG 1.1//EN" "http://www.w3.org/Graphics/SVG/1.1/DTD/svg11.dtd">
<svg version="1.1" id="Layer_1" xmlns="http://www.w3.org/2000/svg" xmlns:xlink="http://www.w3.org/1999/xlink" x="0px" y="0px"
	 width="64px" height="64px" viewBox="0 0 64 64" enable-background="new 0 0 64 64" xml:space="preserve">
<g id="skype_1_" enable-background="new    ">
	<g id="skype">
		<g>
			<path d="M59.539,36.936C59.825,35.33,60,33.688,60,32C60,16.536,47.464,4,32,4c-1.687,0-3.33,0.175-4.934,0.461
				C24.191,1.704,20.298,0,16,0C7.164,0,0,7.164,0,16c0,4.298,1.703,8.191,4.461,11.066C4.175,28.67,4,30.313,4,32
				c0,15.464,12.536,28,28,28c1.688,0,3.33-0.175,4.936-0.461C39.809,62.297,43.702,64,48,64c8.837,0,16-7.163,16-16
				C64,43.703,62.297,39.809,59.539,36.936z M44.331,43.208c-1.104,1.506-2.74,2.7-4.856,3.548
				c-2.096,0.838-4.608,1.266-7.469,1.266c-3.433,0-6.312-0.582-8.558-1.73c-1.606-0.834-2.93-1.963-3.936-3.363
				c-1.014-1.408-1.529-2.807-1.529-4.158c0-0.842,0.335-1.572,0.995-2.17c0.655-0.595,1.494-0.895,2.495-0.895
				c0.822,0,1.531,0.236,2.106,0.703c0.55,0.451,1.022,1.115,1.401,1.973c0.425,0.936,0.885,1.725,1.372,2.342
				c0.471,0.601,1.144,1.102,2.006,1.494c0.866,0.395,2.035,0.596,3.472,0.596c1.975,0,3.596-0.406,4.814-1.207
				c1.19-0.781,1.768-1.722,1.768-2.871c0-0.908-0.303-1.621-0.922-2.184c-0.652-0.586-1.51-1.039-2.551-1.355
				c-1.086-0.323-2.562-0.678-4.385-1.047c-2.48-0.508-4.587-1.117-6.264-1.801c-1.715-0.703-3.096-1.677-4.106-2.894
				c-1.026-1.238-1.546-2.787-1.546-4.613c0-1.738,0.546-3.306,1.623-4.656c1.069-1.343,2.63-2.388,4.64-3.101
				c1.984-0.707,4.343-1.065,7.013-1.065c2.134,0,4.01,0.24,5.577,0.707c1.577,0.471,2.903,1.109,3.948,1.895
				c1.051,0.791,1.832,1.635,2.324,2.515c0.493,0.886,0.746,1.77,0.746,2.624c0,0.823-0.33,1.571-0.98,2.223
				c-0.655,0.655-1.481,0.987-2.454,0.987c-0.886,0-1.578-0.209-2.06-0.616c-0.447-0.383-0.912-0.977-1.426-1.83
				c-0.596-1.09-1.318-1.949-2.145-2.556c-0.805-0.59-2.147-0.886-3.991-0.886c-1.713,0-3.107,0.33-4.141,0.985
				c-0.998,0.628-1.483,1.349-1.483,2.205c0,0.525,0.157,0.963,0.479,1.339c0.339,0.403,0.819,0.749,1.424,1.043
				c0.627,0.304,1.276,0.546,1.923,0.717c0.664,0.179,1.779,0.441,3.308,0.781c1.935,0.401,3.712,0.848,5.284,1.333
				c1.593,0.491,2.967,1.093,4.09,1.798c1.145,0.717,2.051,1.637,2.694,2.737c0.646,1.105,0.972,2.47,0.972,4.054
				C46.003,39.968,45.439,41.698,44.331,43.208z"/>
		</g>
	</g>
</g>
</svg>
