<?xml version="1.0" encoding="utf-8"?>
<!-- Generator: Adobe Illustrator 16.0.0, SVG Export Plug-In . SVG Version: 6.00 Build 0)  -->
<!DOCTYPE svg PUBLIC "-//W3C//DTD SVG 1.1//EN" "http://www.w3.org/Graphics/SVG/1.1/DTD/svg11.dtd">
<svg version="1.1" id="Layer_1" xmlns="http://www.w3.org/2000/svg" xmlns:xlink="http://www.w3.org/1999/xlink" x="0px" y="0px"
	 width="64px" height="64px" viewBox="0 0 64 64" enable-background="new 0 0 64 64" xml:space="preserve">
<g id="SLIDESHOW_1_" enable-background="new    ">
	<g id="SLIDESHOW">
		<g>
			<path d="M12,18c-1.657,0-3,1.343-3,3v22c0,1.657,1.343,3,3,3s3-1.343,3-3V21C15,19.343,13.657,18,12,18z M3,12
				c-1.657,0-3,1.343-3,3v34c0,1.657,1.343,3,3,3s3-1.343,3-3V15C6,13.343,4.657,12,3,12z M52,18c-1.657,0-3,1.343-3,3v22
				c0,1.657,1.343,3,3,3s3-1.343,3-3V21C55,19.343,53.657,18,52,18z M61,12c-1.657,0-3,1.343-3,3v34c0,1.657,1.343,3,3,3
				s3-1.343,3-3V15C64,13.343,62.657,12,61,12z M43,18H21c-1.657,0-3,1.343-3,3v22c0,1.657,1.343,3,3,3h22c1.657,0,3-1.343,3-3V21
				C46,19.343,44.657,18,43,18z M40,40H24V24h16V40z"/>
		</g>
	</g>
</g>
</svg>
