<?xml version="1.0" encoding="utf-8"?>
<!-- Generator: Adobe Illustrator 16.0.0, SVG Export Plug-In . SVG Version: 6.00 Build 0)  -->
<!DOCTYPE svg PUBLIC "-//W3C//DTD SVG 1.1//EN" "http://www.w3.org/Graphics/SVG/1.1/DTD/svg11.dtd">
<svg version="1.1" id="Layer_1" xmlns="http://www.w3.org/2000/svg" xmlns:xlink="http://www.w3.org/1999/xlink" x="0px" y="0px"
	 width="64px" height="64px" viewBox="0 0 64 64" enable-background="new 0 0 64 64" xml:space="preserve">
<g id="SPEECH_BUBBLES_1_" enable-background="new    ">
	<g id="SPEECH_BUBBLES">
		<g>
			<path d="M46.568,34.581c0,0.005,0,0.01,0,0.015c-1.301,0.2-2.629,0.53-3.984,0.478c-12.036-0.75-19.873-8.212-20.379-17.122
				c-0.068-2.09,0.307-4.107,1.045-5.986C9.787,14.332-0.04,23.094-0.04,33.57c0,6.962,4.177,13.177,11.123,17.258
				c1.573,0.924,1.752,7.861-7.097,12.05c0,0,12.529,1.976,20.473-8.067c1.964,0.282,3.996,0.883,6.075,0.883
				c14.557,0,24.237-7.162,26.776-16.896c-2.531-0.059-6.918-0.737-10.39-4.308L46.568,34.581z M56.721,27.814
				c4.549-2.673,7.285-6.744,7.285-11.304c0-8.052-8.85-14.579-20.027-14.579c-11.179,0-17.993,6.527-17.993,14.579
				c0,8.052,6.813,14.492,17.993,14.492c1.361,0,2.692-0.394,3.979-0.579c5.204,6.578,13.411,5.284,13.411,5.284
				C55.573,32.964,55.689,28.419,56.721,27.814z"/>
		</g>
	</g>
</g>
</svg>
