<?xml version="1.0" encoding="utf-8"?>
<!-- Generator: Adobe Illustrator 16.0.0, SVG Export Plug-In . SVG Version: 6.00 Build 0)  -->
<!DOCTYPE svg PUBLIC "-//W3C//DTD SVG 1.1//EN" "http://www.w3.org/Graphics/SVG/1.1/DTD/svg11.dtd">
<svg version="1.1" id="Layer_1" xmlns="http://www.w3.org/2000/svg" xmlns:xlink="http://www.w3.org/1999/xlink" x="0px" y="0px"
	 width="64px" height="64px" viewBox="0 0 64 64" enable-background="new 0 0 64 64" xml:space="preserve">
<g id="spotify_1_" enable-background="new    ">
	<g id="spotify">
		<g>
			<path d="M26.671,55.675c-4.217,0-7.496,1.354-10.156,4.239c4.795,2.869,9.491,4.079,15.486,4.079
				c3.087,0,4.405-0.132,7.229-0.948C36.949,58.527,32.591,55.675,26.671,55.675z M32.001,0.008
				c-17.67,0-31.993,14.323-31.993,31.993c0,8.224,3.103,15.72,8.202,21.388c4.778-4.399,11.291-7.104,18.462-7.104
				c9.749,0,18.284,4.995,22.893,12.458c8.69-5.721,14.43-15.561,14.43-26.742C63.992,14.331,49.669,0.008,32.001,0.008z
				 M46.704,44.438c-1.112,0.906-2.201,0.064-2.201,0.064c-10.883-8.335-27.994-3.798-27.994-3.754l-0.256,0.072
				c-1.149,0-1.937-1.215-1.937-2.362c0,0-0.069-1.319,1.788-1.937c0.713-0.131,18.112-3.926,30.539,4.408
				c0.922,0.727,0.953,1.59,0.953,1.59C47.594,43.668,47.336,43.923,46.704,44.438z M49.37,35.657c-0.479,0-0.927-0.138-1.308-0.37
				h-0.002c-13.899-8.339-29.991-4.409-32.001-3.857l-1.028,0.202c-1.388,0-2.403-1.126-2.403-2.515c0-1.163,0.824-2.138,1.91-2.426
				c1.087-0.24,19.256-6.003,35.915,3.523h0.008c0.912,0.428,1.419,1.6,1.419,2.593C51.88,34.195,50.758,35.657,49.37,35.657z
				 M53.583,26.042c0,0-0.853-0.014-1.71-0.531c-15.635-9.777-37.295-4.184-37.513-4.126l-0.008-0.005
				c-0.244,0.064-0.511,0.101-0.774,0.101c-1.655,0-2.962-1.341-2.962-2.996c0-1.434,0.727-2.631,2.358-2.926
				c1.087-0.259,24.236-6.181,42.042,4.852c0.934,0.507,1.565,1.497,1.565,2.635C56.581,24.7,55.236,26.042,53.583,26.042z"/>
		</g>
	</g>
</g>
</svg>
