<?xml version="1.0" encoding="utf-8"?>
<!-- Generator: Adobe Illustrator 17.0.0, SVG Export Plug-In . SVG Version: 6.00 Build 0)  -->
<!DOCTYPE svg PUBLIC "-//W3C//DTD SVG 1.1//EN" "http://www.w3.org/Graphics/SVG/1.1/DTD/svg11.dtd">
<svg version="1.1" id="SQUARE__x2F__DOWN_1_" xmlns="http://www.w3.org/2000/svg" xmlns:xlink="http://www.w3.org/1999/xlink"
	 x="0px" y="0px" width="64px" height="64px" viewBox="0 0 64 64" enable-background="new 0 0 64 64" xml:space="preserve">
<g id="SQUARE__x2F__DOWN">
	<g>
		<path fill-rule="evenodd" clip-rule="evenodd" d="M15,0H3C1.343,0,0,1.344,0,3v12c0,0,0,0,0,0c0,1.657,1.343,3,3,3
			c1.657,0,3-1.343,3-3V6h9v0c1.657,0,3-1.343,3-3C18,1.344,16.657,0,15,0z M15,58H6v-9c0-1.657-1.343-3-3-3c-1.657,0-3,1.343-3,3
			l0,0v12c0,1.657,1.343,3,3,3h12c1.657,0,3-1.343,3-3C18,59.343,16.657,58,15,58z M27,6h10c1.657,0,3-1.343,3-3
			c0-1.657-1.343-3-3-3H27c-1.657,0-3,1.343-3,3C24,4.657,25.343,6,27,6z M37,58H27c-1.657,0-3,1.343-3,3c0,1.657,1.343,3,3,3h10
			c1.657,0,3-1.343,3-3C40,59.343,38.657,58,37,58z M3,40c1.657,0,3-1.343,3-3V27c0-1.657-1.343-3-3-3s-3,1.343-3,3v10
			C0,38.657,1.343,40,3,40z M41,32c-0.885,0-1.673,0.391-2.222,1l-0.008-0.007L35,37.182V19c0-1.657-1.343-3-3-3
			c-1.657,0-3,1.343-3,3v18.182l-3.77-4.189l-0.008,0.007c-0.549-0.61-1.337-1-2.222-1c-1.657,0-3,1.343-3,3
			c0,0.772,0.3,1.468,0.778,2l-0.008,0.007l9,10L29.778,47c0.549,0.61,1.336,1,2.222,1s1.673-0.391,2.222-1l0.008,0.007l9-10
			L43.222,37C43.701,36.468,44,35.772,44,35C44,33.344,42.657,32,41,32z M61,0H49c0,0,0,0,0,0c-1.657,0-3,1.343-3,3
			c0,1.657,1.343,3,3,3v0h9V15c0,0,0,0,0,0.001c0,1.657,1.343,3,3,3c1.657,0,3-1.343,3-3V3C64,1.344,62.657,0,61,0z M61,40
			c1.657,0,3-1.343,3-3V27c0-1.657-1.343-3-3-3c-1.657,0-3,1.343-3,3v10C58,38.657,59.343,40,61,40z M61,46c-1.657,0-3,1.343-3,3
			c0,0,0,0,0,0v9h-9c-1.657,0-3,1.343-3,3c0,1.657,1.343,3,3,3h12c1.657,0,3-1.343,3-3V49C64,47.343,62.657,46,61,46z"/>
	</g>
</g>
</svg>
