<?xml version="1.0" encoding="utf-8"?>
<!-- Generator: Adobe Illustrator 17.0.0, SVG Export Plug-In . SVG Version: 6.00 Build 0)  -->
<!DOCTYPE svg PUBLIC "-//W3C//DTD SVG 1.1//EN" "http://www.w3.org/Graphics/SVG/1.1/DTD/svg11.dtd">
<svg version="1.1" id="SQUARE__x2F__RIGHT_1_" xmlns="http://www.w3.org/2000/svg" xmlns:xlink="http://www.w3.org/1999/xlink"
	 x="0px" y="0px" width="64px" height="64px" viewBox="0 0 64 64" enable-background="new 0 0 64 64" xml:space="preserve">
<g id="SQUARE__x2F__RIGHT">
	<g>
		<path fill-rule="evenodd" clip-rule="evenodd" d="M3,40c1.657,0,3-1.343,3-3V27c0-1.657-1.343-3-3-3c-1.657,0-3,1.343-3,3v10
			C0,38.657,1.343,40,3,40z M15,58H6v-9c0-1.657-1.343-3-3-3c-1.657,0-3,1.343-3,3l0,0v12c0,1.657,1.343,3,3,3h12
			c1.657,0,3-1.343,3-3C18,59.343,16.657,58,15,58z M3,18c1.657,0,3-1.343,3-3V6h9v0c1.657,0,3-1.343,3-3c0-1.657-1.343-3-3-3H3
			C1.343,0,0,1.344,0,3v12c0,0,0,0,0,0C0,16.657,1.343,18,3,18z M27,6h10c1.657,0,3-1.343,3-3c0-1.657-1.343-3-3-3H27
			c-1.657,0-3,1.343-3,3C24,4.657,25.343,6,27,6z M32.993,38.771l0.007,0.008c-0.61,0.549-1,1.337-1,2.222c0,1.657,1.343,3,3,3
			c0.772,0,1.468-0.299,2-0.778l0.007,0.008l10-9L47,34.222c0.61-0.549,1-1.337,1-2.222c0-0.885-0.391-1.672-1-2.222l0.007-0.008
			l-10-9L37,20.779C36.468,20.3,35.772,20,35,20c-1.657,0-3,1.343-3,3c0,0.885,0.391,1.673,1,2.222l-0.007,0.008L37.182,29H19
			c-1.657,0-3,1.343-3,3c0,1.657,1.343,3,3,3h18.182L32.993,38.771z M64,37V27c0-1.657-1.343-3-3-3c-1.657,0-3,1.343-3,3v10
			c0,1.657,1.343,3,3,3C62.657,40,64,38.657,64,37z M61,0H49c0,0,0,0,0,0c-1.657,0-3,1.343-3,3c0,1.657,1.343,3,3,3v0h9V15
			c0,0,0,0,0,0.001c0,1.657,1.343,3,3,3c1.657,0,3-1.343,3-3V3C64,1.344,62.657,0,61,0z M37,58H27c-1.657,0-3,1.343-3,3
			c0,1.657,1.343,3,3,3h10c1.657,0,3-1.343,3-3C40,59.343,38.657,58,37,58z M61,46c-1.657,0-3,1.343-3,3c0,0,0,0,0,0v9h-9
			c-1.657,0-3,1.343-3,3c0,1.657,1.343,3,3,3h12c1.657,0,3-1.343,3-3V49C64,47.343,62.657,46,61,46z"/>
	</g>
</g>
</svg>
