<?xml version="1.0" encoding="utf-8"?>
<!-- Generator: Adobe Illustrator 16.0.0, SVG Export Plug-In . SVG Version: 6.00 Build 0)  -->
<!DOCTYPE svg PUBLIC "-//W3C//DTD SVG 1.1//EN" "http://www.w3.org/Graphics/SVG/1.1/DTD/svg11.dtd">
<svg version="1.1" id="Layer_1" xmlns="http://www.w3.org/2000/svg" xmlns:xlink="http://www.w3.org/1999/xlink" x="0px" y="0px"
	 width="64px" height="64px" viewBox="0 0 64 64" enable-background="new 0 0 64 64" xml:space="preserve">
<g id="SQUARE__x2F__OK_1_" enable-background="new    ">
	<g id="SQUARE__x2F__OK">
		<g>
			<path d="M46,20.999v0.002C46,21.001,46,21.001,46,20.999C46,21,46,21,46,20.999z M46,43.001C46,43.001,46,43,46,43.001
				C46,43,46,43,46,42.999V43.001z M25.879,42.121C26.422,42.664,27.172,43,28,43s1.578-0.336,2.121-0.879l16-16
				C46.664,25.579,47,24.828,47,24c0-1.657-1.343-3-3-3c-0.828,0-1.578,0.336-2.121,0.879L28,35.757l-6.879-6.879
				C20.578,28.336,19.828,28,19,28c-1.657,0-3,1.343-3,3c0,0.828,0.336,1.578,0.879,2.121L25.879,42.121z M61,0H3
				C1.343,0,0,1.343,0,3v58c0,1.657,1.343,3,3,3h58c1.657,0,3-1.343,3-3V3C64,1.343,62.657,0,61,0z M58,58H6V6h52V58z"/>
		</g>
	</g>
</g>
</svg>
