<?xml version="1.0" encoding="utf-8"?>
<!-- Generator: Adobe Illustrator 16.0.0, SVG Export Plug-In . SVG Version: 6.00 Build 0)  -->
<!DOCTYPE svg PUBLIC "-//W3C//DTD SVG 1.1//EN" "http://www.w3.org/Graphics/SVG/1.1/DTD/svg11.dtd">
<svg version="1.1" id="Layer_1" xmlns="http://www.w3.org/2000/svg" xmlns:xlink="http://www.w3.org/1999/xlink" x="0px" y="0px"
	 width="64px" height="64px" viewBox="0 0 64 64" enable-background="new 0 0 64 64" xml:space="preserve">
<g id="STAR_1_" enable-background="new    ">
	<g id="STAR">
		<g>
			<path d="M64,26c0-1.657-1.343-3-3-3H41.047L34.869,4.12C34.492,2.893,33.352,2,32,2c-1.35,0-2.492,0.892-2.868,2.12L22.953,23H3
				c-1.657,0-3,1.343-3,3c0,1,0.49,1.885,1.242,2.43l0,0L17.36,40.09l-6.209,18.971C11.053,59.357,11,59.672,11,60
				c0,1.657,1.343,3,3,3c0.657,0,1.263-0.213,1.758-0.57h0.001L32,50.682L48.242,62.43h0.001C48.736,62.788,49.343,63,50,63
				c1.657,0,3-1.343,3-3c0-0.328-0.053-0.643-0.15-0.938L46.641,40.09l16.118-11.66l0,0C63.51,27.885,64,27,64,26z"/>
		</g>
	</g>
</g>
</svg>
