<?xml version="1.0" encoding="utf-8"?>
<!-- Generator: Adobe Illustrator 16.0.0, SVG Export Plug-In . SVG Version: 6.00 Build 0)  -->
<!DOCTYPE svg PUBLIC "-//W3C//DTD SVG 1.1//EN" "http://www.w3.org/Graphics/SVG/1.1/DTD/svg11.dtd">
<svg version="1.1" id="Layer_1" xmlns="http://www.w3.org/2000/svg" xmlns:xlink="http://www.w3.org/1999/xlink" x="0px" y="0px"
	 width="64px" height="64px" viewBox="0 0 64 64" enable-background="new 0 0 64 64" xml:space="preserve">
<g id="SUITCASE_1_" enable-background="new    ">
	<g id="SUITCASE">
		<g>
			<path d="M0,21v37c0,1.657,1.343,3,3,3h5V18H3C1.343,18,0,19.343,0,21z M32,3c-8.284,0-15,6.716-15,15h-6v43h42V18h-6
				C47,9.716,40.284,3,32,3z M23,18c0-4.971,4.029-9,9-9c4.971,0,9,4.029,9,9H23z M61,18h-5v43h5c1.657,0,3-1.343,3-3V21
				C64,19.343,62.657,18,61,18z"/>
		</g>
	</g>
</g>
</svg>
