<?xml version="1.0" encoding="utf-8"?>
<!-- Generator: Adobe Illustrator 17.0.0, SVG Export Plug-In . SVG Version: 6.00 Build 0)  -->
<!DOCTYPE svg PUBLIC "-//W3C//DTD SVG 1.1//EN" "http://www.w3.org/Graphics/SVG/1.1/DTD/svg11.dtd">
<svg version="1.1" id="TIMER_1_" xmlns="http://www.w3.org/2000/svg" xmlns:xlink="http://www.w3.org/1999/xlink" x="0px" y="0px"
	 width="64px" height="64px" viewBox="0 0 64 64" enable-background="new 0 0 64 64" xml:space="preserve">
<g id="TIMER">
	<g>
		<path fill-rule="evenodd" clip-rule="evenodd" d="M32.129,16l-5.534,21.23c0,0-2.594,8.77,5.391,8.77c0,0,8.015-0.125,5.479-8.685
			L32.129,16z M32,0C14.327,0,0,14.327,0,32s14.327,32,32,32s32-14.327,32-32S49.673,0,32,0z M32,58C17.641,58,6,46.36,6,32
			C6,17.641,17.641,6,32,6c14.359,0,26,11.64,26,26C58,46.36,46.36,58,32,58z"/>
	</g>
</g>
</svg>
