<?xml version="1.0" encoding="utf-8"?>
<!-- Generator: Adobe Illustrator 16.0.0, SVG Export Plug-In . SVG Version: 6.00 Build 0)  -->
<!DOCTYPE svg PUBLIC "-//W3C//DTD SVG 1.1//EN" "http://www.w3.org/Graphics/SVG/1.1/DTD/svg11.dtd">
<svg version="1.1" id="Layer_1" xmlns="http://www.w3.org/2000/svg" xmlns:xlink="http://www.w3.org/1999/xlink" x="0px" y="0px"
	 width="64px" height="64px" viewBox="0 0 64 64" enable-background="new 0 0 64 64" xml:space="preserve">
<g id="UPLOAD_1_" enable-background="new    ">
	<g id="UPLOAD">
		<g>
			<path d="M23,24c0.885,0,1.681-0.384,2.23-0.993l0,0L29,18.818V37c0,1.657,1.343,3,3,3s3-1.343,3-3l0,0V18.818l3.77,4.189l0,0
				C39.318,23.617,40.115,24,41,24c1.657,0,3-1.343,3-3c0-0.772-0.292-1.475-0.77-2.007l0,0l-9-10l0,0C33.682,8.384,32.885,8,32,8
				s-1.681,0.384-2.23,0.993l0,0l-9,10l0,0C20.292,19.525,20,20.228,20,21C20,22.657,21.343,24,23,24z M55,35c-1.657,0-3,1.343-3,3
				v12H12V38c0-1.657-1.343-3-3-3s-3,1.343-3,3v15c0,1.657,1.343,3,3,3h46c1.657,0,3-1.343,3-3V38C58,36.343,56.657,35,55,35z"/>
		</g>
	</g>
</g>
</svg>
