<?xml version="1.0" encoding="utf-8"?>
<!-- Generator: Adobe Illustrator 16.0.0, SVG Export Plug-In . SVG Version: 6.00 Build 0)  -->
<!DOCTYPE svg PUBLIC "-//W3C//DTD SVG 1.1//EN" "http://www.w3.org/Graphics/SVG/1.1/DTD/svg11.dtd">
<svg version="1.1" id="Layer_1" xmlns="http://www.w3.org/2000/svg" xmlns:xlink="http://www.w3.org/1999/xlink" x="0px" y="0px"
	 width="64px" height="64px" viewBox="0 0 64 64" enable-background="new 0 0 64 64" xml:space="preserve">
<g id="USER__x2F__OK_1_" enable-background="new    ">
	<g id="USER__x2F__OK">
		<g>
			<path d="M44.757,58.243C43.672,57.157,43,55.657,43,54c0-3.314,2.686-6,6-6c1.533,0,2.916,0.592,3.977,1.538l3.781-3.781
				c0.047-0.046,0.104-0.08,0.15-0.124c-0.299-0.183-0.57-0.386-0.895-0.547c-5.055-2.516-3.107-0.591-9.313-3.164
				c-6.205-2.57-7.675-3.408-7.675-3.408l-0.055-5.894c0,0,2.323-1.764,3.049-7.337c1.449,0.42,1.94-1.701,2.02-3.056
				c0.086-1.309,0.857-5.389-0.917-5.025c0.362-2.724,0.647-5.187,0.519-6.491c-0.442-4.576-3.606-9.355-11.594-9.704
				c-6.79,0.349-11.198,5.131-11.643,9.707c-0.128,1.304,0.133,3.765,0.496,6.494c-1.774-0.369-1.01,3.719-0.932,5.027
				c0.086,1.355,0.566,3.482,2.02,3.062c0.722,5.574,3.046,7.352,3.046,7.352l-0.058,5.924c0,0-1.47,0.896-7.675,3.466
				c-6.205,2.573-4.259,0.532-9.314,3.047c-7.988,3.976-7.988,14.907-7.988,14.907h0.002C0.001,59.995,0,59.998,0,60
				c0,1.657,1.343,3,3,3h46.691c-0.336-0.223-0.65-0.475-0.934-0.757L44.757,58.243z M64.001,59.993c0,0-0.008-1.709-0.498-4.011
				l-6.261,6.261c-0.284,0.282-0.598,0.534-0.934,0.757H61c1.657,0,3-1.343,3-3c0-0.003-0.001-0.005-0.001-0.007H64.001z M64,50
				c0-1.657-1.343-3-3-3c-0.828,0-1.578,0.336-2.121,0.879L53,53.757l-1.879-1.879C50.578,51.336,49.828,51,49,51
				c-1.657,0-3,1.343-3,3c0,0.829,0.336,1.578,0.879,2.121l4,4C51.422,60.664,52.172,61,53,61s1.578-0.336,2.121-0.879l8-8
				C63.664,51.579,64,50.828,64,50z"/>
		</g>
	</g>
</g>
</svg>
