<?xml version="1.0" encoding="utf-8"?>
<!-- Generator: Adobe Illustrator 16.0.0, SVG Export Plug-In . SVG Version: 6.00 Build 0)  -->
<!DOCTYPE svg PUBLIC "-//W3C//DTD SVG 1.1//EN" "http://www.w3.org/Graphics/SVG/1.1/DTD/svg11.dtd">
<svg version="1.1" id="Layer_1" xmlns="http://www.w3.org/2000/svg" xmlns:xlink="http://www.w3.org/1999/xlink" x="0px" y="0px"
	 width="64px" height="64px" viewBox="0 0 64 64" enable-background="new 0 0 64 64" xml:space="preserve">
<g id="USER__x2F__DELETE_1_" enable-background="new    ">
	<g id="USER__x2F__DELETE">
		<g>
			<path d="M46.516,54l-1.758-1.757l0.016-0.017C43.682,51.146,43,49.659,43,48c0-2.775,1.895-5.088,4.454-5.773
				c-0.243-0.097-0.481-0.191-0.754-0.305c-6.205-2.57-7.675-3.408-7.675-3.408l-0.055-5.894c0,0,2.323-1.764,3.049-7.337
				c1.449,0.42,1.941-1.701,2.02-3.056c0.086-1.309,0.857-5.389-0.917-5.025c0.362-2.724,0.647-5.187,0.519-6.491
				c-0.443-4.576-3.607-9.355-11.594-9.704c-6.79,0.349-11.198,5.131-11.643,9.707c-0.128,1.304,0.133,3.765,0.496,6.494
				c-1.774-0.369-1.01,3.719-0.932,5.027c0.086,1.355,0.566,3.482,2.02,3.062c0.722,5.574,3.046,7.352,3.046,7.352l-0.058,5.924
				c0,0-1.47,0.896-7.675,3.466c-6.205,2.573-4.259,0.532-9.314,3.047c-7.988,3.976-7.988,14.907-7.988,14.907h0.002
				C0.001,59.995,0,59.998,0,60c0,1.657,1.343,3,3,3h40.832C43.316,62.115,43,61.1,43,60c0-1.657,0.672-3.157,1.757-4.243L46.516,54
				z M59.243,54l3.879-3.878C63.664,49.578,64,48.828,64,48c0-1.657-1.343-3-3-3c-0.828,0-1.578,0.336-2.121,0.879L55,49.758
				l-3.879-3.879C50.578,45.336,49.828,45,49,45c-1.657,0-3,1.343-3,3c0,0.828,0.336,1.578,0.879,2.121L50.757,54l-3.879,3.879
				C46.336,58.422,46,59.172,46,60c0,1.657,1.343,3,3,3c0.828,0,1.578-0.336,2.121-0.879L55,58.243l3.879,3.879
				C59.422,62.664,60.172,63,61,63c1.657,0,3-1.343,3-3c0-0.828-0.336-1.578-0.879-2.121L59.243,54z"/>
		</g>
	</g>
</g>
</svg>
