<?xml version="1.0" encoding="utf-8"?>
<!-- Generator: Adobe Illustrator 17.0.0, SVG Export Plug-In . SVG Version: 6.00 Build 0)  -->
<!DOCTYPE svg PUBLIC "-//W3C//DTD SVG 1.1//EN" "http://www.w3.org/Graphics/SVG/1.1/DTD/svg11.dtd">
<svg version="1.1" id="USER_1_" xmlns="http://www.w3.org/2000/svg" xmlns:xlink="http://www.w3.org/1999/xlink" x="0px" y="0px"
	 width="64px" height="64px" viewBox="0 0 64 64" enable-background="new 0 0 64 64" xml:space="preserve">
<g id="USER">
	<g>
		<path fill-rule="evenodd" clip-rule="evenodd" d="M61,0H3C1.343,0,0,1.343,0,3v58c0,1.657,1.343,3,3,3h58c1.657,0,3-1.343,3-3V3
			C64,1.343,62.657,0,61,0z M58,56.843c-0.888-2.64-2.564-5.557-5.739-7.157c-4.265-2.15-2.623-0.505-7.858-2.705
			c-5.235-2.197-6.475-2.915-6.475-2.915l-0.046-5.039c0,0,1.961-1.508,2.573-6.273c1.224,0.359,1.638-1.454,1.704-2.612
			c0.073-1.119,0.724-4.607-0.774-4.296c0.306-2.329,0.547-4.434,0.438-5.549c-0.374-3.912-3.044-7.998-9.782-8.296
			c-5.729,0.299-9.448,4.386-9.823,8.299c-0.108,1.115,0.112,3.218,0.418,5.551c-1.497-0.315-0.852,3.179-0.787,4.297
			c0.072,1.158,0.477,2.977,1.705,2.618c0.609,4.765,2.57,6.285,2.57,6.285l-0.049,5.065c0,0-1.24,0.767-6.476,2.963
			c-5.235,2.201-3.594,0.455-7.858,2.605C8.565,51.285,6.888,54.203,6,56.843V6h52V56.843z"/>
	</g>
</g>
</svg>
