<?xml version="1.0" encoding="utf-8"?>
<!-- Generator: Adobe Illustrator 16.0.0, SVG Export Plug-In . SVG Version: 6.00 Build 0)  -->
<!DOCTYPE svg PUBLIC "-//W3C//DTD SVG 1.1//EN" "http://www.w3.org/Graphics/SVG/1.1/DTD/svg11.dtd">
<svg version="1.1" id="Layer_1" xmlns="http://www.w3.org/2000/svg" xmlns:xlink="http://www.w3.org/1999/xlink" x="0px" y="0px"
	 width="64px" height="64px" viewBox="0 0 64 64" enable-background="new 0 0 64 64" xml:space="preserve">
<g id="VOICEMAIL_1_" enable-background="new    ">
	<g id="VOICEMAIL">
		<g>
			<path d="M50,18c-7.732,0-14,6.268-14,14c0,2.977,0.936,5.73,2.52,8H25.48c1.584-2.27,2.52-5.023,2.52-8c0-7.732-6.268-14-14-14
				S0,24.268,0,32c0,7.732,6.268,14,14,14h36c7.732,0,14-6.268,14-14C64,24.268,57.732,18,50,18z M14,40c-4.418,0-8-3.582-8-8
				s3.582-8,8-8s8,3.582,8,8S18.418,40,14,40z M50,40c-4.418,0-8-3.582-8-8s3.582-8,8-8s8,3.582,8,8S54.418,40,50,40z"/>
		</g>
	</g>
</g>
</svg>
