<?xml version="1.0" encoding="utf-8"?>
<!-- Generator: Adobe Illustrator 16.0.0, SVG Export Plug-In . SVG Version: 6.00 Build 0)  -->
<!DOCTYPE svg PUBLIC "-//W3C//DTD SVG 1.1//EN" "http://www.w3.org/Graphics/SVG/1.1/DTD/svg11.dtd">
<svg version="1.1" id="Layer_1" xmlns="http://www.w3.org/2000/svg" xmlns:xlink="http://www.w3.org/1999/xlink" x="0px" y="0px"
	 width="64px" height="64px" viewBox="0 0 64 64" enable-background="new 0 0 64 64" xml:space="preserve">
<g id="VOLUME__x2F__OFF_1_" enable-background="new    ">
	<g id="VOLUME__x2F__OFF">
		<g>
			<path d="M42,16c-0.721,0-1.374,0.265-1.891,0.689l-0.01-0.011l-10.162,8.315h-9.946v0.008C18.339,25.006,17,26.346,17,28v9.627
				l27.973-18.9C44.832,17.2,43.562,16,42,16z M30.024,41l10.21,7.426l0.006-0.007C40.736,48.781,41.34,49,42,49
				c1.657,0,3-1.343,3-3V29.57L28.083,41H30.024z M51,18.6c-0.312,0-0.602,0.095-0.841,0.258L13.064,43.955
				c-0.4,0.27-0.664,0.727-0.664,1.245c0,0.827,0.672,1.5,1.5,1.5c0.312,0,0.601-0.095,0.841-0.259l37.095-25.096
				c0.4-0.269,0.664-0.727,0.664-1.245C52.5,19.272,51.828,18.6,51,18.6z"/>
		</g>
	</g>
</g>
</svg>
