<?xml version="1.0" encoding="utf-8"?>
<!-- Generator: Adobe Illustrator 16.0.0, SVG Export Plug-In . SVG Version: 6.00 Build 0)  -->
<!DOCTYPE svg PUBLIC "-//W3C//DTD SVG 1.1//EN" "http://www.w3.org/Graphics/SVG/1.1/DTD/svg11.dtd">
<svg version="1.1" id="Layer_1" xmlns="http://www.w3.org/2000/svg" xmlns:xlink="http://www.w3.org/1999/xlink" x="0px" y="0px"
	 width="64px" height="64px" viewBox="0 0 64 64" enable-background="new 0 0 64 64" xml:space="preserve">
<g id="VOLUME_2_1_" enable-background="new    ">
	<g id="VOLUME_2">
		<g>
			<path d="M50.701,10.128l-2.848,2.848C52.292,18.07,55,24.712,55,32s-2.708,13.93-7.146,19.023l2.848,2.849
				C55.861,48.049,59,40.393,59,32C59,23.607,55.861,15.951,50.701,10.128z M31,15c-0.721,0-1.374,0.265-1.891,0.689L29.1,15.678
				l-10.162,8.315H8.992v0.008C7.339,24.006,6,25.346,6,27v10c0,1.657,1.343,3,3,3h10.024l10.211,7.426l0.005-0.007
				C29.736,47.781,30.34,48,31,48c1.657,0,3-1.343,3-3V18C34,16.343,32.657,15,31,15z M42.902,17.926l-2.846,2.847
				C42.52,23.852,44,27.75,44,32s-1.48,8.148-3.943,11.227l2.846,2.848C46.083,42.26,48,37.355,48,32
				C48,26.645,46.083,21.74,42.902,17.926z"/>
		</g>
	</g>
</g>
</svg>
