<?xml version="1.0" encoding="utf-8"?>
<!-- Generator: Adobe Illustrator 16.0.0, SVG Export Plug-In . SVG Version: 6.00 Build 0)  -->
<!DOCTYPE svg PUBLIC "-//W3C//DTD SVG 1.1//EN" "http://www.w3.org/Graphics/SVG/1.1/DTD/svg11.dtd">
<svg version="1.1" id="Layer_1" xmlns="http://www.w3.org/2000/svg" xmlns:xlink="http://www.w3.org/1999/xlink" x="0px" y="0px"
	 width="64px" height="64px" viewBox="0 0 64 64" enable-background="new 0 0 64 64" xml:space="preserve">
<g id="VOLUME_3_1_" enable-background="new    ">
	<g id="VOLUME_3">
		<g>
			<path d="M25,15c-0.721,0-1.374,0.265-1.891,0.689L23.1,15.678l-10.162,8.315H2.992v0.008C1.339,24.006,0,25.346,0,27v10
				c0,1.657,1.343,3,3,3h10.024l10.211,7.426l0.005-0.007C23.736,47.781,24.34,48,25,48c1.657,0,3-1.343,3-3V18
				C28,16.343,26.657,15,25,15z M36.902,17.926l-2.846,2.847C36.52,23.852,38,27.75,38,32s-1.48,8.148-3.943,11.227l2.846,2.848
				C40.083,42.26,42,37.355,42,32C42,26.645,40.083,21.74,36.902,17.926z M44.701,10.128l-2.848,2.848C46.292,18.07,49,24.712,49,32
				s-2.708,13.93-7.146,19.023l2.848,2.849C49.861,48.049,53,40.393,53,32C53,23.607,49.861,15.951,44.701,10.128z M52.493,2.336
				l-2.831,2.831C56.086,12.263,60,21.674,60,32s-3.914,19.736-10.338,26.833l2.831,2.831C59.639,53.842,64,43.432,64,32
				C64,20.569,59.639,10.159,52.493,2.336z"/>
		</g>
	</g>
</g>
</svg>
