<?xml version="1.0" encoding="utf-8"?>
<!-- Generator: Adobe Illustrator 16.0.0, SVG Export Plug-In . SVG Version: 6.00 Build 0)  -->
<!DOCTYPE svg PUBLIC "-//W3C//DTD SVG 1.1//EN" "http://www.w3.org/Graphics/SVG/1.1/DTD/svg11.dtd">
<svg version="1.1" id="Layer_1" xmlns="http://www.w3.org/2000/svg" xmlns:xlink="http://www.w3.org/1999/xlink" x="0px" y="0px"
	 width="64px" height="64px" viewBox="0 0 64 64" enable-background="new 0 0 64 64" xml:space="preserve">
<g id="VOLUME__x2F__UP_1_" enable-background="new    ">
	<g id="VOLUME__x2F__UP">
		<g>
			<path d="M31,16c-0.721,0-1.374,0.265-1.891,0.689L29.1,16.678l-10.162,8.315H8.992v0.008C7.339,25.006,6,26.346,6,28v10
				c0,1.657,1.343,3,3,3h10.024l10.211,7.426l0.005-0.007C29.736,48.781,30.34,49,31,49c1.657,0,3-1.343,3-3V19
				C34,17.343,32.657,16,31,16z M55,30h-3v-3c0-1.657-1.343-3-3-3s-3,1.343-3,3v3h-3c-1.657,0-3,1.343-3,3s1.343,3,3,3h3v3
				c0,1.657,1.343,3,3,3s3-1.343,3-3v-3h3c1.657,0,3-1.343,3-3S56.657,30,55,30z"/>
		</g>
	</g>
</g>
</svg>
