<?xml version="1.0" encoding="utf-8"?>
<!-- Generator: Adobe Illustrator 16.0.0, SVG Export Plug-In . SVG Version: 6.00 Build 0)  -->
<!DOCTYPE svg PUBLIC "-//W3C//DTD SVG 1.1//EN" "http://www.w3.org/Graphics/SVG/1.1/DTD/svg11.dtd">
<svg version="1.1" id="Layer_1" xmlns="http://www.w3.org/2000/svg" xmlns:xlink="http://www.w3.org/1999/xlink" x="0px" y="0px"
	 width="64px" height="64px" viewBox="0 0 64 64" enable-background="new 0 0 64 64" xml:space="preserve">
<g id="VOLUME__x2F__MUTE_1_" enable-background="new    ">
	<g id="VOLUME__x2F__MUTE">
		<g>
			<path d="M31,16c-0.721,0-1.374,0.265-1.891,0.689L29.1,16.678l-10.162,8.315H8.992v0.008C7.339,25.006,6,26.346,6,28v10
				c0,1.657,1.343,3,3,3h10.024l10.211,7.426l0.005-0.007C29.736,48.781,30.34,49,31,49c1.657,0,3-1.343,3-3V19
				C34,17.343,32.657,16,31,16z M53.243,33l3.879-3.879C57.664,28.579,58,27.829,58,27c0-1.657-1.343-3-3-3
				c-0.828,0-1.578,0.336-2.121,0.879L49,28.758l-3.879-3.879C44.578,24.336,43.828,24,43,24c-1.657,0-3,1.343-3,3
				c0,0.828,0.336,1.578,0.879,2.121L44.757,33l-3.879,3.879C40.336,37.422,40,38.172,40,39c0,1.657,1.343,3,3,3
				c0.828,0,1.578-0.336,2.121-0.879L49,37.243l3.879,3.879C53.422,41.664,54.172,42,55,42c1.657,0,3-1.343,3-3
				c0-0.828-0.336-1.578-0.879-2.121L53.243,33z"/>
		</g>
	</g>
</g>
</svg>
