<?xml version="1.0" encoding="utf-8"?>
<!-- Generator: Adobe Illustrator 16.0.0, SVG Export Plug-In . SVG Version: 6.00 Build 0)  -->
<!DOCTYPE svg PUBLIC "-//W3C//DTD SVG 1.1//EN" "http://www.w3.org/Graphics/SVG/1.1/DTD/svg11.dtd">
<svg version="1.1" id="Layer_1" xmlns="http://www.w3.org/2000/svg" xmlns:xlink="http://www.w3.org/1999/xlink" x="0px" y="0px"
	 width="64px" height="64px" viewBox="0 0 64 64" enable-background="new 0 0 64 64" xml:space="preserve">
<g id="VOLUME_1_1_" enable-background="new    ">
	<g id="VOLUME_1">
		<g>
			<path d="M36,16c-0.721,0-1.374,0.265-1.891,0.689l-0.01-0.011l-10.162,8.315h-9.946v0.008C12.339,25.006,11,26.346,11,28v10
				c0,1.657,1.343,3,3,3h10.024l10.21,7.426l0.006-0.007C34.736,48.781,35.34,49,36,49c1.657,0,3-1.343,3-3V19
				C39,17.343,37.657,16,36,16z M47.902,18.926l-2.846,2.847C47.52,24.852,49,28.75,49,33s-1.48,8.148-3.943,11.227l2.846,2.848
				C51.083,43.26,53,38.355,53,33C53,27.645,51.083,22.74,47.902,18.926z"/>
		</g>
	</g>
</g>
</svg>
