<?xml version="1.0" encoding="utf-8"?>
<!-- Generator: Adobe Illustrator 17.0.0, SVG Export Plug-In . SVG Version: 6.00 Build 0)  -->
<!DOCTYPE svg PUBLIC "-//W3C//DTD SVG 1.1//EN" "http://www.w3.org/Graphics/SVG/1.1/DTD/svg11.dtd">
<svg version="1.1" id="ZOOM_IN_1_" xmlns="http://www.w3.org/2000/svg" xmlns:xlink="http://www.w3.org/1999/xlink" x="0px" y="0px"
	 width="64px" height="64px" viewBox="0 0 64 64" enable-background="new 0 0 64 64" xml:space="preserve">
<g id="ZOOM_IN">
	<g>
		<path fill-rule="evenodd" clip-rule="evenodd" d="M45,29H35V19c0-1.657-1.343-3-3-3c-1.657,0-3,1.343-3,3v10H19
			c-1.657,0-3,1.343-3,3c0,1.657,1.343,3,3,3h10v10c0,1.657,1.343,3,3,3c1.657,0,3-1.343,3-3V35h10c1.657,0,3-1.343,3-3
			C48,30.344,46.657,29,45,29z M32,0C14.327,0,0,14.327,0,32c0,17.673,14.327,32,32,32c0.003,0,0.005,0,0.008,0H61
			c1.657,0,3-1.343,3-3V32.002c0-0.001,0-0.001,0-0.002C64,14.327,49.673,0,32,0z M58,32.001C58,46.359,46.361,57.998,32.004,58H32
			v0C17.641,58,6,46.36,6,32C6,17.641,17.641,6,32,6S58,17.641,58,32.001L58,32.001z"/>
	</g>
</g>
</svg>
