<?xml version="1.0" encoding="utf-8"?>
<!-- Generator: Adobe Illustrator 16.0.0, SVG Export Plug-In . SVG Version: 6.00 Build 0)  -->
<!DOCTYPE svg PUBLIC "-//W3C//DTD SVG 1.1//EN" "http://www.w3.org/Graphics/SVG/1.1/DTD/svg11.dtd">
<svg version="1.1" xmlns="http://www.w3.org/2000/svg" xmlns:xlink="http://www.w3.org/1999/xlink" x="0px" y="0px" width="360px"
	 height="504px" viewBox="0 0 360 504" enable-background="new 0 0 360 504" xml:space="preserve">
<g id="Ebene_1" display="none">
	<circle display="inline" fill="none" stroke="#000000" stroke-width="0.25" stroke-miterlimit="10" cx="360" cy="144" r="144"/>
	<circle display="inline" fill="none" stroke="#000000" stroke-width="0.25" stroke-miterlimit="10" cx="504" cy="72" r="72"/>
	<circle display="inline" fill="none" stroke="#000000" stroke-width="0.25" stroke-miterlimit="10" cx="288" cy="432" r="72"/>
	<circle display="inline" fill="none" stroke="#000000" stroke-width="0.25" stroke-miterlimit="10" cx="450" cy="270" r="54"/>
	<circle display="inline" fill="none" stroke="#000000" stroke-width="0.25" stroke-miterlimit="10" cx="432" cy="216" r="72"/>
	<circle display="inline" fill="none" stroke="#000000" stroke-width="0.25" stroke-miterlimit="10" cx="432" cy="396" r="72"/>
</g>
<g id="Ebene_2">
	<path fill="#77CDFF" d="M208,144c3.892,0,7.758,0.108,11.599,0.312c68.512,0.008,33.844,0.313,69.401,0.313
		c36,0,72-27.375,72-72.125S325,1,289,1S145,1,145,1C64,1-0.062,72.594,0.438,144.594c0.25,36.036,0.359,96.769,0.406,154.093
		C27.271,209.261,110.008,144,208,144z"/>
	<g>
		<path fill="#59B8FC" d="M1,432.188c0,10.484,1.904,19.987,5.341,28.42c1.144-4.618,2.502-9.164,3.995-13.634
			C6.698,438.714,3,430.184,1,421.421C1,425.529,1,429.152,1,432.188z"/>
		<path fill="#5BB8FD" d="M181,324c9.766,0,19.346,0.789,28.689,2.286c7.464-1.381,15.775-2.161,25.061-2.161
			c-0.25,0,54.25,0.125,54.25-53.875S235,217,235,217h-90c0,0,0-73,72-73c0.887,0,1.745,0,2.599,0
			c-3.841,0-7.708-0.155-11.599-0.155c-97.992,0-180.729,65.338-207.157,154.764c0.041,49.485,0.034,96.452,0.032,122.773
			c2.595,8.763,5.729,17.313,9.367,25.572C34.094,375.497,101.523,324,181,324z"/>
		<linearGradient id="SVGID_1_" gradientUnits="userSpaceOnUse" x1="144.9214" y1="143.8447" x2="144.9214" y2="446.9546">
			<stop  offset="0" style="stop-color:#1D1D1B;stop-opacity:0.2"/>
			<stop  offset="0.3011" style="stop-color:#1D1D1B;stop-opacity:0"/>
		</linearGradient>
		<path fill="url(#SVGID_1_)" d="M181,324c9.766,0,19.346,0.789,28.689,2.286c7.464-1.381,15.775-2.161,25.061-2.161
			c-0.25,0,54.25,0.125,54.25-53.875S235,217,235,217h-90c0,0,0-73,72-73c0.887,0,1.744,0,2.6,0c-3.842,0-7.708-0.155-11.6-0.155
			c-97.992,0-180.729,65.338-207.157,154.764c0.041,49.485,0.034,96.452,0.032,122.773c2.595,8.763,5.729,17.313,9.367,25.572
			C34.094,375.497,101.523,324,181,324z"/>
	</g>
	<path fill="#4DA6FA" d="M6.278,460.607c6.897,16.923,19.789,29.469,34.968,36.692c-12.509-15.175-22.974-32.094-31.005-50.326
		C8.75,451.443,7.422,455.989,6.278,460.607z"/>
	<path fill="#4DA6FA" d="M144.5,432.75l0.5-36.688c0,0,0.014-57.812,64.69-69.777C200.346,324.789,190.766,324,181,324
		c-79.477,0-146.906,51.517-170.758,122.974c8.031,18.232,18.496,35.151,31.005,50.326c9.72,4.625,20.375,7.075,31.003,7.075
		C116.75,504.375,144.5,468.75,144.5,432.75z"/>
	<linearGradient id="SVGID_2_" gradientUnits="userSpaceOnUse" x1="171.75" y1="282.4277" x2="55.588" y2="483.6262">
		<stop  offset="0.0753" style="stop-color:#1D1D1B;stop-opacity:0.3"/>
		<stop  offset="0.5" style="stop-color:#1D1D1B;stop-opacity:0"/>
	</linearGradient>
	<path fill="url(#SVGID_2_)" d="M144.5,432.75l0.5-36.688c0,0,0.014-57.812,64.69-69.777C200.346,324.789,190.766,324,181,324
		c-79.477,0-146.906,51.517-170.758,122.974c8.031,18.232,18.496,35.151,31.005,50.326c9.72,4.625,20.375,7.075,31.003,7.075
		C116.75,504.375,144.5,468.75,144.5,432.75z"/>
</g>
<g id="Ebene_3" display="none">
	<path display="inline" fill="none" stroke="#000000" stroke-miterlimit="10" d="M359.5,432.75c0,36-27.75,71.625-72.25,71.625
		c-35.5,0-71.375-27.188-71.375-72.188s0.063-215.844-0.438-287.844S279,0.5,360,0.5c0,0,108,0,144,0s72,27,72,71.75
		s-36,72.25-72,72.25s0-0.5-72-0.5s-72,72.5-72,72.5h90c0,0,54-0.5,54,53.5S449.5,324,449.75,324C360,324,360,396,360,396
		L359.5,432.75z"/>
</g>
</svg>
