<?xml version="1.0" standalone="no"?> 
<!DOCTYPE svg PUBLIC "-//W3C//DTD SVG 1.1//EN" "http://www.w3.org/Graphics/SVG/1.1/DTD/svg11.dtd" >
<svg xmlns="http://www.w3.org/2000/svg">
<defs>
  <font id="icons" horiz-adv-x="64">
    <font-face font-family="icons"
      units-per-em="64" ascent="64"
      descent="0" />
    <missing-glyph horiz-adv-x="0" />
    <glyph glyph-name="alarm"
      unicode="&#xF101;"
      horiz-adv-x="64" d=" M44 33H35V46C35 47.657 33.657 49 32 49S29 47.657 29 46V30C29 28.343 30.343 27 32 27H44C45.657 27 47 28.343 47 30S45.657 33 44 33zM19.412 59.425C17.37 61.033 14.8 62 12 62C5.373 62 0 56.627 0 50C0 47.2 0.967 44.63 2.575 42.588C5.809 50.138 11.862 56.191 19.412 59.425zM52.251 62C49.509 62 46.993 61.053 44.994 59.479C52.387 56.312 58.312 50.386 61.478 42.994C63.052 44.994 63.999 47.51 63.999 50.251C64 56.74 58.74 62 52.251 62zM32 59C15.984 59 3 46.016 3 30C3 22.309 6.015 15.336 10.902 10.145L6.879 6.122C6.336 5.578 6 4.828 6 4C6 2.343 7.343 1 9 1C9.828 1 10.578 1.336 11.121 1.879L15.448 6.206C20.144 2.934 25.842 1 32 1C38.17 1 43.878 2.941 48.579 6.227L52.935 1.87C53.473 1.332 54.215 1 55.034 1C56.672 1 58 2.328 58 3.966C58 4.785 57.668 5.528 57.131 6.065L53.075 10.121C57.977 15.312 61 22.296 61 30C61 46.016 48.016 59 32 59zM32 7C19.297 7 9 17.297 9 30S19.297 53 32 53C44.702 53 55 42.703 55 30S44.703 7 32 7z" />
    <glyph glyph-name="alt"
      unicode="&#xF102;"
      horiz-adv-x="64" d=" M31 44H61C62.657 44 64 45.343 64 47S62.657 50 61 50H31C29.343 50 28 48.657 28 47S29.343 44 31 44zM61 20H32.651L14.535 48.605L14.529 48.601C13.997 49.44 13.066 50 12 50H3C1.343 50 0 48.657 0 47S1.343 44 3 44H10.349L28.466 15.395L28.472 15.399C29.003 14.56 29.934 14 31 14H61C62.657 14 64 15.343 64 17C64 18.657 62.657 20 61 20z" />
    <glyph glyph-name="android"
      unicode="&#xF103;"
      horiz-adv-x="64" d=" M15.647 16.507C15.647 14.343 17.356 12.581 19.459 12.581H22.211C22.119 12.254 22.067 11.908 22.067 11.55V3.702C22.067 1.65 23.685 -0.016 25.679 -0.016C27.674 -0.016 29.292 1.65 29.292 3.702V11.55C29.292 11.908 29.239 12.254 29.148 12.581H35.856C35.764 12.254 35.712 11.908 35.712 11.55V3.702C35.712 1.65 37.33 -0.016 39.324 -0.016S42.937 1.65 42.937 3.702V11.55C42.937 11.908 42.884 12.254 42.792 12.581H45.544C47.648 12.581 49.356 14.342 49.356 16.507V43.767H15.646V16.507zM9.626 43.767C7.631 43.767 6.014 42.103 6.014 40.05V24.149C6.014 22.096 7.631 20.432 9.626 20.432C11.62 20.432 13.238 22.096 13.238 24.149V40.049C13.238 42.103 11.62 43.767 9.626 43.767zM55.375 43.767C53.38 43.767 51.764 42.103 51.764 40.05V24.149C51.764 22.096 53.38 20.432 55.375 20.432S58.986 22.096 58.986 24.149V40.049C58.986 42.103 57.37 43.767 55.375 43.767zM40.789 58.645L41.467 59.692L42.135 60.724L43.637 63.042C43.821 63.327 43.745 63.711 43.471 63.901C43.192 64.092 42.819 64.015 42.634 63.729L41.026 61.244L40.348 60.199L39.662 59.14C37.486 60.008 35.06 60.495 32.5 60.495C29.941 60.495 27.514 60.008 25.34 59.141L24.655 60.2L23.979 61.245L22.367 63.73C22.183 64.015 21.809 64.092 21.531 63.902C21.256 63.712 21.18 63.328 21.365 63.043L22.865 60.725L23.534 59.693L24.212 58.646C19.103 56.197 15.646 51.557 15.646 46.246H49.354C49.355 51.556 45.898 56.196 40.789 58.645zM25.278 51.201C24.28 51.201 23.472 52.034 23.472 53.06S24.28 54.917 25.278 54.917C26.275 54.917 27.084 54.086 27.084 53.06S26.275 51.201 25.278 51.201zM39.725 51.201C38.727 51.201 37.919 52.034 37.919 53.06S38.727 54.917 39.725 54.917S41.53 54.086 41.53 53.06S40.723 51.201 39.725 51.201z" />
    <glyph glyph-name="apple"
      unicode="&#xF104;"
      horiz-adv-x="64" d=" M42.111 53.786C44.511 56.495 46.132 60.259 45.691 64.007C42.232 63.877 38.044 61.867 35.56 59.161C33.335 56.76 31.39 52.935 31.91 49.255C35.77 48.975 39.708 51.082 42.111 53.786zM50.771 29.992C50.685 38.101 57.875 41.989 58.198 42.185C54.157 47.684 47.861 48.439 45.622 48.525C40.268 49.031 35.171 45.59 32.453 45.59C29.742 45.59 25.547 48.451 21.107 48.378C15.267 48.297 9.885 45.217 6.879 40.35C0.814 30.557 5.327 16.043 11.238 8.094C14.128 4.208 17.573 -0.163 22.093 -0.003C26.45 0.157 28.095 2.619 33.36 2.619C38.629 2.619 40.106 -0.003 44.714 0.078C49.399 0.157 52.369 4.037 55.236 7.937C58.554 12.451 59.919 16.823 60.001 17.043C59.896 17.09 50.865 20.311 50.771 29.992z" />
    <glyph glyph-name="appstore"
      unicode="&#xF105;"
      horiz-adv-x="64" d=" M31.03 35.948L24.522 24.57H42.184C40.901 27.109 39.203 30.743 36.922 35.946H31.03V35.948zM31.735 42.576C32.14 43.284 31.895 44.194 31.189 44.606L27.335 46.82C26.631 47.23 25.72 46.983 25.316 46.275L19.408 35.947L12.899 24.57L7.466 15.07C7.057 14.361 7.306 13.452 8.012 13.047L11.865 10.823C12.57 10.415 13.48 10.662 13.888 11.368L21.438 24.57L26.317 33.102L31.735 42.576zM10.606 9.122L6.753 11.341C6.047 11.749 5.395 11.415 5.301 10.606L4.635 4.782C4.542 3.971 5.017 3.68 5.689 4.139L10.666 7.545C11.341 8.001 11.312 8.714 10.606 9.122zM16.322 35.948H1.35C0.61 35.948 0.011 35.347 0.011 34.605V25.913C0.011 25.172 0.61 24.57 1.35 24.57H9.814L16.322 35.948zM62.65 35.948H49.643C51.173 33.069 52.591 30.359 53.591 28.443C54.283 27.118 54.83 26.07 55.024 25.72C55.227 25.347 55.371 24.963 55.468 24.57H62.651C63.391 24.57 63.991 25.172 63.991 25.913V34.605C63.988 35.346 63.389 35.948 62.65 35.948zM52.677 24.425C52.655 24.463 52.626 24.518 52.598 24.571C52.241 25.235 51.343 26.965 50.165 29.21C50.15 29.241 50.137 29.267 50.122 29.297C50.032 29.47 49.941 29.644 49.848 29.821C49.78 29.949 49.713 30.079 49.643 30.209C49.586 30.321 49.526 30.433 49.468 30.548C49.364 30.747 49.257 30.944 49.151 31.15C49.118 31.213 49.086 31.277 49.051 31.34C48.932 31.569 48.811 31.799 48.688 32.033C48.653 32.099 48.618 32.165 48.582 32.234C45.868 37.385 42.459 43.726 40.354 47.061C36.671 52.905 31.755 62.644 30.383 61.951C28.46 60.989 34.41 48.626 36.38 43.98C38.35 39.336 46.036 21.533 47.577 20.756C49.12 19.983 49.717 20.412 50.746 20.84C51.773 21.271 53.619 22.7 52.677 24.425zM56.504 10.133C55.927 9.578 54.553 8.37 56.215 6.026C57.872 3.677 61.577 3.573 62.065 2.014C62.064 2.014 63.229 13.939 56.504 10.133zM57.07 15.251L55.236 18.787C54.82 19.587 53.843 19.913 53.064 19.514L50.851 18.369C50.073 17.964 49.827 17.015 50.306 16.252L52.627 12.57C53.106 11.812 54.118 11.562 54.869 12.017L56.449 12.97C57.205 13.425 57.484 14.451 57.07 15.251z" />
    <glyph glyph-name="arrow_1"
      unicode="&#xF106;"
      horiz-adv-x="64" d=" M63.122 21.122L56.124 28.123C55.581 28.666 54.831 29.002 54.003 29.002C52.346 29.002 51.004 27.659 51.004 26.002C51.004 25.173 51.34 24.423 51.883 23.88L53.762 22.001H51.989V21.996H48.989L48.989 21.996H46.233L15.118 53.121C14.575 53.664 13.825 54 12.997 54H2.999C1.343 54 0 52.657 0 50.999C0 49.342 1.343 47.999 2.999 47.999H11.754L42.868 16.873C43.411 16.33 44.161 15.994 44.988 15.994H53.755L51.882 14.12C51.339 13.577 51.003 12.827 51.003 11.998C51.003 10.341 52.346 8.998 54.002 8.998C54.83 8.998 55.58 9.334 56.123 9.877L63.121 16.878C63.664 17.422 64 18.172 64 19C64 19.829 63.664 20.579 63.122 21.122z" />
    <glyph glyph-name="arrow_2"
      unicode="&#xF107;"
      horiz-adv-x="64" d=" M63.137 46.116L56.137 53.116C55.594 53.659 54.844 53.995 54.016 53.995C52.36 53.995 51.016 52.652 51.016 50.995C51.016 50.167 51.352 49.417 51.895 48.874L53.768 47H45C44.172 47 43.422 46.664 42.879 46.121L11.757 15H9L9 15H3C1.343 15 0 13.657 0 12S1.343 9 3 9H13C13.828 9 14.578 9.336 15.121 9.879L46.243 41H52V40.995H53.773L51.894 39.116C51.351 38.573 51.015 37.823 51.015 36.995C51.015 35.338 52.357 33.995 54.015 33.995C54.842 33.995 55.592 34.331 56.135 34.874L63.135 41.874C63.679 42.417 64.015 43.167 64.015 43.995S63.68 45.573 63.137 46.116z" />
    <glyph glyph-name="arrow_down"
      unicode="&#xF108;"
      horiz-adv-x="64" d=" M53 41C53 42.657 51.657 44 50 44C49.191 44 48.458 43.679 47.918 43.159L47.917 43.16L31.993 27.236L16.275 42.954C15.725 43.594 14.91 44 14 44C12.343 44 11 42.657 11 41C11 40.195 11.318 39.464 11.835 38.925L11.827 38.917L29.827 20.917L29.828 20.918C30.374 20.352 31.139 20 31.987 20C31.989 20 31.991 20 31.994 20C31.996 20 31.998 20 32.001 20C32.85 20 33.613 20.352 34.16 20.918L34.161 20.917L52.161 38.917L52.16 38.918C52.68 39.457 53 40.191 53 41z" />
    <glyph glyph-name="arrow_horizontal"
      unicode="&#xF109;"
      horiz-adv-x="64" d=" M64 32C64 32.885 63.616 33.681 63.007 34.23L63.007 34.23L53.007 43.23L53.007 43.23C52.475 43.708 51.771 44 51 44C49.343 44 48 42.657 48 41C48 40.115 48.383 39.319 48.993 38.77L48.993 38.77L53.182 35H10.818L15.007 38.77L15.007 38.77C15.617 39.319 16 40.115 16 41C16 42.657 14.657 44 13 44C12.228 44 11.525 43.708 10.993 43.23L10.993 43.23L0.993 34.23L0.993 34.23C0.384 33.681 0 32.885 0 32S0.383 30.32 0.993 29.77L0.993 29.77L10.993 20.77L10.993 20.77C11.525 20.291 12.228 20 13 20C14.657 20 16 21.343 16 23C16 23.885 15.617 24.68 15.007 25.23L15.007 25.23L10.818 29H53.182L48.994 25.23L48.994 25.23C48.384 24.68 48 23.885 48 23C48 21.343 49.343 20 51 20C51.771 20 52.475 20.292 53.007 20.77L53.007 20.77L63.007 29.77L63.007 29.77C63.617 30.318 64 31.115 64 32z" />
    <glyph glyph-name="arrow_left"
      unicode="&#xF10A;"
      horiz-adv-x="64" d=" M43.16 16.083L27.236 32.006L42.954 47.724C43.594 48.275 44 49.09 44 50C44 51.657 42.657 53 41 53C40.193 53 39.464 52.682 38.925 52.165L38.917 52.173L20.917 34.173L20.918 34.172C20.352 33.626 20 32.861 20 32.013C20 32.011 20 32.009 20 32.006C20 32.004 20 32.002 20 31.999C20 31.15 20.352 30.386 20.918 29.84L20.917 29.839L38.917 11.839L38.918 11.84C39.458 11.32 40.191 11 41 11C42.657 11 44 12.343 44 14C44 14.809 43.68 15.542 43.16 16.083L43.16 16.083z" />
    <glyph glyph-name="arrow_right"
      unicode="&#xF10B;"
      horiz-adv-x="64" d=" M44 32.006C44 32.008 44 32.011 44 32.013C44 32.861 43.648 33.626 43.082 34.172L43.083 34.173L25.083 52.173L25.075 52.165C24.536 52.682 23.806 53 23 53C21.343 53 20 51.657 20 50C20 49.09 20.406 48.275 21.046 47.725L36.764 32.007L20.84 16.083L20.841 16.082C20.321 15.542 20 14.809 20 14C20 12.343 21.343 11 23 11C23.809 11 24.542 11.32 25.082 11.841L25.083 11.84L43.083 29.84L43.082 29.841C43.648 30.387 44 31.152 44 32C44 32.002 44 32.004 44 32.006z" />
    <glyph glyph-name="arrow_up"
      unicode="&#xF10C;"
      horiz-adv-x="64" d=" M52.159 25.082L52.159 25.082L34.16 43.083L34.159 43.082C33.613 43.648 32.848 44 32 44C31.998 44 31.996 44 31.993 44S31.989 44 31.986 44C31.138 44 30.373 43.648 29.827 43.082L29.826 43.083L11.826 25.083L11.834 25.075C11.318 24.536 11 23.805 11 23C11 21.343 12.343 20 14 20C14.91 20 15.725 20.406 16.275 21.046L31.993 36.764L47.917 20.84L47.918 20.841C48.458 20.32 49.191 20 50 20C51.657 20 53 21.343 53 23C53 23.809 52.68 24.542 52.159 25.082z" />
    <glyph glyph-name="arrow_vertical"
      unicode="&#xF10D;"
      horiz-adv-x="64" d=" M41 16C40.115 16 39.318 15.616 38.77 15.007L38.77 15.007L35 10.818V53.182L38.77 48.993L38.77 48.993C39.318 48.384 40.115 48 41 48C42.657 48 44 49.343 44 51C44 51.772 43.708 52.475 43.23 53.007L43.23 53.007L34.23 63.007L34.23 63.007C33.682 63.616 32.885 64 32 64S30.319 63.616 29.77 63.007L29.77 63.007L20.77 53.007L20.77 53.007C20.292 52.475 20 51.772 20 51C20 49.343 21.343 48 23 48C23.885 48 24.681 48.384 25.23 48.993L25.23 48.993L29 53.182V10.818L25.23 15.006L25.23 15.006C24.681 15.616 23.885 16 23 16C21.343 16 20 14.657 20 13C20 12.229 20.292 11.525 20.77 10.993L20.77 10.993L29.77 0.993L29.77 0.993C30.319 0.383 31.115 0 32 0S33.682 0.383 34.23 0.993L34.23 0.993L43.23 10.993L43.23 10.993C43.708 11.525 44 12.229 44 13C44 14.657 42.657 16 41 16z" />
    <glyph glyph-name="arrows"
      unicode="&#xF10E;"
      horiz-adv-x="64" d=" M64 32C64 32.885 63.617 33.681 63.007 34.23L63.007 34.23L53.007 43.23L53.007 43.23C52.475 43.708 51.771 44 51 44C49.343 44 48 42.657 48 41C48 40.115 48.384 39.319 48.993 38.77L48.993 38.77L53.182 35H35V53.182L38.77 48.993L38.77 48.993C39.318 48.384 40.115 48 41 48C42.657 48 44 49.343 44 51C44 51.772 43.708 52.475 43.23 53.007L43.23 53.007L34.23 63.007L34.23 63.007C33.682 63.616 32.885 64 32 64S30.319 63.616 29.77 63.007L29.77 63.007L20.77 53.007L20.77 53.007C20.292 52.475 20 51.772 20 51C20 49.343 21.343 48 23 48C23.885 48 24.68 48.384 25.23 48.993L25.23 48.993L29 53.182V35H10.818L15.007 38.77L15.007 38.77C15.617 39.319 16 40.115 16 41C16 42.657 14.657 44 13 44C12.228 44 11.525 43.708 10.993 43.23L10.993 43.23L0.993 34.23L0.993 34.23C0.384 33.681 0 32.885 0 32S0.384 30.32 0.993 29.77L0.993 29.77L10.993 20.77L10.993 20.77C11.525 20.291 12.228 20 13 20C14.657 20 16 21.343 16 23C16 23.885 15.616 24.68 15.007 25.23L15.007 25.23L10.818 29H29V10.818L25.23 15.006L25.23 15.006C24.681 15.616 23.885 16 23 16C21.343 16 20 14.657 20 13C20 12.229 20.292 11.525 20.77 10.993L20.77 10.993L29.77 0.993L29.77 0.993C30.319 0.383 31.115 0 32 0S33.682 0.383 34.23 0.993L34.23 0.993L43.23 10.993L43.23 10.993C43.708 11.525 44 12.229 44 13C44 14.657 42.657 16 41 16C40.115 16 39.318 15.616 38.77 15.007L38.77 15.007L35 10.818V29H53.182L48.994 25.23L48.994 25.23C48.384 24.68 48 23.885 48 23C48 21.343 49.343 20 51 20C51.771 20 52.475 20.292 53.007 20.77L53.007 20.77L63.007 29.77L63.007 29.77C63.617 30.318 64 31.115 64 32z" />
    <glyph glyph-name="arrows_horizontal"
      unicode="&#xF10F;"
      horiz-adv-x="64" d=" M3 42H35L35 42H53.182L48.994 38.23L49 38.221C48.391 37.672 48 36.885 48 35.999C48 34.342 49.343 32.999 51 32.999C51.771 32.999 52.468 33.298 53 33.777L53.007 33.769L63.007 42.769L63 42.778C63.609 43.327 64 44.115 64 45S63.609 46.673 63 47.222L63.007 47.23L53.007 56.23L53 56.222C52.468 56.7 51.771 57 51 57C49.343 57 48 55.657 48 54C48 53.115 48.391 52.327 49 51.778L48.993 51.77L53.182 48H39L39 48H26L26 48H10.818L10.818 48H3C1.343 48 0 46.657 0 45S1.343 42 3 42zM61 22H53.182L53.182 22H38L38 22H25L25 22H10.818L15.007 25.77L15 25.777C15.61 26.327 16 27.114 16 28C16 29.657 14.657 31 13 31C12.228 31 11.532 30.7 11 30.223L10.993 30.231L0.993 21.231L1 21.223C0.391 20.672 0 19.885 0 19S0.391 17.328 1 16.777L0.993 16.77L10.993 7.77L11 7.777C11.532 7.299 12.229 7 13 7C14.657 7 16 8.343 16 10C16 10.885 15.609 11.673 15 12.223L15.007 12.231L10.818 16H35L35 16H61C62.657 16 64 17.343 64 19S62.657 22 61 22z" />
    <glyph glyph-name="arrows_vertical"
      unicode="&#xF110;"
      horiz-adv-x="64" d=" M57 13C57 14.657 55.657 16 54 16C53.115 16 52.327 15.609 51.777 15L51.769 15.007L48 10.818V35L48 35V61C48 62.657 46.657 64 45 64S42 62.657 42 61V53.182L42 53.182V38L42 38V25L42 25V10.818L38.23 15.006L38.223 15C37.673 15.609 36.885 16 36 16C34.343 16 33 14.657 33 13C33 12.229 33.3 11.532 33.777 11L33.769 10.993L42.769 0.993L42.777 1C43.327 0.391 44.115 0 45 0S46.672 0.391 47.223 1L47.231 0.993L56.231 10.993L56.223 11C56.701 11.532 57 12.229 57 13zM30.23 53.007L21.23 63.007L21.222 63C20.673 63.609 19.885 64 19 64S17.327 63.609 16.778 62.999L16.77 63.007L7.77 53.007L7.778 53C7.3 52.468 7 51.772 7 51C7 49.343 8.343 48 10 48C10.885 48 11.673 48.391 12.222 49L12.23 48.993L16 53.182V39L16 39V26L16 26V10.818L16 10.818V3C16 1.343 17.343 0 19 0S22 1.343 22 3V35L22 35V53.182L25.77 48.993L25.778 49C26.327 48.39 27.115 48 28 48C29.657 48 31 49.343 31 51C31 51.772 30.701 52.468 30.222 53L30.23 53.007z" />
    <glyph glyph-name="bar_chart_1"
      unicode="&#xF111;"
      horiz-adv-x="64" d=" M29 14H35C36.657 14 38 15.343 38 17V42C38 43.657 36.657 45 35 45H29C27.343 45 26 43.657 26 42V17C26 15.343 27.343 14 29 14zM46 14H52C53.657 14 55 15.343 55 17V56C55 57.657 53.657 59 52 59H46C44.343 59 43 57.657 43 56V17C43 15.343 44.343 14 46 14zM12 14H18C19.657 14 21 15.343 21 17V28C21 29.657 19.657 31 18 31H12C10.343 31 9 29.657 9 28V17C9 15.343 10.343 14 12 14zM61.5 11H2.5C1.119 11 0 9.88 0 8.5V7.5C0 6.119 1.119 5 2.5 5H61.5C62.881 5 64 6.119 64 7.5V8.5C64 9.88 62.881 11 61.5 11z" />
    <glyph glyph-name="bar_chart_2"
      unicode="&#xF112;"
      horiz-adv-x="64" d=" M61.5 11H2.5C1.119 11 0 9.88 0 8.5V7.5C0 6.119 1.119 5 2.5 5H61.5C62.881 5 64 6.119 64 7.5V8.5C64 9.88 62.881 11 61.5 11zM46 14H52C53.657 14 55 15.343 55 17V44C55 45.657 53.657 47 52 47H46C44.343 47 43 45.657 43 44V17C43 15.343 44.343 14 46 14zM29 14H35C36.657 14 38 15.343 38 17V56C38 57.657 36.657 59 35 59H29C27.343 59 26 57.657 26 56V17C26 15.343 27.343 14 29 14zM12 14H18C19.657 14 21 15.343 21 17V29C21 30.656 19.657 32 18 32H12C10.343 32 9 30.656 9 29V17C9 15.343 10.343 14 12 14z" />
    <glyph glyph-name="bar_chart_3"
      unicode="&#xF113;"
      horiz-adv-x="64" d=" M29 14H35C36.657 14 38 15.343 38 17V42C38 43.657 36.657 45 35 45H29C27.343 45 26 43.657 26 42V17C26 15.343 27.343 14 29 14zM46 14H52C53.657 14 55 15.343 55 17V28C55 29.657 53.657 31 52 31H46C44.343 31 43 29.657 43 28V17C43 15.343 44.343 14 46 14zM61.5 11H2.5C1.119 11 0 9.88 0 8.5V7.5C0 6.119 1.119 5 2.5 5H61.5C62.881 5 64 6.119 64 7.5V8.5C64 9.88 62.881 11 61.5 11zM12 14H18C19.657 14 21 15.343 21 17V56C21 57.657 19.657 59 18 59H12C10.343 59 9 57.657 9 56V17C9 15.343 10.343 14 12 14z" />
    <glyph glyph-name="bar_graph"
      unicode="&#xF114;"
      horiz-adv-x="64" d=" M48 14H54C55.657 14 57 15.343 57 17V38C57 39.657 55.657 41 54 41H48C46.343 41 45 39.657 45 38V17C45 15.343 46.343 14 48 14zM31 14H37C38.657 14 40 15.343 40 17V50C40 51.657 38.657 53 37 53H31C29.343 53 28 51.657 28 50V17C28 15.343 29.343 14 31 14zM61 11H6V18L6 18V56C6 57.657 4.657 59 3 59S0 57.657 0 56V8C0 6.343 1.343 5 3 5H61C62.657 5 64 6.343 64 8C64 9.656 62.657 11 61 11zM14 14H20C21.657 14 23 15.343 23 17V23C23 24.657 21.657 26 20 26H14C12.343 26 11 24.657 11 23V17C11 15.343 12.343 14 14 14z" />
    <glyph glyph-name="basket"
      unicode="&#xF115;"
      horiz-adv-x="64" d=" M64 36.013C64 36.019 63.999 36.025 63.999 36.032C63.998 36.106 63.994 36.18 63.988 36.253C63.984 36.295 63.98 36.337 63.974 36.378C63.97 36.418 63.963 36.458 63.957 36.498C63.737 37.84 62.63 38.884 61.254 39H3C1.343 39 0 37.657 0 36S1.343 33 3 33H5.658L12.09 7.271L12.099 7.273C12.424 5.971 13.595 5 15 5L15 5C15.005 5 15.01 5.001 15.016 5.001V5H49C50.404 5 51.576 5.971 51.9 7.275L51.91 7.273L58.342 33H61C62.657 33 64 34.343 64 36C64 36.002 64 36.003 64 36.005C64 36.008 64 36.01 64 36.013zM23 14C23 12.343 21.657 11 20 11S17 12.343 17 14V30C17 31.657 18.343 33 20 33S23 31.657 23 30V14zM35 14C35 12.343 33.657 11 32 11S29 12.343 29 14V30C29 31.657 30.343 33 32 33S35 31.657 35 30V14zM47 14C47 12.343 45.657 11 44 11S41 12.343 41 14V30C41 31.657 42.343 33 44 33S47 31.657 47 30V14zM35.383 54.531L42.018 42H48.807L40.686 57.338L40.675 57.332C40.184 58.317 39.176 59 38 59C36.343 59 35 57.657 35 56C35 55.466 35.15 54.972 35.396 54.538L35.383 54.531zM28.623 54.531L28.606 54.54C28.849 54.974 29 55.467 29 56C29 57.657 27.657 59 26 59C24.825 59 23.819 58.318 23.326 57.335L23.32 57.338L15.2 42H21.989L28.623 54.531z" />
    <glyph glyph-name="basket_add"
      unicode="&#xF116;"
      horiz-adv-x="64" d=" M28.623 54.531L28.606 54.54C28.849 54.974 29 55.467 29 56C29 57.657 27.657 59 26 59C24.825 59 23.819 58.318 23.326 57.335L23.32 57.338L15.2 42H21.989L28.623 54.531zM35.383 54.531L38.712 48.242C40.025 49.816 41.634 51.132 43.454 52.108L40.685 57.338L40.673 57.332C40.184 58.317 39.176 59 38 59C36.343 59 35 57.657 35 56C35 55.466 35.15 54.972 35.396 54.538L35.383 54.531zM51 51C43.82 51 38 45.18 38 38C38 30.82 43.82 25 51 25S64 30.82 64 38C64 45.18 58.18 51 51 51zM57 35H54V32C54 30.343 52.657 29 51 29S48 30.343 48 32V35H45C43.343 35 42 36.343 42 38S43.343 41 45 41H48V44C48 45.657 49.343 47 51 47S54 45.657 54 44V41H57C58.657 41 60 39.657 60 38S58.657 35 57 35zM47 22.523V14C47 12.343 45.657 11 44 11S41 12.343 41 14V25.521C37.346 28.453 35 32.95 35 38C35 38.338 35.029 38.668 35.051 39H3C1.343 39 0 37.657 0 36S1.343 33 3 33H5.658L12.09 7.271L12.099 7.273C12.424 5.971 13.595 5 15 5L15 5C15.005 5 15.01 5.001 15.016 5.001V5H49C50.404 5 51.576 5.971 51.9 7.275L51.91 7.273L55.773 22.726C54.266 22.254 52.663 22 51 22C49.616 22 48.281 22.193 47 22.523zM23 14C23 12.343 21.657 11 20 11S17 12.343 17 14V30C17 31.657 18.343 33 20 33S23 31.657 23 30V14zM35 14C35 12.343 33.657 11 32 11S29 12.343 29 14V30C29 31.657 30.343 33 32 33S35 31.657 35 30V14z" />
    <glyph glyph-name="basket_delete"
      unicode="&#xF117;"
      horiz-adv-x="64" d=" M28.623 54.531L28.606 54.54C28.849 54.974 29 55.467 29 56C29 57.657 27.657 59 26 59C24.825 59 23.819 58.318 23.326 57.335L23.32 57.338L15.2 42H21.989L28.623 54.531zM35.383 54.531L38.712 48.242C40.025 49.816 41.634 51.132 43.454 52.108L40.685 57.338L40.673 57.332C40.184 58.317 39.176 59 38 59C36.343 59 35 57.657 35 56C35 55.466 35.15 54.972 35.396 54.538L35.383 54.531zM47 22.523V14C47 12.343 45.657 11 44 11S41 12.343 41 14V25.521C37.346 28.453 35 32.95 35 38C35 38.338 35.029 38.668 35.05 39H3C1.343 39 0 37.657 0 36S1.343 33 3 33H5.658L12.09 7.271L12.099 7.273C12.424 5.971 13.595 5 15 5L15 5C15.005 5 15.01 5.001 15.016 5.001V5H49C50.404 5 51.576 5.971 51.9 7.275L51.91 7.273L55.773 22.726C54.266 22.254 52.663 22 51 22C49.616 22 48.281 22.193 47 22.523zM23 14C23 12.343 21.657 11 20 11S17 12.343 17 14V30C17 31.657 18.343 33 20 33S23 31.657 23 30V14zM35 14C35 12.343 33.657 11 32 11S29 12.343 29 14V30C29 31.657 30.343 33 32 33S35 31.657 35 30V14zM51 51C43.82 51 38 45.18 38 38C38 30.82 43.82 25 51 25S64 30.82 64 38C64 45.18 58.18 51 51 51zM57.121 36.121C57.664 35.578 58 34.828 58 34C58 32.343 56.657 31 55 31C54.172 31 53.422 31.336 52.879 31.879L51 33.757L49.121 31.878C48.578 31.336 47.828 31 47 31C45.343 31 44 32.343 44 34C44 34.829 44.336 35.578 44.879 36.121L46.757 38L44.878 39.879C44.336 40.422 44 41.172 44 42C44 43.657 45.343 45 47 45C47.828 45 48.578 44.664 49.121 44.121L51 42.243L52.879 44.122C53.422 44.664 54.172 45 55 45C56.657 45 58 43.657 58 42C58 41.172 57.664 40.422 57.121 39.879L55.243 38L57.121 36.121z" />
    <glyph glyph-name="basket_ok"
      unicode="&#xF118;"
      horiz-adv-x="64" d=" M35.383 54.531L38.712 48.242C40.025 49.816 41.634 51.132 43.454 52.108L40.685 57.338L40.673 57.332C40.184 58.317 39.176 59 38 59C36.343 59 35 57.657 35 56C35 55.466 35.15 54.972 35.396 54.538L35.383 54.531zM28.623 54.531L28.606 54.54C28.849 54.974 29 55.467 29 56C29 57.657 27.657 59 26 59C24.825 59 23.819 58.318 23.326 57.335L23.32 57.338L15.2 42H21.989L28.623 54.531zM47 22.523V14C47 12.343 45.657 11 44 11S41 12.343 41 14V25.521C37.346 28.453 35 32.95 35 38C35 38.338 35.029 38.668 35.05 39H3C1.343 39 0 37.657 0 36S1.343 33 3 33H5.658L12.09 7.271L12.099 7.273C12.424 5.971 13.595 5 15 5L15 5C15.005 5 15.01 5.001 15.016 5.001V5H49C50.404 5 51.576 5.971 51.9 7.275L51.91 7.273L55.773 22.726C54.266 22.254 52.663 22 51 22C49.616 22 48.281 22.193 47 22.523zM23 14C23 12.343 21.657 11 20 11S17 12.343 17 14V30C17 31.657 18.343 33 20 33S23 31.657 23 30V14zM35 14C35 12.343 33.657 11 32 11S29 12.343 29 14V30C29 31.657 30.343 33 32 33S35 31.657 35 30V14zM51 51C43.82 51 38 45.18 38 38C38 30.82 43.82 25 51 25S64 30.82 64 38C64 45.18 58.18 51 51 51zM59.121 38.878L51.121 30.878C50.578 30.336 49.829 30 49 30C48.172 30 47.422 30.336 46.879 30.879L42.879 34.879C42.336 35.421 42 36.172 42 37C42 38.657 43.343 40 45 40C45.828 40 46.578 39.664 47.121 39.121L49 37.242L54.879 43.121C55.422 43.664 56.172 44 57 44C58.657 44 60 42.657 60 41C60 40.172 59.664 39.421 59.121 38.878z" />
    <glyph glyph-name="basket_remove"
      unicode="&#xF119;"
      horiz-adv-x="64" d=" M28.623 54.531L28.606 54.54C28.849 54.974 29 55.467 29 56C29 57.657 27.657 59 26 59C24.825 59 23.819 58.318 23.327 57.335L23.32 57.338L15.2 42H21.989L28.623 54.531zM35.383 54.531L38.712 48.242C40.025 49.816 41.634 51.132 43.454 52.108L40.685 57.338L40.673 57.332C40.184 58.317 39.176 59 38 59C36.343 59 35 57.657 35 56C35 55.466 35.15 54.972 35.396 54.538L35.383 54.531zM47 22.523V14C47 12.343 45.657 11 44 11S41 12.343 41 14V25.521C37.346 28.453 35 32.95 35 38C35 38.338 35.029 38.668 35.05 39H3C1.343 39 0 37.657 0 36S1.343 33 3 33H5.658L12.09 7.271L12.099 7.273C12.424 5.971 13.595 5 15 5L15 5C15.005 5 15.01 5.001 15.016 5.001V5H49C50.404 5 51.576 5.971 51.9 7.275L51.91 7.273L55.773 22.726C54.266 22.254 52.663 22 51 22C49.616 22 48.281 22.193 47 22.523zM23 14C23 12.343 21.657 11 20 11S17 12.343 17 14V30C17 31.657 18.343 33 20 33S23 31.657 23 30V14zM35 14C35 12.343 33.657 11 32 11S29 12.343 29 14V30C29 31.657 30.343 33 32 33S35 31.657 35 30V14zM51 51C43.82 51 38 45.18 38 38C38 30.82 43.82 25 51 25S64 30.82 64 38C64 45.18 58.18 51 51 51zM57 35H45C43.343 35 42 36.343 42 38S43.343 41 45 41H57C58.657 41 60 39.657 60 38S58.657 35 57 35z" />
    <glyph glyph-name="battery_1_3"
      unicode="&#xF11A;"
      horiz-adv-x="64" d=" M22 38H9V26H22V38zM61 38V44C61 45.657 59.657 47 58 47H3C1.343 47 0 45.657 0 44V20C0 18.343 1.343 17 3 17H58C59.657 17 61 18.343 61 20V26C62.657 26 64 27.343 64 29V35C64 36.657 62.657 38 61 38zM55 23H6V41H55V23z" />
    <glyph glyph-name="battery_2_3"
      unicode="&#xF11B;"
      horiz-adv-x="64" d=" M37 38H9V26H37V38zM61 38V44C61 45.657 59.657 47 58 47H3C1.343 47 0 45.657 0 44V20C0 18.343 1.343 17 3 17H58C59.657 17 61 18.343 61 20V26C62.657 26 64 27.343 64 29V35C64 36.657 62.657 38 61 38zM55 23H6V41H55V23z" />
    <glyph glyph-name="battery_empty"
      unicode="&#xF11C;"
      horiz-adv-x="64" d=" M61 38V44C61 45.657 59.657 47 58 47H3C1.343 47 0 45.657 0 44V20C0 18.343 1.343 17 3 17H58C59.657 17 61 18.343 61 20V26C62.657 26 64 27.343 64 29V35C64 36.657 62.657 38 61 38zM55 23H6V41H55V23z" />
    <glyph glyph-name="battery_full"
      unicode="&#xF11D;"
      horiz-adv-x="64" d=" M61 38V44C61 45.657 59.657 47 58 47H3C1.343 47 0 45.657 0 44V20C0 18.343 1.343 17 3 17H58C59.657 17 61 18.343 61 20V26C62.657 26 64 27.343 64 29V35C64 36.657 62.657 38 61 38zM55 23H6V41H55V23zM52 38H9V26H52V38z" />
    <glyph glyph-name="behance"
      unicode="&#xF11E;"
      horiz-adv-x="64" d=" M25.989 33.498C29.444 35.178 31.391 37.915 31.391 41.836C31.391 49.274 26.271 51.986 18.705 51.986H0.001V11.794H19.256C26.435 11.794 33.283 15.266 33.283 23.378C33.284 28.354 30.836 32.099 25.989 33.498zM7.991 45.226H16.171C19.286 45.226 22.181 44.44 22.181 40.635C22.181 37.283 19.898 35.886 16.838 35.886H7.991V45.226zM17.338 18.938H7.991V29.902H17.504C21.234 29.902 23.792 28.277 23.792 24.195C23.792 20.053 20.789 18.938 17.338 18.938zM57.973 48.007H42.027V43.935H57.97V48.007H57.973zM50.05 41.498C41.315 41.498 35.358 34.897 35.358 26.225C35.358 17.278 40.979 11.014 50.05 11.014C56.565 11.014 60.67 12.979 62.893 19.803H56.565C56.063 18.01 53.501 16.997 50.327 16.997C45.932 16.997 43.483 18.851 43.263 23.889H64.019C64.574 32.781 59.843 41.498 50.05 41.498zM43.262 29.802C43.371 32.036 44.819 35.511 49.825 35.511C53.664 35.511 55.392 33.827 56.118 29.802H43.262z" />
    <glyph glyph-name="bell"
      unicode="&#xF11F;"
      horiz-adv-x="64" d=" M52 19C50.343 19 49 20.343 49 22V42C49 49.732 42.732 56 35 56C35 57.657 33.657 59 32 59S29 57.657 29 56C21.268 56 15 49.732 15 42V22C15 20.343 13.657 19 12 19S9 17.657 9 16S10.343 13 12 13H52C53.657 13 55 14.343 55 16S53.657 19 52 19zM32 4C35.314 4 38 6.686 38 10H26C26 6.686 28.686 4 32 4z" />
    <glyph glyph-name="bin"
      unicode="&#xF120;"
      horiz-adv-x="64" d=" M53 55H38V58C38 59.657 36.657 61 35 61H29C27.343 61 26 59.657 26 58V55H11C9.343 55 8 53.657 8 52V49H56V52C56 53.657 54.657 55 53 55zM11 6C11 4.343 12.343 3 14 3H50C51.657 3 53 4.343 53 6V46H11V6zM41 37C41 38.657 42.343 40 44 40S47 38.657 47 37V12C47 10.343 45.657 9 44 9S41 10.343 41 12V37zM29 37C29 38.657 30.343 40 32 40S35 38.657 35 37V12C35 10.343 33.657 9 32 9S29 10.343 29 12V37zM17 37C17 38.657 18.343 40 20 40S23 38.657 23 37V12C23 10.343 21.657 9 20 9S17 10.343 17 12V37z" />
    <glyph glyph-name="block"
      unicode="&#xF121;"
      horiz-adv-x="64" d=" M32 64C14.327 64 0 49.673 0 32S14.327 0 32 0S64 14.327 64 32S49.673 64 32 64zM32 6C17.641 6 6 17.641 6 32C6 38.098 8.115 43.694 11.63 48.128L48.128 11.63C43.693 8.114 38.098 6 32 6zM52.37 15.872L15.873 52.37C20.307 55.885 25.902 58 32 58C46.359 58 58 46.359 58 32C58 25.902 55.887 20.307 52.37 15.872z" />
    <glyph glyph-name="bluetooth"
      unicode="&#xF122;"
      horiz-adv-x="64" d=" M37.243 32L49.122 43.879C49.664 44.422 50 45.171 50 46C50 46.829 49.664 47.578 49.121 48.121L34.121 63.121C33.578 63.664 32.828 64 32 64C30.343 64 29 62.657 29 61V40.242L19.121 50.121C18.579 50.664 17.828 51 17 51C15.343 51 14 49.657 14 48C14 47.171 14.336 46.422 14.879 45.879L28.758 32L14.879 18.121C14.336 17.578 14 16.828 14 16C14 14.343 15.343 13 17 13C17.828 13 18.578 13.336 19.121 13.879L29 23.757V3C29 1.343 30.343 0 32 0C32.828 0 33.578 0.336 34.121 0.879L49.121 15.879C49.664 16.421 50 17.171 50 18C50 18.828 49.664 19.578 49.121 20.121L37.243 32zM35 53.757L42.757 46L35 38.243V53.757zM35 10.243V25.757L42.757 18L35 10.243z" />
    <glyph glyph-name="book"
      unicode="&#xF123;"
      horiz-adv-x="64" d=" M10 46H18C19.657 46 21 47.343 21 49S19.657 52 18 52H10C8.343 52 7 50.657 7 49S8.343 46 10 46zM10 29H18C19.657 29 21 30.343 21 32S19.657 35 18 35H10C8.343 35 7 33.657 7 32S8.343 29 10 29zM54 61H51V3H54C55.657 3 57 4.343 57 6V58C57 59.657 55.657 61 54 61zM13 58V55H18C21.314 55 24 52.314 24 49S21.314 43 18 43H13V38H18C21.314 38 24 35.314 24 32C24 28.686 21.314 26 18 26H13V21H18C21.314 21 24 18.314 24 15S21.314 9 18 9H13V6C13 4.343 14.343 3 16 3H48V61H16C14.343 61 13 59.657 13 58zM21 15C21 16.657 19.657 18 18 18H10C8.343 18 7 16.657 7 15S8.343 12 10 12H18C19.657 12 21 13.343 21 15z" />
    <glyph glyph-name="book_1"
      unicode="&#xF124;"
      horiz-adv-x="64" d=" M61 64C60.594 64 60.206 63.918 59.854 63.772L59.854 63.772L59.848 63.77C59.839 63.766 59.83 63.763 59.821 63.759L32 52.247L4.179 63.759C4.17 63.763 4.161 63.766 4.152 63.77L4.147 63.772L4.147 63.772C3.794 63.918 3.406 64 3 64C1.343 64 0 62.657 0 61V15C0 13.743 0.774 12.667 1.871 12.221L30.813 0.244C31.177 0.087 31.578 0 32 0S32.823 0.087 33.188 0.245L62.129 12.221C63.227 12.667 64 13.743 64 15V61C64 62.657 62.657 64 61 64zM29 7.488L6 17.005V56.512L29 46.995V7.488zM58 17.005L35 7.488V46.995L58 56.512V17.005z" />
    <glyph glyph-name="book_2"
      unicode="&#xF125;"
      horiz-adv-x="64" d=" M10.759 31.27L10.759 31.27L21.759 26.27L21.759 26.27C22.137 26.098 22.557 26 23 26C24.657 26 26 27.343 26 29C26 30.214 25.279 31.259 24.241 31.731L24.241 31.731L13.241 36.731L13.241 36.731C12.863 36.903 12.443 37 12 37C10.343 37 9 35.657 9 34C9 32.786 9.721 31.741 10.759 31.27zM10.759 20.27L10.759 20.27L21.759 15.27L21.759 15.27C22.137 15.098 22.557 15 23 15C24.657 15 26 16.343 26 18C26 19.214 25.279 20.259 24.241 20.73L24.241 20.73L13.241 25.73L13.241 25.73C12.863 25.902 12.443 26 12 26C10.343 26 9 24.657 9 23C9 21.786 9.721 20.741 10.759 20.27zM10.759 42.269L10.759 42.269L21.759 37.269L21.759 37.269C22.137 37.097 22.557 37 23 37C24.657 37 26 38.343 26 40C26 41.214 25.279 42.259 24.241 42.731L24.241 42.731L13.241 47.731L13.241 47.731C12.863 47.903 12.443 48 12 48C10.343 48 9 46.657 9 45C9 43.786 9.721 42.741 10.759 42.269zM41 15C41.443 15 41.863 15.098 42.241 15.27L42.241 15.27L53.241 20.27L53.241 20.27C54.279 20.741 55 21.786 55 23C55 24.657 53.657 26 52 26C51.557 26 51.137 25.902 50.759 25.73L50.759 25.73L39.759 20.73L39.759 20.73C38.721 20.259 38 19.214 38 18C38 16.343 39.343 15 41 15zM61 64C60.594 64 60.206 63.918 59.854 63.772L59.854 63.772L59.848 63.77C59.839 63.766 59.83 63.763 59.821 63.759L32 52.247L4.179 63.759C4.17 63.763 4.161 63.766 4.152 63.77L4.147 63.772L4.147 63.772C3.794 63.918 3.406 64 3 64C1.343 64 0 62.657 0 61V15C0 13.743 0.774 12.667 1.871 12.221L30.813 0.244C31.177 0.087 31.578 0 32 0S32.823 0.087 33.188 0.245L62.129 12.221C63.227 12.667 64 13.743 64 15V61C64 62.657 62.657 64 61 64zM29 7.488L6 17.005V56.512L29 46.995V7.488zM58 17.005L35 7.488V46.995L58 56.512V17.005zM41 26C41.443 26 41.863 26.098 42.241 26.27L42.241 26.27L53.241 31.27C54.279 31.741 55 32.786 55 34C55 35.657 53.657 37 52 37C51.557 37 51.137 36.903 50.759 36.731L50.759 36.731L39.759 31.731L39.759 31.731C38.721 31.259 38 30.214 38 29C38 27.343 39.343 26 41 26zM41 37C41.443 37 41.863 37.097 42.241 37.269L42.241 37.269L53.241 42.269L53.241 42.269C54.279 42.741 55 43.786 55 45C55 46.657 53.657 48 52 48C51.557 48 51.137 47.903 50.759 47.731L50.759 47.731L39.759 42.731C38.721 42.259 38 41.214 38 40C38 38.343 39.343 37 41 37z" />
    <glyph glyph-name="bookmark"
      unicode="&#xF126;"
      horiz-adv-x="64" d=" M41 59H23C21.343 59 20 57.657 20 56V5L32 17L44 5V56C44 57.657 42.657 59 41 59z" />
    <glyph glyph-name="brightness_high"
      unicode="&#xF127;"
      horiz-adv-x="64" d=" M14.879 44.879L14.888 44.888C15.427 44.341 16.17 44 17 44C18.657 44 20 45.343 20 47C20 47.83 19.659 48.573 19.113 49.113L19.122 49.122L17.566 50.678L12.121 56.123C11.578 56.664 10.828 57 10 57C8.343 57 7 55.657 7 54C7 53.172 7.336 52.422 7.879 51.879L14.879 44.879zM47 44C47.83 44 48.573 44.342 49.113 44.888L49.122 44.879L50.677 46.435L56.121 51.879C56.664 52.422 57 53.172 57 54C57 55.657 55.657 57 54 57C53.172 57 52.422 56.664 51.879 56.121L46.436 50.676L44.879 49.12L44.889 49.111C44.342 48.573 44 47.83 44 47C44 45.343 45.343 44 47 44zM32 50C33.657 50 35 51.343 35 53V61C35 62.657 33.657 64 32 64S29 62.657 29 61V53C29 51.343 30.343 50 32 50zM14 32C14 33.657 12.657 35 11 35H3C1.343 35 0 33.657 0 32S1.343 29 3 29H11C12.657 29 14 30.343 14 32zM50.677 17.566L49.122 19.122C48.578 19.664 47.828 20 47 20C45.343 20 44 18.657 44 17C44 16.172 44.336 15.422 44.879 14.879L46.436 13.323L51.879 7.879C52.422 7.336 53.172 7 54 7C55.657 7 57 8.343 57 10C57 10.828 56.664 11.578 56.121 12.121L50.677 17.566zM17 20C16.172 20 15.422 19.664 14.879 19.121L7.879 12.121C7.336 11.578 7 10.828 7 10C7 8.343 8.343 7 10 7C10.828 7 11.578 7.336 12.121 7.879L17.566 13.323L19.122 14.879C19.664 15.421 20 16.172 20 17C20 18.657 18.657 20 17 20zM61 35H53C51.343 35 50 33.657 50 32S51.343 29 53 29H61C62.657 29 64 30.343 64 32S62.657 35 61 35zM32 44C25.373 44 20 38.627 20 32C20 30.979 20.141 29.993 20.381 29.047L21.564 26.089C23.627 22.456 27.524 20 32 20C38.627 20 44 25.372 44 32C44 38.627 38.627 44 32 44zM32 26C28.686 26 26 28.686 26 32C26 35.314 28.686 38 32 38C35.314 38 38 35.314 38 32C38 28.686 35.314 26 32 26zM32 14C30.343 14 29 12.657 29 11V3C29 1.343 30.343 0 32 0S35 1.343 35 3V11C35 12.657 33.657 14 32 14z" />
    <glyph glyph-name="brightness_low"
      unicode="&#xF128;"
      horiz-adv-x="64" d=" M12.879 46.878L14.879 44.878L14.888 44.887C15.427 44.341 16.17 44 17 44C18.657 44 20 45.343 20 47C20 47.83 19.659 48.573 19.112 49.113L19.121 49.122L17.121 51.122L17.112 51.113C16.573 51.659 15.83 52 15 52C13.343 52 12 50.657 12 49C12 48.17 12.341 47.427 12.888 46.888L12.879 46.878zM47 44C47.83 44 48.573 44.342 49.113 44.888L49.122 44.879L51.122 46.879L51.113 46.888C51.659 47.427 52 48.17 52 49C52 50.657 50.657 52 49 52C48.17 52 47.427 51.659 46.887 51.112L46.878 51.121L44.878 49.121L44.887 49.112C44.342 48.573 44 47.83 44 47C44 45.343 45.343 44 47 44zM14 32C14 33.657 12.657 35 11 35H9C7.343 35 6 33.657 6 32S7.343 29 9 29H11C12.657 29 14 30.343 14 32zM32 50C33.657 50 35 51.343 35 53V55C35 56.657 33.657 58 32 58S29 56.657 29 55V53C29 51.343 30.343 50 32 50zM32 44C25.373 44 20 38.627 20 32C20 30.979 20.141 29.993 20.381 29.047L21.564 26.089C23.627 22.456 27.524 20 32 20C38.627 20 44 25.372 44 32C44 38.627 38.627 44 32 44zM32 26C28.686 26 26 28.686 26 32C26 35.314 28.686 38 32 38C35.314 38 38 35.314 38 32C38 28.686 35.314 26 32 26zM49.121 19.121C48.578 19.664 47.828 20 47 20C45.343 20 44 18.657 44 17C44 16.172 44.336 15.422 44.879 14.879L46.879 12.879C47.422 12.336 48.172 12 49 12C50.657 12 52 13.343 52 15C52 15.828 51.664 16.578 51.121 17.121L49.121 19.121zM17 20C16.172 20 15.422 19.664 14.879 19.121L12.879 17.121C12.336 16.578 12 15.828 12 15C12 13.343 13.343 12 15 12C15.828 12 16.579 12.336 17.121 12.879L19.121 14.879C19.664 15.421 20 16.172 20 17C20 18.657 18.657 20 17 20zM55 35H53C51.343 35 50 33.657 50 32S51.343 29 53 29H55C56.657 29 58 30.343 58 32S56.657 35 55 35zM32 14C30.343 14 29 12.657 29 11V9C29 7.343 30.343 6 32 6S35 7.343 35 9V11C35 12.657 33.657 14 32 14z" />
    <glyph glyph-name="browser"
      unicode="&#xF129;"
      horiz-adv-x="64" d=" M61 60H3C1.343 60 0 58.657 0 57V7C0 5.343 1.343 4 3 4H61C62.657 4 64 5.343 64 7V57C64 58.657 62.657 60 61 60zM24 57C25.657 57 27 55.657 27 54S25.657 51 24 51S21 52.343 21 54S22.343 57 24 57zM15 57C16.657 57 18 55.657 18 54S16.657 51 15 51S12 52.343 12 54S13.343 57 15 57zM6 57C7.657 57 9 55.657 9 54S7.657 51 6 51S3 52.343 3 54S4.343 57 6 57zM61 7H3V48H61V7z" />
    <glyph glyph-name="browser_add"
      unicode="&#xF12A;"
      horiz-adv-x="64" d=" M61 60H3C1.343 60 0 58.657 0 57V7C0 5.343 1.343 4 3 4H61C62.657 4 64 5.343 64 7V57C64 58.657 62.657 60 61 60zM24 57C25.657 57 27 55.657 27 54S25.657 51 24 51S21 52.343 21 54S22.343 57 24 57zM15 57C16.657 57 18 55.657 18 54S16.657 51 15 51S12 52.343 12 54S13.343 57 15 57zM6 57C7.657 57 9 55.657 9 54S7.657 51 6 51S3 52.343 3 54S4.343 57 6 57zM61 7H3V48H61V7zM22 24H29V17C29 15.343 30.343 14 32 14S35 15.343 35 17V24H42C43.657 24 45 25.343 45 27S43.657 30 42 30H35V37C35 38.657 33.657 40 32 40S29 38.657 29 37V30H22C20.343 30 19 28.657 19 27S20.343 24 22 24z" />
    <glyph glyph-name="browser_delete"
      unicode="&#xF12B;"
      horiz-adv-x="64" d=" M61 60H3C1.343 60 0 58.657 0 57V7C0 5.343 1.343 4 3 4H61C62.657 4 64 5.343 64 7V57C64 58.657 62.657 60 61 60zM24 57C25.657 57 27 55.657 27 54S25.657 51 24 51S21 52.343 21 54S22.343 57 24 57zM15 57C16.657 57 18 55.657 18 54S16.657 51 15 51S12 52.343 12 54S13.343 57 15 57zM6 57C7.657 57 9 55.657 9 54S7.657 51 6 51S3 52.343 3 54S4.343 57 6 57zM61 7H3V48H61V7zM27.758 27L22.808 22.05C21.636 20.878 21.636 18.979 22.808 17.807S25.879 16.635 27.051 17.807L32.001 22.757L36.951 17.807C38.123 16.635 40.021 16.635 41.193 17.807C42.366 18.979 42.365 20.878 41.193 22.05L36.243 27L41.193 31.95C42.365 33.122 42.365 35.021 41.193 36.193C40.021 37.365 38.122 37.365 36.95 36.193L32 31.242L27.05 36.192C25.879 37.363 23.979 37.364 22.807 36.192C21.636 35.02 21.636 33.121 22.807 31.949L27.758 27z" />
    <glyph glyph-name="browser_layout_1"
      unicode="&#xF12C;"
      horiz-adv-x="64" d=" M61 60H3C1.343 60 0 58.657 0 57V7C0 5.343 1.343 4 3 4H61C62.657 4 64 5.343 64 7V57C64 58.657 62.657 60 61 60zM24 57C25.657 57 27 55.657 27 54S25.657 51 24 51S21 52.343 21 54S22.343 57 24 57zM15 57C16.657 57 18 55.657 18 54S16.657 51 15 51S12 52.343 12 54S13.343 57 15 57zM6 57C7.657 57 9 55.657 9 54S7.657 51 6 51S3 52.343 3 54S4.343 57 6 57zM15 7H3V33H15V7zM61 7H18V33H61V7zM61 36H3V48H61V36z" />
    <glyph glyph-name="browser_layout_2"
      unicode="&#xF12D;"
      horiz-adv-x="64" d=" M61 60H3C1.343 60 0 58.657 0 57V7C0 5.343 1.343 4 3 4H61C62.657 4 64 5.343 64 7V57C64 58.657 62.657 60 61 60zM24 57C25.657 57 27 55.657 27 54S25.657 51 24 51S21 52.343 21 54S22.343 57 24 57zM15 57C16.657 57 18 55.657 18 54S16.657 51 15 51S12 52.343 12 54S13.343 57 15 57zM6 57C7.657 57 9 55.657 9 54S7.657 51 6 51S3 52.343 3 54S4.343 57 6 57zM46 7H3V33H46V7zM61 7H49V33H61V7zM61 36H3V48H61V36z" />
    <glyph glyph-name="browser_layout_3"
      unicode="&#xF12E;"
      horiz-adv-x="64" d=" M61 60H3C1.343 60 0 58.657 0 57V7C0 5.343 1.343 4 3 4H61C62.657 4 64 5.343 64 7V57C64 58.657 62.657 60 61 60zM24 57C25.657 57 27 55.657 27 54S25.657 51 24 51S21 52.343 21 54S22.343 57 24 57zM15 57C16.657 57 18 55.657 18 54S16.657 51 15 51S12 52.343 12 54S13.343 57 15 57zM6 57C7.657 57 9 55.657 9 54S7.657 51 6 51S3 52.343 3 54S4.343 57 6 57zM15 7H3V33H15V7zM46 7H18V33H46V7zM61 7H49V33H61V7zM61 36H3V48H61V36z" />
    <glyph glyph-name="browser_ok"
      unicode="&#xF12F;"
      horiz-adv-x="64" d=" M26.879 18.879C27.422 18.336 28.172 18 29 18S30.578 18.336 31.121 18.879L43.121 30.879C43.664 31.421 44 32.172 44 33C44 34.657 42.657 36 41 36C40.172 36 39.422 35.664 38.879 35.121L29 25.243L25.121 29.121C24.579 29.664 23.828 30 23 30C21.343 30 20 28.657 20 27C20 26.172 20.336 25.422 20.879 24.879L26.879 18.879zM61 60H3C1.343 60 0 58.657 0 57V7C0 5.343 1.343 4 3 4H61C62.657 4 64 5.343 64 7V57C64 58.657 62.657 60 61 60zM24 57C25.657 57 27 55.657 27 54S25.657 51 24 51S21 52.343 21 54S22.343 57 24 57zM15 57C16.657 57 18 55.657 18 54S16.657 51 15 51S12 52.343 12 54S13.343 57 15 57zM6 57C7.657 57 9 55.657 9 54S7.657 51 6 51S3 52.343 3 54S4.343 57 6 57zM61 7H3V48H61V7z" />
    <glyph glyph-name="browser_remove"
      unicode="&#xF130;"
      horiz-adv-x="64" d=" M22 24H26L26 24H42L42 24C43.657 24 45 25.343 45 27S43.657 30 42 30H35L35 30H29L29 30H22C20.343 30 19 28.657 19 27S20.343 24 22 24zM61 60H3C1.343 60 0 58.657 0 57V7C0 5.343 1.343 4 3 4H61C62.657 4 64 5.343 64 7V57C64 58.657 62.657 60 61 60zM24 57C25.657 57 27 55.657 27 54S25.657 51 24 51S21 52.343 21 54S22.343 57 24 57zM15 57C16.657 57 18 55.657 18 54S16.657 51 15 51S12 52.343 12 54S13.343 57 15 57zM6 57C7.657 57 9 55.657 9 54S7.657 51 6 51S3 52.343 3 54S4.343 57 6 57zM61 7H3V48H61V7z" />
    <glyph glyph-name="bullseye"
      unicode="&#xF131;"
      horiz-adv-x="64" d=" M32 38C28.686 38 26 35.314 26 32C26 28.686 28.686 26 32 26C35.314 26 38 28.686 38 32C38 35.313 35.314 38 32 38zM32 51C21.507 51 13 42.494 13 32C13 21.507 21.507 13 32 13C42.493 13 51 21.507 51 32C51 42.493 42.493 51 32 51zM32 19C24.82 19 19 24.821 19 32C19 39.18 24.82 45 32 45C39.18 45 45 39.18 45 32C45 24.82 39.18 19 32 19zM32 64C14.327 64 0 49.673 0 32C0 14.327 14.327 0 32 0C49.673 0 64 14.327 64 32C64 49.673 49.673 64 32 64zM32 6C17.641 6 6 17.64 6 32C6 46.359 17.641 58 32 58C46.359 58 58 46.36 58 32C58 17.64 46.36 6 32 6z" />
    <glyph glyph-name="calendar"
      unicode="&#xF132;"
      horiz-adv-x="64" d=" M48 50C49.657 50 51 51.343 51 53V61C51 62.657 49.657 64 48 64S45 62.657 45 61V53C45 51.343 46.343 50 48 50zM61 56H55V53C55 49.134 51.866 46 48 46S41 49.134 41 53V56H23V53C23 49.134 19.866 46 16 46S9 49.134 9 53V56H3C1.343 56 0 54.657 0 53V3C0 1.343 1.343 0 3 0H61C62.657 0 64 1.343 64 3V53C64 54.657 62.657 56 61 56zM58 6H6V40H58V6zM16 50C17.657 50 19 51.343 19 53V61C19 62.657 17.657 64 16 64S13 62.657 13 61V53C13 51.343 14.343 50 16 50zM26.361 24.368C25.988 24.021 25.576 23.705 25.126 23.419C24.675 23.133 24.251 22.852 23.852 22.574C23.072 22.036 22.331 21.508 21.629 20.988C20.927 20.467 20.316 19.9 19.796 19.285S18.864 17.973 18.561 17.191C18.257 16.412 18.106 15.493 18.106 14.435H31.47V17.607H22.864C23.315 18.232 23.834 18.777 24.424 19.246C25.013 19.714 25.62 20.15 26.244 20.558C26.868 20.965 27.488 21.377 28.103 21.793C28.718 22.209 29.269 22.673 29.754 23.185C30.239 23.695 30.629 24.281 30.924 24.939C31.218 25.599 31.366 26.386 31.366 27.306C31.366 28.189 31.197 28.986 30.859 29.698C30.521 30.408 30.066 31.006 29.494 31.492C28.922 31.977 28.259 32.35 27.505 32.61C26.751 32.87 25.958 33 25.126 33C24.034 33 23.068 32.813 22.227 32.441C21.386 32.068 20.688 31.548 20.134 30.881C19.579 30.214 19.163 29.434 18.886 28.541C18.609 27.648 18.487 26.682 18.522 25.643H22.058C22.058 26.127 22.106 26.618 22.201 27.112C22.296 27.606 22.456 28.057 22.682 28.464C22.907 28.871 23.206 29.201 23.579 29.452S24.407 29.829 24.944 29.829C25.741 29.829 26.396 29.582 26.907 29.088C27.418 28.594 27.674 27.905 27.674 27.021C27.674 26.466 27.548 25.972 27.297 25.54C27.045 25.105 26.733 24.715 26.361 24.368zM41.467 18.193C41.198 17.872 40.869 17.611 40.479 17.413C40.089 17.214 39.651 17.114 39.167 17.114C38.335 17.114 37.649 17.361 37.112 17.855C36.576 18.349 36.262 19.011 36.176 19.843H32.484C32.501 18.89 32.695 18.054 33.068 17.334C33.441 16.615 33.939 16.013 34.564 15.526C35.187 15.042 35.902 14.682 36.709 14.448S38.359 14.096 39.244 14.096C40.163 14.079 41.029 14.231 41.844 14.551C42.659 14.872 43.373 15.327 43.989 15.916S45.094 17.203 45.459 18.01C45.823 18.815 46.005 19.686 46.005 20.622C46.005 21.471 45.879 22.273 45.628 23.027C45.376 23.781 45.013 24.435 44.536 24.99S43.474 25.987 42.78 26.316C42.088 26.644 41.29 26.81 40.389 26.81C39.66 26.81 39.01 26.701 38.438 26.484C37.867 26.267 37.33 25.909 36.827 25.406L36.774 25.458L37.503 29.592H45.017V32.634H34.85L33.057 22.572H36.384C36.748 23.075 37.139 23.443 37.555 23.677C37.971 23.91 38.507 24.027 39.166 24.027C39.669 24.027 40.111 23.941 40.492 23.767C40.873 23.595 41.203 23.351 41.48 23.039C41.756 22.727 41.964 22.363 42.103 21.947C42.243 21.531 42.312 21.089 42.312 20.621C42.312 20.17 42.238 19.731 42.09 19.308C41.943 18.886 41.734 18.514 41.467 18.193z" />
    <glyph glyph-name="calendar_add"
      unicode="&#xF133;"
      horiz-adv-x="64" d=" M16 50C17.657 50 19 51.343 19 53V61C19 62.657 17.657 64 16 64S13 62.657 13 61V53C13 51.343 14.343 50 16 50zM25.126 33C25.125 33 25.124 33 25.123 33H25.13C25.128 33 25.127 33 25.126 33zM48 50C49.657 50 51 51.343 51 53V61C51 62.657 49.657 64 48 64S45 62.657 45 61V53C45 51.343 46.343 50 48 50zM25 20H29V16C29 14.343 30.343 13 32 13S35 14.343 35 16V20H39C40.657 20 42 21.343 42 23S40.657 26 39 26H35V30C35 31.657 33.657 33 32 33S29 31.657 29 30V26H25C23.343 26 22 24.657 22 23S23.343 20 25 20zM61 56H55V53C55 49.134 51.866 46 48 46S41 49.134 41 53V56H23V53C23 49.134 19.866 46 16 46S9 49.134 9 53V56H3C1.343 56 0 54.657 0 53V3C0 1.343 1.343 0 3 0H61C62.657 0 64 1.343 64 3V53C64 54.657 62.657 56 61 56zM58 6H6V40H58V6z" />
    <glyph glyph-name="calendar_ok"
      unicode="&#xF134;"
      horiz-adv-x="64" d=" M48 50C49.657 50 51 51.343 51 53V61C51 62.657 49.657 64 48 64S45 62.657 45 61V53C45 51.343 46.343 50 48 50zM61 56H55V53C55 49.134 51.866 46 48 46S41 49.134 41 53V56H23V53C23 49.134 19.866 46 16 46S9 49.134 9 53V56H3C1.343 56 0 54.657 0 53V3C0 1.343 1.343 0 3 0H61C62.657 0 64 1.343 64 3V53C64 54.657 62.657 56 61 56zM58 6H6V40H58V6zM16 50C17.657 50 19 51.343 19 53V61C19 62.657 17.657 64 16 64S13 62.657 13 61V53C13 51.343 14.343 50 16 50zM26.879 13.879C27.422 13.336 28.172 13 29 13S30.578 13.336 31.121 13.879L45.121 27.879C45.664 28.421 46 29.172 46 30C46 31.657 44.657 33 43 33C42.172 33 41.422 32.664 40.879 32.121L29 20.243L24.121 25.122C23.578 25.664 22.828 26 22 26C20.343 26 19 24.657 19 23C19 22.172 19.336 21.422 19.879 20.879L26.879 13.879z" />
    <glyph glyph-name="camera"
      unicode="&#xF135;"
      horiz-adv-x="64" d=" M32 42C25.373 42 20 36.628 20 30C20 23.373 25.373 18 32 18S44 23.373 44 30S38.627 42 32 42zM61 52H48.243L43.148 57.094L43.146 57.091C42.602 57.65 41.843 58 41 58H23C22.024 58 21.165 57.526 20.617 56.804L15.813 52H3C1.343 52 0 50.657 0 49V9C0 7.343 1.343 6 3 6H61C62.657 6 64 7.343 64 9V49C64 50.657 62.657 52 61 52zM32 12C22.059 12 14 20.059 14 30C14 39.941 22.059 48 32 48C41.941 48 50 39.941 50 30C50 20.059 41.941 12 32 12z" />
    <glyph glyph-name="cassette"
      unicode="&#xF136;"
      horiz-adv-x="64" d=" M61 55H3C1.343 55 0 53.657 0 52V12C0 10.343 1.343 9 3 9H11.369L16.215 21.114L16.219 21.112C16.661 22.217 17.737 23 19 23H45C46.263 23 47.339 22.218 47.781 21.113L47.785 21.115L52.631 9H61C62.657 9 64 10.343 64 12V52C64 53.657 62.657 55 61 55zM16 32C13.791 32 12 33.791 12 36C12 38.209 13.791 40 16 40C18.209 40 20 38.209 20 36C20 33.791 18.209 32 16 32zM40 32H24V40H40V32zM48 32C45.791 32 44 33.791 44 36C44 38.209 45.791 40 48 40S52 38.209 52 36C52 33.791 50.209 32 48 32zM45.834 17.944C45.436 19.135 44.325 20 43 20H21C19.704 20 18.609 19.173 18.19 18.022L18.18 18.026L14.899 9H48.829L45.846 17.949L45.834 17.944z" />
    <glyph glyph-name="chart"
      unicode="&#xF137;"
      horiz-adv-x="64" d=" M61 64H3C1.343 64 0 62.657 0 61V3C0 1.343 1.343 0 3 0H61C62.657 0 64 1.343 64 3V61C64 62.657 62.657 64 61 64zM58 6H6V58H58V6zM46 9H52C53.657 9 55 10.343 55 12V33C55 34.657 53.657 36 52 36H46C44.343 36 43 34.657 43 33V12C43 10.343 44.343 9 46 9zM29 9H35C36.657 9 38 10.343 38 12V45C38 46.657 36.657 48 35 48H29C27.343 48 26 46.657 26 45V12C26 10.343 27.343 9 29 9zM12 9H18C19.657 9 21 10.343 21 12V18C21 19.657 19.657 21 18 21H12C10.343 21 9 19.657 9 18V12C9 10.343 10.343 9 12 9z" />
    <glyph glyph-name="chart_1_2"
      unicode="&#xF138;"
      horiz-adv-x="64" d=" M32 64C14.327 64 0 49.673 0 32S14.327 0 32 0S64 14.327 64 32S49.673 64 32 64zM32 6C17.641 6 6 17.641 6 32C6 46.359 17.641 58 32 58V6z" />
    <glyph glyph-name="chart_1_4"
      unicode="&#xF139;"
      horiz-adv-x="64" d=" M32 64C14.327 64 0 49.673 0 32S14.327 0 32 0S64 14.327 64 32S49.673 64 32 64zM32 6C17.641 6 6 17.641 6 32C6 46.359 17.641 58 32 58V32H58C58 17.641 46.359 6 32 6z" />
    <glyph glyph-name="chart_1_8"
      unicode="&#xF13A;"
      horiz-adv-x="64" d=" M32 64C14.327 64 0 49.673 0 32S14.327 0 32 0S64 14.327 64 32S49.673 64 32 64zM32 6C17.641 6 6 17.641 6 32C6 46.359 17.641 58 32 58V32L50.385 50.385C55.09 45.68 58 39.18 58 32C58 17.641 46.359 6 32 6z" />
    <glyph glyph-name="chart_3_4"
      unicode="&#xF13B;"
      horiz-adv-x="64" d=" M32 64C14.327 64 0 49.673 0 32S14.327 0 32 0S64 14.327 64 32S49.673 64 32 64zM32 32H6C6 46.359 17.641 58 32 58V32z" />
    <glyph glyph-name="chart_3_8"
      unicode="&#xF13C;"
      horiz-adv-x="64" d=" M32 64C14.327 64 0 49.673 0 32S14.327 0 32 0S64 14.327 64 32S49.673 64 32 64zM32 6C17.641 6 6 17.641 6 32C6 46.359 17.641 58 32 58V32L50.385 13.615C45.68 8.91 39.18 6 32 6z" />
    <glyph glyph-name="chart_5_8"
      unicode="&#xF13D;"
      horiz-adv-x="64" d=" M32 64C14.327 64 0 49.673 0 32S14.327 0 32 0S64 14.327 64 32S49.673 64 32 64zM32 32L13.615 13.615C8.91 18.32 6 24.82 6 32C6 46.359 17.641 58 32 58V32z" />
    <glyph glyph-name="chart_7_8"
      unicode="&#xF13E;"
      horiz-adv-x="64" d=" M32 64C14.327 64 0 49.673 0 32S14.327 0 32 0S64 14.327 64 32S49.673 64 32 64zM32 32L13.615 50.385C18.32 55.09 24.82 58 32 58V32z" />
    <glyph glyph-name="circle"
      unicode="&#xF13F;"
      horiz-adv-x="64" d=" M32 64C14.327 64 0 49.673 0 32S14.327 0 32 0S64 14.327 64 32S49.673 64 32 64zM32 6C17.641 6 6 17.641 6 32C6 46.36 17.641 58 32 58C46.359 58 58 46.36 58 32C58 17.641 46.359 6 32 6z" />
    <glyph glyph-name="circle_delete"
      unicode="&#xF140;"
      horiz-adv-x="64" d=" M32 64C14.327 64 0 49.673 0 32S14.327 0 32 0S64 14.327 64 32S49.673 64 32 64zM32 6C17.641 6 6 17.641 6 32C6 46.36 17.641 58 32 58C46.359 58 58 46.36 58 32C58 17.641 46.359 6 32 6zM46 43C46 44.657 44.657 46 43 46C42.172 46 41.422 45.664 40.879 45.121L32 36.242L23.121 45.121C22.579 45.664 21.828 46 21 46C19.343 46 18 44.657 18 43C18 42.172 18.336 41.422 18.879 40.879L27.757 32L18.878 23.121C18.336 22.578 18 21.828 18 21C18 19.343 19.343 18 21 18C21.828 18 22.579 18.336 23.121 18.879L32 27.757L40.879 18.878C41.422 18.336 42.172 18 43 18C44.657 18 46 19.343 46 21C46 21.828 45.664 22.578 45.121 23.121L36.243 32L45.122 40.878C45.664 41.422 46 42.171 46 43z" />
    <glyph glyph-name="circle_down"
      unicode="&#xF141;"
      horiz-adv-x="64" d=" M41 32C40.115 32 39.327 31.609 38.777 31L38.769 31.007L35 26.818V45C35 46.657 33.657 48 32 48S29 46.657 29 45V26.818L25.23 31.006L25.222 31C24.673 31.61 23.885 32 23 32C21.343 32 20 30.657 20 29C20 28.229 20.299 27.532 20.778 27L20.77 26.992L29.77 16.992L29.778 17C30.327 16.391 31.114 16 32 16C32.885 16 33.673 16.391 34.223 17L34.231 16.993L43.231 26.993L43.223 27C43.7 27.532 44 28.229 44 29C44 30.657 42.657 32 41 32zM32 64C14.327 64 0 49.673 0 32S14.327 0 32 0S64 14.327 64 32S49.673 64 32 64zM32 6C17.641 6 6 17.641 6 32C6 46.36 17.641 58 32 58C46.359 58 58 46.36 58 32C58 17.641 46.359 6 32 6z" />
    <glyph glyph-name="circle_fast_forward"
      unicode="&#xF142;"
      horiz-adv-x="64" d=" M32 64C14.327 64 0 49.673 0 32S14.327 0 32 0S64 14.327 64 32S49.673 64 32 64zM32 6C17.641 6 6 17.641 6 32C6 46.359 17.641 58 32 58C46.359 58 58 46.36 58 32C58 17.641 46.359 6 32 6zM45.559 34.563L35.86 41.352C35.35 41.757 34.703 42 34 42C32.343 42 31 40.657 31 39C31 38.992 31.001 38.984 31.001 38.976H30.996V34.958L21.861 41.352C21.349 41.757 20.703 42 20 42C18.343 42 17 40.657 17 39C17 38.992 17.001 38.984 17.001 38.976H16.996V24.976H17.001C17.013 23.33 18.351 22 20 22C20.708 22 21.358 22.246 21.871 22.654L30.996 29.042V24.975H31.001C31.013 23.33 32.351 22 34 22C34.708 22 35.357 22.246 35.871 22.654L45.551 29.431C46.419 29.957 47 30.911 47 32C47 33.086 46.423 34.037 45.559 34.563z" />
    <glyph glyph-name="circle_left"
      unicode="&#xF143;"
      horiz-adv-x="64" d=" M45 35H26.818L31.007 38.77L31 38.778C31.61 39.327 32 40.115 32 41C32 42.657 30.657 44 29 44C28.228 44 27.532 43.7 27 43.222L26.993 43.23L16.993 34.23L17 34.222C16.39 33.673 16 32.886 16 32S16.391 30.327 17 29.777L16.993 29.769L26.993 20.769L27 20.777C27.532 20.299 28.228 20 29 20C30.657 20 32 21.343 32 23C32 23.885 31.609 24.673 31 25.223L31.007 25.231L26.818 29H45C46.657 29 48 30.343 48 32S46.657 35 45 35zM32 64C14.327 64 0 49.673 0 32S14.327 0 32 0S64 14.327 64 32S49.673 64 32 64zM32 6C17.641 6 6 17.641 6 32C6 46.36 17.641 58 32 58C46.359 58 58 46.36 58 32C58 17.641 46.359 6 32 6z" />
    <glyph glyph-name="circle_minus"
      unicode="&#xF144;"
      horiz-adv-x="64" d=" M45 35H19C17.343 35 16 33.657 16 32S17.343 29 19 29H45C46.657 29 48 30.343 48 32S46.657 35 45 35zM32 64C14.327 64 0 49.673 0 32S14.327 0 32 0S64 14.327 64 32S49.673 64 32 64zM32 6C17.641 6 6 17.641 6 32C6 46.36 17.641 58 32 58C46.359 58 58 46.359 58 32C58 17.641 46.359 6 32 6z" />
    <glyph glyph-name="circle_ok"
      unicode="&#xF145;"
      horiz-adv-x="64" d=" M46 20.999L46 20.999C46 21 46 21 46 21.001V20.999zM46 43.001V42.999C46 42.999 46 43 46 43.001C46 43 46 43 46 43.001zM44 43C43.172 43 42.422 42.664 41.879 42.121L28 28.242L21.121 35.121C20.578 35.664 19.828 36 19 36C17.343 36 16 34.657 16 33C16 32.172 16.336 31.422 16.879 30.879L25.879 21.879C26.422 21.336 27.172 21 28 21S29.578 21.336 30.121 21.879L46.121 37.879C46.664 38.421 47 39.172 47 40C47 41.657 45.657 43 44 43zM32 64C14.327 64 0 49.673 0 32S14.327 0 32 0S64 14.327 64 32S49.673 64 32 64zM32 6C17.641 6 6 17.641 6 32C6 46.36 17.641 58 32 58C46.359 58 58 46.36 58 32C58 17.641 46.359 6 32 6z" />
    <glyph glyph-name="circle_pause"
      unicode="&#xF146;"
      horiz-adv-x="64" d=" M32 64C14.327 64 0 49.673 0 32S14.327 0 32 0S64 14.327 64 32S49.673 64 32 64zM32 6C17.641 6 6 17.641 6 32C6 46.359 17.641 58 32 58C46.359 58 58 46.36 58 32C58 17.641 46.359 6 32 6zM29 40C29 41.657 27.657 43 26 43S23 41.657 23 40C23 39.998 23 39.995 23 39.993H22.998V23.993H23C23.004 22.339 24.346 21 26 21C27.657 21 29 22.343 29 24C29 24.023 28.999 24.047 28.998 24.07V39.93C28.999 39.953 29 39.976 29 40zM41 40C41 41.657 39.657 43 38 43S35 41.657 35 40C35 39.998 35 39.995 35 39.993H34.998V23.993H35C35.004 22.339 36.346 21 38 21C39.657 21 41 22.343 41 24C41 24.023 40.999 24.047 40.998 24.07V39.93C40.999 39.953 41 39.976 41 40z" />
    <glyph glyph-name="circle_play"
      unicode="&#xF147;"
      horiz-adv-x="64" d=" M41.492 34.602L25.692 44.477C25.21 44.807 24.628 45 24 45C22.343 45 21 43.657 21 42V22C21 20.343 22.343 19 24 19C24.066 19 24.131 19.003 24.195 19.007C24.212 19.008 24.229 19.01 24.246 19.011C24.301 19.016 24.355 19.022 24.409 19.03C24.419 19.03 24.43 19.032 24.44 19.034C24.504 19.044 24.568 19.055 24.631 19.069C24.641 19.071 24.65 19.074 24.66 19.076C24.717 19.089 24.772 19.102 24.827 19.119C24.836 19.122 24.845 19.124 24.854 19.127C24.982 19.165 25.106 19.211 25.226 19.265C25.231 19.267 25.235 19.269 25.24 19.271C25.363 19.328 25.482 19.392 25.595 19.462L25.608 19.442L41.52 29.416C42.404 29.934 43 30.896 43 32C43 33.114 42.393 34.085 41.492 34.602zM32 64C14.327 64 0 49.673 0 32S14.327 0 32 0S64 14.327 64 32S49.673 64 32 64zM32 6C17.641 6 6 17.641 6 32C6 46.359 17.641 58 32 58C46.359 58 58 46.36 58 32C58 17.641 46.359 6 32 6z" />
    <glyph glyph-name="circle_plus"
      unicode="&#xF148;"
      horiz-adv-x="64" d=" M45 35H35V45C35 46.657 33.657 48 32 48S29 46.657 29 45V35H19C17.343 35 16 33.657 16 32S17.343 29 19 29H29V19C29 17.343 30.343 16 32 16S35 17.343 35 19V29H45C46.657 29 48 30.343 48 32S46.657 35 45 35zM32 64C14.327 64 0 49.673 0 32S14.327 0 32 0S64 14.327 64 32S49.673 64 32 64zM32 6C17.641 6 6 17.641 6 32C6 46.36 17.641 58 32 58C46.359 58 58 46.359 58 32C58 17.641 46.359 6 32 6z" />
    <glyph glyph-name="circle_rewind"
      unicode="&#xF149;"
      horiz-adv-x="64" d=" M47 39C47 40.657 45.657 42 44 42C43.297 42 42.65 41.758 42.139 41.352L33.004 34.958V38.976H32.998C32.999 38.984 33 38.992 33 39C33 40.657 31.657 42 30 42C29.297 42 28.651 41.758 28.139 41.352L18.44 34.563C17.577 34.037 17 33.086 17 32C17 30.911 17.581 29.957 18.449 29.432L28.129 22.655C28.642 22.246 29.292 22 30 22C31.649 22 32.986 23.33 32.999 24.977H33.004V29.043L42.129 22.656C42.643 22.246 43.292 22 44 22C45.648 22 46.986 23.33 46.999 24.977H47.004V38.977H46.999C46.999 38.984 47 38.992 47 39zM32 64C14.327 64 0 49.673 0 32S14.327 0 32 0S64 14.327 64 32S49.673 64 32 64zM32 6C17.641 6 6 17.641 6 32C6 46.359 17.641 58 32 58C46.359 58 58 46.36 58 32C58 17.641 46.359 6 32 6z" />
    <glyph glyph-name="circle_right"
      unicode="&#xF14A;"
      horiz-adv-x="64" d=" M47 34.222L47.007 34.23L37.007 43.23L37 43.222C36.468 43.7 35.771 44 35 44C33.343 44 32 42.657 32 41C32 40.115 32.391 39.327 33 38.778L32.993 38.77L37.182 35H19C17.343 35 16 33.657 16 32S17.343 29 19 29H37.182L32.994 25.23L33 25.223C32.39 24.673 32 23.885 32 23C32 21.343 33.343 20 35 20C35.771 20 36.468 20.299 37 20.777L37.007 20.769L47.007 29.769L47 29.777C47.609 30.327 48 31.114 48 32S47.609 33.672 47 34.222zM32 64C14.327 64 0 49.673 0 32S14.327 0 32 0S64 14.327 64 32S49.673 64 32 64zM32 6C17.641 6 6 17.641 6 32C6 46.36 17.641 58 32 58C46.359 58 58 46.36 58 32C58 17.641 46.359 6 32 6z" />
    <glyph glyph-name="circle_skip_next"
      unicode="&#xF14B;"
      horiz-adv-x="64" d=" M39 42C37.343 42 36 40.657 36 39V34.71L26.765 41.427L26.76 41.42C26.264 41.781 25.66 42 25 42C23.343 42 22 40.657 22 39V25C22 23.343 23.343 22 25 22C25.66 22 26.264 22.219 26.76 22.58L26.765 22.573L36 29.29V25C36 23.343 37.343 22 39 22S42 23.343 42 25V39C42 40.657 40.657 42 39 42zM32 64C14.327 64 0 49.673 0 32S14.327 0 32 0S64 14.327 64 32S49.673 64 32 64zM32 6C17.641 6 6 17.641 6 32C6 46.359 17.641 58 32 58C46.359 58 58 46.36 58 32C58 17.641 46.359 6 32 6z" />
    <glyph glyph-name="circle_skip_prev"
      unicode="&#xF14C;"
      horiz-adv-x="64" d=" M39 42C38.34 42 37.734 41.781 37.24 41.42L37.234 41.427L28 34.709V39C28 40.657 26.657 42 25 42S22 40.657 22 39V25C22 23.343 23.343 22 25 22S28 23.343 28 25V29.29L37.234 22.573L37.24 22.58C37.736 22.219 38.34 22 39 22C40.657 22 42 23.343 42 25V39C42 40.657 40.657 42 39 42zM32 64C14.327 64 0 49.673 0 32S14.327 0 32 0S64 14.327 64 32S49.673 64 32 64zM32 6C17.641 6 6 17.641 6 32C6 46.359 17.641 58 32 58C46.359 58 58 46.36 58 32C58 17.641 46.359 6 32 6z" />
    <glyph glyph-name="circle_stop"
      unicode="&#xF14D;"
      horiz-adv-x="64" d=" M40 43H24C22.343 43 21 41.657 21 40V24C21 22.343 22.343 21 24 21H40C41.657 21 43 22.343 43 24V40C43 41.657 41.657 43 40 43zM32 64C14.327 64 0 49.673 0 32S14.327 0 32 0S64 14.327 64 32S49.673 64 32 64zM32 6C17.641 6 6 17.641 6 32C6 46.359 17.641 58 32 58C46.359 58 58 46.36 58 32C58 17.641 46.359 6 32 6z" />
    <glyph glyph-name="circle_up"
      unicode="&#xF14E;"
      horiz-adv-x="64" d=" M43.23 37.007L34.23 47.007L34.223 47C33.673 47.61 32.887 48 32 48C31.115 48 30.328 47.609 29.778 47L29.77 47.007L20.77 37.007L20.778 37C20.3 36.468 20 35.771 20 35C20 33.343 21.343 32 23 32C23.885 32 24.673 32.391 25.222 33L25.23 32.993L29 37.182V19C29 17.343 30.343 16 32 16S35 17.343 35 19V37.182L38.77 32.993L38.777 33C39.327 32.39 40.115 32 41 32C42.657 32 44 33.343 44 35C44 35.772 43.7 36.468 43.223 37L43.23 37.007zM32 64C14.327 64 0 49.673 0 32S14.327 0 32 0S64 14.327 64 32S49.673 64 32 64zM32 6C17.641 6 6 17.641 6 32C6 46.36 17.641 58 32 58C46.359 58 58 46.36 58 32C58 17.641 46.359 6 32 6z" />
    <glyph glyph-name="clip"
      unicode="&#xF14F;"
      horiz-adv-x="64" d=" M55.628 52.627C48.599 59.656 37.202 59.656 30.172 52.627L6.837 29.293C1.76 24.216 1.76 15.985 6.837 10.908C11.914 5.831 20.145 5.831 25.222 10.908L47.142 32.828C50.266 35.952 50.266 41.017 47.142 44.142C44.018 47.266 38.952 47.266 35.828 44.142L17.444 25.757C16.272 24.585 16.272 22.686 17.444 21.514C18.616 20.342 20.515 20.342 21.687 21.514L40.072 39.899C40.853 40.68 42.119 40.68 42.9 39.899C43.681 39.118 43.681 37.852 42.9 37.071L20.98 15.151C18.246 12.417 13.814 12.417 11.081 15.151C8.347 17.885 8.347 22.317 11.081 25.051L34.415 48.385C39.101 53.071 46.699 53.071 51.386 48.385C56.072 43.699 56.072 36.101 51.386 31.414L31.586 11.615C30.414 10.443 30.414 8.544 31.586 7.372C32.758 6.201 34.657 6.201 35.829 7.372L55.628 27.171C62.657 34.201 62.657 45.598 55.628 52.627z" />
    <glyph glyph-name="close"
      unicode="&#xF150;"
      horiz-adv-x="64" d=" M36.243 32L48.122 43.879C48.664 44.421 49 45.172 49 46C49 47.657 47.657 49 46 49C45.172 49 44.422 48.664 43.879 48.121L32 36.243L20.121 48.121C19.578 48.664 18.828 49 18 49C16.343 49 15 47.657 15 46C15 45.172 15.336 44.422 15.879 43.879L27.757 32L15.879 20.121C15.336 19.578 15 18.828 15 18C15 16.343 16.343 15 18 15C18.828 15 19.578 15.336 20.121 15.879L32 27.757L43.879 15.878C44.422 15.336 45.172 15 46 15C47.657 15 49 16.343 49 18C49 18.828 48.664 19.578 48.121 20.121L36.243 32z" />
    <glyph glyph-name="cloud"
      unicode="&#xF151;"
      horiz-adv-x="64" d=" M53.387 39.344C50.048 47.914 41.753 54 32 54S13.952 47.914 10.613 39.345C4.47 37.468 0 31.757 0 25C0 16.716 6.716 10 15 10H49C57.284 10 64 16.716 64 25C64 31.757 59.529 37.468 53.387 39.344zM49 16H15C10.03 16 6 20.029 6 25C6 27.68 7.178 30.08 9.037 31.728C9.229 31.898 9.429 32.059 9.634 32.213C9.647 32.223 9.661 32.233 9.674 32.243C9.868 32.387 10.069 32.521 10.275 32.649C10.307 32.669 10.339 32.688 10.371 32.707C10.563 32.823 10.759 32.932 10.959 33.033C11.014 33.061 11.07 33.087 11.126 33.113C11.31 33.202 11.497 33.285 11.687 33.361C11.77 33.394 11.855 33.423 11.939 33.453C12.11 33.515 12.282 33.576 12.458 33.628C12.574 33.662 12.694 33.69 12.812 33.719C12.964 33.757 13.115 33.798 13.269 33.828C13.431 33.86 13.597 33.881 13.762 33.903C13.881 33.919 13.998 33.942 14.118 33.953C14.408 33.983 14.702 34 15 34C15.094 34 15.185 33.989 15.278 33.986C15.369 34.499 15.484 35.003 15.62 35.498C15.653 35.619 15.698 35.735 15.734 35.855C15.846 36.23 15.961 36.604 16.098 36.967C16.139 37.077 16.19 37.182 16.233 37.291C16.381 37.661 16.533 38.028 16.706 38.384C16.748 38.47 16.796 38.552 16.839 38.637C17.027 39.009 17.223 39.378 17.437 39.734C20.406 44.682 25.808 48 32 48C38.191 48 43.596 44.682 46.562 39.734C46.775 39.377 46.972 39.009 47.161 38.637C47.204 38.552 47.252 38.47 47.294 38.384C47.467 38.028 47.619 37.66 47.768 37.291C47.811 37.182 47.862 37.077 47.903 36.967C48.04 36.604 48.155 36.23 48.266 35.855C48.302 35.735 48.348 35.619 48.38 35.498C48.516 35.003 48.631 34.499 48.723 33.986C48.814 33.989 48.906 34 49 34C49.298 34 49.592 33.984 49.882 33.955C50.002 33.943 50.119 33.921 50.238 33.905C50.402 33.882 50.568 33.862 50.73 33.83C50.886 33.8 51.037 33.76 51.187 33.721C51.306 33.692 51.425 33.664 51.541 33.63C51.717 33.578 51.89 33.517 52.06 33.455C52.144 33.424 52.23 33.396 52.312 33.363C52.503 33.287 52.689 33.203 52.874 33.115C52.93 33.089 52.986 33.062 53.041 33.035C53.242 32.934 53.437 32.825 53.629 32.709C53.661 32.69 53.693 32.67 53.725 32.651C53.932 32.523 54.131 32.388 54.327 32.245C54.34 32.235 54.354 32.225 54.367 32.215C54.573 32.061 54.772 31.9 54.964 31.73C56.822 30.079 58 27.68 58 25C58 20.029 53.971 16 49 16z" />
    <glyph glyph-name="cloud_download"
      unicode="&#xF152;"
      horiz-adv-x="64" d=" M41 20C40.115 20 39.318 19.616 38.77 19.007L38.77 19.007L35 14.818V30C35 31.657 33.657 33 32 33S29 31.657 29 30V14.818L25.23 19.006L25.23 19.006C24.681 19.616 23.885 20 23 20C21.343 20 20 18.657 20 17C20 16.904 20.005 16.809 20.014 16.714L20.014 16.714C20.076 16.055 20.351 15.458 20.77 14.993L20.77 14.993L29.77 4.993L29.778 5C30.327 4.391 31.115 4 32 4S33.673 4.391 34.223 5.001L34.231 4.994L43.231 14.994L43.231 14.994C43.649 15.459 43.924 16.055 43.987 16.713C43.987 16.715 43.987 16.717 43.987 16.719C43.995 16.811 44 16.904 44 16.999V17C44 17.104 43.995 17.206 43.984 17.307C43.831 18.818 42.553 20 41 20zM53.387 44.344C50.048 52.914 41.753 59 32 59C22.248 59 13.952 52.914 10.613 44.345C4.47 42.468 0 36.757 0 30C0 21.716 6.716 15 15 15C16.657 15 18 16.343 18 18S16.657 21 15 21C10.03 21 6 25.029 6 30C6 32.68 7.178 35.08 9.037 36.728C9.229 36.898 9.429 37.059 9.634 37.213C9.647 37.223 9.661 37.233 9.674 37.243C9.868 37.387 10.069 37.521 10.275 37.649C10.307 37.669 10.339 37.688 10.371 37.707C10.563 37.823 10.759 37.932 10.959 38.033C11.014 38.061 11.07 38.087 11.126 38.113C11.31 38.202 11.497 38.285 11.687 38.361C11.77 38.394 11.855 38.423 11.939 38.453C12.11 38.515 12.282 38.576 12.458 38.628C12.574 38.662 12.694 38.69 12.812 38.719C12.964 38.757 13.115 38.798 13.269 38.828C13.431 38.86 13.597 38.881 13.762 38.903C13.881 38.919 13.998 38.942 14.118 38.953C14.408 38.983 14.702 39 15 39C15.094 39 15.185 38.989 15.278 38.986C15.369 39.499 15.484 40.003 15.62 40.498C15.653 40.619 15.698 40.735 15.734 40.855C15.846 41.23 15.961 41.604 16.098 41.967C16.139 42.077 16.19 42.182 16.233 42.291C16.381 42.661 16.533 43.028 16.706 43.384C16.748 43.47 16.796 43.552 16.839 43.637C17.027 44.009 17.223 44.378 17.437 44.734C20.406 49.682 25.808 53 32 53C38.191 53 43.596 49.682 46.562 44.734C46.775 44.377 46.972 44.009 47.161 43.637C47.204 43.552 47.252 43.47 47.294 43.384C47.467 43.028 47.619 42.66 47.768 42.291C47.811 42.182 47.862 42.077 47.903 41.967C48.04 41.604 48.155 41.23 48.266 40.855C48.302 40.735 48.348 40.619 48.38 40.498C48.516 40.003 48.631 39.499 48.723 38.986C48.814 38.989 48.906 39 49 39C49.298 39 49.592 38.984 49.882 38.955C50.002 38.943 50.119 38.921 50.238 38.905C50.402 38.882 50.568 38.862 50.73 38.83C50.886 38.8 51.037 38.76 51.187 38.721C51.306 38.692 51.425 38.664 51.541 38.63C51.717 38.578 51.89 38.517 52.06 38.455C52.144 38.424 52.23 38.396 52.312 38.363C52.503 38.287 52.689 38.203 52.874 38.115C52.93 38.089 52.986 38.062 53.041 38.035C53.242 37.934 53.437 37.825 53.63 37.709C53.662 37.69 53.693 37.67 53.727 37.651C53.932 37.523 54.132 37.388 54.328 37.245C54.341 37.235 54.354 37.225 54.368 37.215C54.574 37.061 54.774 36.9 54.965 36.73C56.822 35.079 58 32.68 58 30C58 25.029 53.971 21 49 21C47.343 21 46 19.657 46 18S47.343 15 49 15C57.284 15 64 21.716 64 30C64 36.757 59.529 42.468 53.387 44.344z" />
    <glyph glyph-name="cloud_fail"
      unicode="&#xF153;"
      horiz-adv-x="64" d=" M43 25C43 26.657 41.657 28 40 28C39.172 28 38.422 27.664 37.879 27.121L32 21.242L26.121 27.121C25.578 27.664 24.829 28 24 28C22.343 28 21 26.657 21 25C21 24.171 21.336 23.422 21.879 22.879L27.757 17L21.878 11.121C21.336 10.578 21 9.828 21 9C21 7.343 22.343 6 24 6C24.828 6 25.578 6.336 26.121 6.878L32 12.757L37.879 6.878C38.422 6.336 39.172 6 40 6C41.657 6 43 7.343 43 9C43 9.829 42.664 10.579 42.121 11.121L36.243 17L42.122 22.879C42.664 23.421 43 24.171 43 25zM53.387 43.344C50.048 51.914 41.752 58 32 58S13.952 51.914 10.613 43.345C4.47 41.468 0 35.757 0 29C0 20.716 6.716 14 15 14C16.657 14 18 15.343 18 17S16.657 20 15 20C10.029 20 6 24.029 6 29C6 31.68 7.178 34.08 9.037 35.728C9.229 35.898 9.429 36.059 9.634 36.213C9.647 36.223 9.661 36.233 9.674 36.243C9.868 36.387 10.069 36.521 10.274 36.649C10.306 36.669 10.338 36.688 10.37 36.707C10.562 36.823 10.758 36.932 10.959 37.033C11.014 37.061 11.07 37.087 11.126 37.113C11.31 37.202 11.497 37.285 11.687 37.361C11.77 37.394 11.855 37.423 11.939 37.453C12.11 37.515 12.282 37.576 12.458 37.628C12.574 37.662 12.694 37.69 12.812 37.719C12.964 37.757 13.115 37.798 13.269 37.828C13.431 37.86 13.597 37.881 13.762 37.903C13.881 37.919 13.998 37.942 14.118 37.953C14.408 37.983 14.702 38 15 38C15.094 38 15.185 37.989 15.278 37.986C15.369 38.499 15.484 39.003 15.62 39.498C15.653 39.619 15.698 39.735 15.734 39.855C15.846 40.23 15.961 40.604 16.098 40.967C16.139 41.077 16.19 41.182 16.233 41.291C16.381 41.661 16.533 42.028 16.706 42.384C16.748 42.47 16.796 42.552 16.839 42.637C17.027 43.009 17.223 43.378 17.438 43.734C20.406 48.682 25.808 52 32 52C38.191 52 43.594 48.682 46.562 43.734C46.775 43.377 46.972 43.009 47.161 42.637C47.204 42.552 47.252 42.47 47.294 42.384C47.467 42.028 47.619 41.66 47.768 41.291C47.811 41.182 47.862 41.077 47.903 40.967C48.04 40.604 48.155 40.23 48.266 39.855C48.302 39.735 48.348 39.619 48.38 39.498C48.516 39.003 48.631 38.499 48.723 37.986C48.814 37.989 48.906 38 49 38C49.298 38 49.592 37.984 49.882 37.955C50.002 37.943 50.119 37.921 50.238 37.905C50.402 37.882 50.568 37.862 50.73 37.83C50.886 37.8 51.037 37.76 51.187 37.721C51.306 37.692 51.425 37.664 51.541 37.63C51.717 37.578 51.89 37.517 52.06 37.455C52.144 37.424 52.23 37.396 52.312 37.363C52.503 37.287 52.689 37.203 52.874 37.115C52.93 37.089 52.986 37.062 53.041 37.035C53.242 36.934 53.437 36.825 53.629 36.709C53.661 36.69 53.693 36.67 53.725 36.651C53.932 36.523 54.131 36.388 54.327 36.245C54.34 36.235 54.354 36.225 54.367 36.215C54.573 36.061 54.772 35.9 54.964 35.73C56.822 34.079 58 31.68 58 29C58 24.029 53.971 20 49 20C47.343 20 46 18.657 46 17S47.343 14 49 14C57.284 14 64 20.716 64 29C64 35.757 59.529 41.468 53.387 43.344z" />
    <glyph glyph-name="cloud_ok"
      unicode="&#xF154;"
      horiz-adv-x="64" d=" M43 28C41.961 28 41.046 27.473 40.507 26.67L31.571 13.672L26.121 19.122C25.578 19.664 24.828 20 24 20C22.343 20 21 18.657 21 17C21 16.171 21.336 15.421 21.879 14.879L29.879 6.879C30.422 6.336 31.172 6 32 6C33.039 6 33.954 6.527 34.493 7.33L45.462 23.284C45.801 23.77 46 24.361 46 25C46 26.657 44.657 28 43 28zM53.387 43.344C50.048 51.914 41.752 58 32 58C22.247 58 13.952 51.914 10.613 43.345C4.47 41.468 0 35.757 0 29C0 20.716 6.716 14 15 14C16.657 14 18 15.343 18 17S16.657 20 15 20C10.029 20 6 24.029 6 29C6 31.68 7.178 34.08 9.037 35.728C9.229 35.898 9.429 36.059 9.634 36.213C9.647 36.223 9.661 36.233 9.674 36.243C9.868 36.387 10.069 36.521 10.275 36.649C10.307 36.669 10.339 36.688 10.371 36.707C10.563 36.823 10.759 36.932 10.959 37.033C11.014 37.061 11.07 37.087 11.126 37.113C11.31 37.202 11.497 37.285 11.687 37.361C11.77 37.394 11.855 37.423 11.939 37.453C12.11 37.515 12.282 37.576 12.458 37.628C12.574 37.662 12.694 37.69 12.812 37.719C12.964 37.757 13.115 37.798 13.269 37.828C13.431 37.86 13.597 37.881 13.762 37.903C13.881 37.919 13.998 37.942 14.118 37.953C14.408 37.983 14.702 38 15 38C15.094 38 15.185 37.989 15.278 37.986C15.369 38.499 15.484 39.003 15.62 39.498C15.653 39.619 15.698 39.735 15.734 39.855C15.846 40.23 15.961 40.604 16.098 40.967C16.139 41.077 16.19 41.182 16.233 41.291C16.381 41.661 16.533 42.028 16.706 42.384C16.747 42.47 16.796 42.552 16.839 42.637C17.027 43.009 17.223 43.378 17.437 43.734C20.406 48.682 25.808 52 32 52C38.191 52 43.594 48.682 46.562 43.734C46.775 43.377 46.972 43.009 47.161 42.637C47.204 42.552 47.252 42.47 47.294 42.384C47.466 42.028 47.619 41.66 47.768 41.291C47.811 41.182 47.862 41.077 47.903 40.967C48.04 40.604 48.155 40.23 48.266 39.855C48.302 39.735 48.348 39.619 48.38 39.498C48.516 39.003 48.631 38.499 48.723 37.986C48.814 37.989 48.906 38 49 38C49.298 38 49.592 37.984 49.882 37.955C50.002 37.943 50.119 37.921 50.238 37.905C50.402 37.882 50.568 37.862 50.73 37.83C50.886 37.8 51.037 37.76 51.187 37.721C51.306 37.692 51.425 37.664 51.541 37.63C51.717 37.578 51.89 37.517 52.06 37.455C52.144 37.424 52.23 37.396 52.312 37.363C52.503 37.287 52.689 37.203 52.874 37.115C52.93 37.089 52.986 37.062 53.041 37.035C53.241 36.934 53.437 36.825 53.629 36.709C53.661 36.69 53.693 36.67 53.725 36.651C53.932 36.523 54.131 36.388 54.327 36.245C54.34 36.235 54.354 36.225 54.367 36.215C54.573 36.061 54.772 35.9 54.964 35.73C56.822 34.079 58 31.68 58 29C58 24.029 53.971 20 49 20C47.343 20 46 18.657 46 17S47.343 14 49 14C57.284 14 64 20.716 64 29C64 35.757 59.529 41.468 53.387 43.344z" />
    <glyph glyph-name="cloud_upload"
      unicode="&#xF155;"
      horiz-adv-x="64" d=" M43.986 20.281C43.986 20.283 43.986 20.285 43.986 20.287C43.923 20.945 43.648 21.542 43.23 22.006L43.23 22.006L43.222 22.016C43.22 22.016 43.22 22.018 43.218 22.018L34.228 32.007L34.221 32C33.672 32.61 32.885 33 31.999 33C31.114 33 30.326 32.609 29.777 32L29.769 32.007L20.781 22.02C20.779 22.018 20.777 22.016 20.775 22.014L20.769 22.007L20.769 22.007C20.292 21.475 20 20.771 20 20C20 19.482 20.131 18.995 20.362 18.57C20.87 17.635 21.861 17 23 17C23.033 17 23.066 17.002 23.099 17.003C23.118 17.004 23.137 17.004 23.156 17.005C23.178 17.006 23.199 17.008 23.221 17.01C23.254 17.012 23.287 17.016 23.319 17.018C23.331 17.02 23.343 17.022 23.355 17.024C23.399 17.028 23.442 17.035 23.485 17.042C23.486 17.042 23.488 17.042 23.489 17.043C24.175 17.155 24.783 17.501 25.229 17.996L25.229 17.996L29 22.182V7C29 5.343 30.343 4 32 4S35 5.343 35 7V22.182L38.77 17.994L38.77 17.994C39.216 17.499 39.826 17.153 40.512 17.041C40.514 17.041 40.514 17.041 40.514 17.041C40.559 17.034 40.602 17.028 40.647 17.022C40.658 17.022 40.669 17.02 40.68 17.018C40.713 17.016 40.747 17.012 40.78 17.01C40.801 17.008 40.823 17.006 40.843 17.005S40.883 17.004 40.903 17.003C40.936 17.001 40.967 17 41 17C42.657 17 44 18.343 44 20C44 20.001 44 20.001 44 20.002C44 20.096 43.995 20.189 43.986 20.281zM53.387 44.344C50.048 52.914 41.753 59 32 59C22.248 59 13.952 52.914 10.613 44.345C4.47 42.468 0 36.757 0 30C0 21.716 6.716 15 15 15C16.657 15 18 16.343 18 18S16.657 21 15 21C10.029 21 6 25.029 6 30C6 32.68 7.178 35.08 9.037 36.728C9.229 36.898 9.429 37.059 9.634 37.213C9.647 37.223 9.661 37.233 9.674 37.243C9.868 37.387 10.069 37.521 10.274 37.649C10.306 37.669 10.338 37.688 10.37 37.707C10.562 37.823 10.758 37.932 10.958 38.033C11.013 38.061 11.069 38.087 11.125 38.113C11.309 38.202 11.496 38.285 11.686 38.361C11.769 38.394 11.854 38.423 11.938 38.453C12.109 38.515 12.281 38.576 12.457 38.628C12.573 38.662 12.693 38.69 12.811 38.719C12.963 38.757 13.114 38.798 13.268 38.828C13.43 38.86 13.596 38.881 13.761 38.903C13.88 38.919 13.997 38.942 14.117 38.953C14.408 38.983 14.702 39 15 39C15.094 39 15.185 38.989 15.278 38.986C15.369 39.499 15.484 40.003 15.62 40.498C15.653 40.619 15.698 40.735 15.734 40.855C15.846 41.23 15.961 41.604 16.098 41.967C16.139 42.077 16.19 42.182 16.233 42.291C16.381 42.661 16.533 43.028 16.706 43.384C16.748 43.47 16.796 43.552 16.839 43.637C17.027 44.009 17.223 44.378 17.438 44.734C20.406 49.682 25.808 53 32 53C38.191 53 43.596 49.682 46.562 44.734C46.775 44.377 46.972 44.009 47.16 43.637C47.203 43.552 47.251 43.47 47.293 43.384C47.466 43.028 47.618 42.66 47.766 42.291C47.809 42.182 47.86 42.077 47.901 41.967C48.039 41.604 48.153 41.23 48.266 40.855C48.301 40.735 48.346 40.619 48.379 40.498C48.516 40.003 48.63 39.499 48.721 38.986C48.814 38.989 48.906 39 49 39C49.298 39 49.592 38.984 49.882 38.955C50.002 38.943 50.119 38.921 50.238 38.905C50.402 38.882 50.568 38.862 50.73 38.83C50.886 38.8 51.037 38.76 51.187 38.721C51.306 38.692 51.425 38.664 51.541 38.63C51.717 38.578 51.89 38.517 52.06 38.455C52.144 38.424 52.23 38.396 52.312 38.363C52.503 38.287 52.689 38.203 52.874 38.115C52.93 38.089 52.986 38.062 53.041 38.035C53.242 37.934 53.437 37.825 53.629 37.709C53.661 37.69 53.693 37.67 53.725 37.651C53.932 37.523 54.131 37.388 54.327 37.245C54.34 37.235 54.354 37.225 54.367 37.215C54.573 37.061 54.772 36.9 54.964 36.73C56.822 35.079 58 32.68 58 30C58 25.029 53.971 21 49 21C47.343 21 46 19.657 46 18S47.343 15 49 15C57.284 15 64 21.716 64 30C64 36.757 59.529 42.468 53.387 44.344z" />
    <glyph glyph-name="code"
      unicode="&#xF156;"
      horiz-adv-x="64" d=" M15.031 47C14.187 47 13.427 46.648 12.882 46.087L12.879 46.09L1.053 34.265C0.413 33.715 0 32.909 0 32C0 31.156 0.351 30.396 0.912 29.852L0.91 29.848L12.91 17.848L12.913 17.852C13.453 17.326 14.187 17 15 17C16.657 17 18 18.343 18 20C18 20.812 17.674 21.547 17.149 22.087L17.152 22.09L7.258 31.985L17.121 41.848L17.118 41.851C17.679 42.396 18.031 43.156 18.031 44C18.031 45.657 16.688 47 15.031 47zM64.031 32C64.031 32.91 63.618 33.715 62.978 34.265L51.152 46.09L51.15 46.087C50.604 46.648 49.844 47 49 47C47.343 47 46 45.657 46 44C46 43.156 46.352 42.396 46.913 41.851L46.91 41.848L56.773 31.985L46.878 22.09L46.881 22.087C46.357 21.547 46.03 20.813 46.03 20C46.03 18.343 47.373 17 49.03 17C49.842 17 50.577 17.326 51.118 17.852L51.121 17.848L63.121 29.848L63.118 29.852C63.68 30.396 64.031 31.156 64.031 32zM40 56C38.7 56 37.594 55.173 37.177 54.018L21.2 12.076C21.071 11.742 21 11.379 21 11C21 9.343 22.343 8 24 8C25.3 8 26.406 8.827 26.823 9.982L42.8 51.924C42.93 52.258 43 52.62 43 53C43 54.657 41.657 56 40 56z" />
    <glyph glyph-name="cog"
      unicode="&#xF157;"
      horiz-adv-x="64" d=" M32 44C25.373 44 20 38.628 20 32C20 25.373 25.372 20 32 20S44 25.373 44 32S38.627 44 32 44zM32 26C28.686 26 26 28.686 26 32C26 35.314 28.686 38 32 38C35.314 38 38 35.314 38 32C38 28.686 35.314 26 32 26zM55.518 38.538C54.977 40.495 54.192 42.349 53.207 44.074C54.328 45.581 58.187 51.217 55.406 54L53.978 55.507C51.599 57.885 45.523 54.171 44.047 53.209C42.302 54.198 40.427 54.983 38.447 55.519C38.13 57.406 36.743 64.006 32.828 64.006H31.261C27.9 64.006 25.971 57.182 25.54 55.472C23.588 54.927 21.739 54.138 20.018 53.152C18.661 54.161 12.841 58.184 10 55.344L8.493 54.076C6.017 51.601 10.131 45.072 10.883 43.929C9.931 42.231 9.168 40.412 8.642 38.494C7.001 38.232 -0.007 36.88 -0.007 32.848V31.282C-0.007 27.789 7.342 25.849 8.683 25.523C9.216 23.619 9.983 21.814 10.938 20.129C10.147 18.89 6.193 12.39 8.646 9.935L10.073 8.747C13.302 5.518 20.047 10.822 20.047 10.822L19.733 11.156C21.522 10.098 23.459 9.26 25.506 8.686C25.841 7.307 27.781 0.009 31.261 0.009H32.828C37.394 0.009 38.525 8.53 38.525 8.53L38.107 8.543C40.176 9.072 42.138 9.868 43.958 10.888C45.384 9.939 51.359 6.2 53.744 8.584L55.331 10.172C58.514 13.355 53.334 19.868 53.189 20.049C54.173 21.771 54.962 23.62 55.505 25.574C57.285 26.026 63.988 27.948 63.988 31.281V32.847C63.988 37.27 56.016 38.467 55.518 38.538zM32 14C22.059 14 14 22.059 14 32C14 41.941 22.059 50 32 50C41.941 50 50 41.941 50 32C50 22.059 41.941 14 32 14z" />
    <glyph glyph-name="columns"
      unicode="&#xF158;"
      horiz-adv-x="64" d=" M61 58H3C1.343 58 0 56.657 0 55V9C0 7.343 1.343 6 3 6H61C62.657 6 64 7.343 64 9V55C64 56.657 62.657 58 61 58zM21 12H6V52H21V12zM40 12H24V52H40V12zM58 12H43V52H58V12z" />
    <glyph glyph-name="command"
      unicode="&#xF159;"
      horiz-adv-x="64" d=" M51 25H45V39H51C57.627 39 63 44.372 63 51C63 57.628 57.628 63 51 63C44.372 63 39 57.627 39 51V45H25V51C25 57.628 19.627 63 13 63C6.373 63 1 57.627 1 51C1 44.373 6.373 39 13 39H19V25H13C6.373 25 1 19.627 1 13C1 6.372 6.373 1 13 1C19.627 1 25 6.372 25 13V19H39V13C39 6.372 44.372 1 51 1C57.627 1 63 6.372 63 13C63 19.627 57.627 25 51 25zM45 51C45 54.314 47.686 57 51 57C54.314 57 57 54.314 57 51S54.314 45 51 45H45V51zM19 13C19 9.686 16.314 7 13 7C9.686 7 7 9.686 7 13C7 16.314 9.686 19 13 19H19V13zM19 45H13C9.686 45 7 47.686 7 51S9.686 57 13 57C16.314 57 19 54.314 19 51V45zM39 25H25V39H39V25zM51 7C47.686 7 45 9.686 45 13V19H52V18.899C54.835 18.421 57 15.971 57 13C57 9.686 54.314 7 51 7z" />
    <glyph glyph-name="compass"
      unicode="&#xF15A;"
      horiz-adv-x="64" d=" M16 48L25 26L48 16L39 39L16 48zM32 29C30.343 29 29 30.343 29 32S30.343 35 32 35S35 33.657 35 32S33.657 29 32 29zM32 64C14.327 64 0 49.673 0 32S14.327 0 32 0S64 14.327 64 32S49.673 64 32 64zM32 6C17.641 6 6 17.641 6 32C6 46.36 17.641 58 32 58C46.359 58 58 46.359 58 32C58 17.641 46.359 6 32 6z" />
    <glyph glyph-name="copy_1"
      unicode="&#xF15B;"
      horiz-adv-x="64" d=" M38 6H29V6H16V6H6V38H17V44H3C1.343 44 0 42.657 0 41V3C0 1.343 1.343 0 3 0H13V0H30V0H41C42.657 0 44 1.343 44 3V17H38V6zM61 64H23C21.343 64 20 62.657 20 61V23C20 21.343 21.343 20 23 20H61C62.657 20 64 21.343 64 23V61C64 62.657 62.657 64 61 64zM58 26H49V26H36V26H26V58H58V26z" />
    <glyph glyph-name="copy_2"
      unicode="&#xF15C;"
      horiz-adv-x="64" d=" M41 44H3C1.343 44 0 42.657 0 41V3C0 1.343 1.343 0 3 0H41C42.657 0 44 1.343 44 3V41C44 42.657 42.657 44 41 44zM38 6H6V38H15V38H28V38H38V6zM61 64H23C21.343 64 20 62.657 20 61V47H26V58H35V58H48V58H58V26H47V20H61C62.657 20 64 21.343 64 23V61C64 62.656 62.657 64 61 64z" />
    <glyph glyph-name="credit_card"
      unicode="&#xF15D;"
      horiz-adv-x="64" d=" M0 13C0 11.343 1.343 10 3 10H61C62.657 10 64 11.343 64 13V36H0V13zM6 25H36V22H6V25zM6 19H18V16H6V19zM61 54H3C1.343 54 0 52.657 0 51V42H64V51C64 52.657 62.657 54 61 54z" />
    <glyph glyph-name="crop"
      unicode="&#xF15E;"
      horiz-adv-x="64" d=" M61 15H55V50.757L63.121 58.878C63.664 59.421 64 60.172 64 61C64 62.657 62.657 64 61 64C60.171 64 59.422 63.664 58.879 63.121L50.757 55H15V61C15 62.657 13.657 64 12 64S9 62.657 9 61V55H3C1.343 55 0 53.657 0 52C0 50.343 1.343 49 3 49H9V13.242L8.879 13.121L9 13V11.5C9 10.119 10.119 9 11.5 9H13L13.121 8.879L13.243 9H49V3C49 1.343 50.343 0 52 0C53.657 0 55 1.343 55 3V9H61C62.657 9 64 10.343 64 12C64 13.657 62.657 15 61 15zM15 49H44.757L15 19.243V49zM49 15H19.243L49 44.757V15z" />
    <glyph glyph-name="diskette"
      unicode="&#xF15F;"
      horiz-adv-x="64" d=" M15 38.999C15 37.338 16.343 35.992 18 35.992H22V36H40V35.992H44C45.657 35.992 47 37.338 47 38.999V45H47V63H15V45H15V38.999zM32 59H41V40H32V59zM63.121 53.121L54.121 62.121C53.578 62.664 52.829 63 52 63H50V48H50V38.999C50 35.727 47.39 33.079 44.144 33H17.856C14.611 33.078 12 35.727 12 38.999V48H12V63H3C1.343 63 0 61.657 0 60V4C0 2.343 1.343 1 3 1H61C62.657 1 64 2.343 64 4V51C64 51.828 63.664 52.578 63.121 53.121z" />
    <glyph glyph-name="doc"
      unicode="&#xF160;"
      horiz-adv-x="64" d=" M35 40.992H54L32 61.036V43.999C32 42.338 33.343 40.992 35 40.992zM29 43.999V61H13C11.343 61 10 59.657 10 58V6C10 4.343 11.343 3 13 3H51C52.657 3 54 4.343 54 6V37.986H35C31.686 37.986 29 40.678 29 43.999z" />
    <glyph glyph-name="doc_add"
      unicode="&#xF161;"
      horiz-adv-x="64" d=" M31 41.992H50L28 62.036V44.999C28 43.338 29.343 41.992 31 41.992zM56 13H53V16C53 17.657 51.657 19 50 19S47 17.657 47 16V13H44C42.343 13 41 11.657 41 10S42.343 7 44 7H47V4C47 2.343 48.343 1 50 1S53 2.343 53 4V7H56C57.657 7 59 8.343 59 10S57.657 13 56 13zM38 10C38 13.314 40.686 16 44 16C44 19.314 46.686 22 50 22V38.986H31C27.686 38.986 25 41.678 25 44.999V62.036H16V62H9C7.343 62 6 60.657 6 59V7C6 5.343 7.343 4 9 4H44L44 4C40.686 4 38 6.686 38 10z" />
    <glyph glyph-name="doc_delete"
      unicode="&#xF162;"
      horiz-adv-x="64" d=" M30 41.992H49L27 62.036V44.999C27 43.338 28.343 41.992 30 41.992zM41.516 10L39.758 11.757C38.672 12.843 38 14.343 38 16C38 19.314 40.686 22 44 22C45.657 22 47.152 21.325 48.238 20.238L48.243 20.243L49 19.484V38.984H30C26.686 38.984 24 41.676 24 44.997V62H8C6.343 62 5 60.657 5 59V7C5 5.343 6.343 4 8 4H36L36 4H38C38 5.657 38.672 7.156 39.758 8.242L39.757 8.243L41.516 10zM54.243 10L58.122 13.878C58.664 14.422 59 15.172 59 16C59 17.657 57.657 19 56 19C55.172 19 54.422 18.664 53.879 18.121L50 14.242L46.121 18.121C45.578 18.664 44.829 19 44 19C42.343 19 41 17.657 41 16C41 15.172 41.336 14.422 41.879 13.879L45.757 10L41.878 6.121C41.336 5.578 41 4.828 41 4C41 2.343 42.343 1 44 1C44.828 1 45.578 1.336 46.121 1.879L50 5.757L53.879 1.878C54.422 1.336 55.172 1 56 1C57.657 1 59 2.343 59 4C59 4.828 58.664 5.578 58.121 6.121L54.243 10z" />
    <glyph glyph-name="doc_download"
      unicode="&#xF163;"
      horiz-adv-x="64" d=" M30 42.992H49L27.039 63H27V45.999C27 44.338 28.343 42.992 30 42.992zM36 11C36 14.314 38.686 17 42 17C42.343 17 42.673 16.954 43 16.898V25C43 28.314 45.686 31 49 31L49 31V39.986H30C26.686 39.986 24 42.678 24 45.999V63H8C6.343 63 5 61.657 5 60V8C5 6.343 6.343 5 8 5H39.516L37.758 6.757C36.672 7.843 36 9.343 36 11zM56 14C55.172 14 54.422 13.664 53.879 13.121L52 11.243V25C52 26.657 50.657 28 49 28S46 26.657 46 25V11.243L44.121 13.122C43.578 13.664 42.828 14 42 14C40.343 14 39 12.657 39 11C39 10.172 39.336 9.422 39.879 8.879L46.879 1.879C47.422 1.336 48.172 1 49 1S50.578 1.336 51.121 1.879L58.121 8.879C58.664 9.421 59 10.171 59 11C59 12.657 57.657 14 56 14z" />
    <glyph glyph-name="doc_ok"
      unicode="&#xF164;"
      horiz-adv-x="64" d=" M30 40.992H49L27 61.036V43.999C27 42.338 28.343 40.992 30 40.992zM56 16C55.172 16 54.422 15.664 53.879 15.121L48 9.243L46.121 11.122C45.578 11.664 44.828 12 44 12C42.343 12 41 10.657 41 9C41 8.171 41.336 7.422 41.879 6.879L45.879 2.879C46.422 2.336 47.172 2 48 2S49.578 2.336 50.121 2.879L58.121 10.879C58.664 11.421 59 12.172 59 13C59 14.657 57.657 16 56 16zM38 9C38 12.314 40.686 15 44 15C45.533 15 46.909 14.4 47.967 13.453L49 14.484V37.984H30C26.686 37.984 24 40.676 24 43.997V61H8C6.343 61 5 59.657 5 58V6C5 4.343 6.343 3 8 3H31L31 3H41.516L39.758 4.757C38.672 5.843 38 7.343 38 9z" />
    <glyph glyph-name="doc_remove"
      unicode="&#xF165;"
      horiz-adv-x="64" d=" M31 40.992H50L28 61.036V43.999C28 42.338 29.343 40.992 31 40.992zM38 9C38 12.314 40.686 15 44 15H50V37.986H31C27.686 37.986 25 40.678 25 43.999V61.036H16V61H9C7.343 61 6 59.657 6 58V6C6 4.343 7.343 3 9 3H44L44 3C40.686 3 38 5.686 38 9zM56 12H44C42.343 12 41 10.657 41 9S42.343 6 44 6H56C57.657 6 59 7.343 59 9S57.657 12 56 12z" />
    <glyph glyph-name="doc_upload"
      unicode="&#xF166;"
      horiz-adv-x="64" d=" M30 42.992H49L27.039 63H27V45.999C27 44.338 28.343 42.992 30 42.992zM36 18C36 19.657 36.672 21.157 37.757 22.243L44.757 29.243C45.843 30.328 47.343 31 49 31V39.986H30C26.686 39.986 24 42.678 24 45.999V63H8C6.343 63 5 61.657 5 60V8C5 6.343 6.343 5 8 5H43V12.102C42.673 12.046 42.343 12 42 12C38.686 12 36 14.686 36 18zM58.121 20.121L51.121 27.121C50.578 27.664 49.828 28 49 28S47.422 27.664 46.879 27.121L39.879 20.121C39.336 19.578 39 18.828 39 18C39 16.343 40.343 15 42 15C42.828 15 43.578 15.336 44.121 15.879L46 17.757V4C46 2.343 47.343 1 49 1S52 2.343 52 4V17.757L53.879 15.878C54.422 15.336 55.172 15 56 15C57.657 15 59 16.343 59 18C59 18.828 58.664 19.578 58.121 20.121z" />
    <glyph glyph-name="docs"
      unicode="&#xF167;"
      horiz-adv-x="64" d=" M32 46.999V64H16C14.343 64 13 62.657 13 61V9C13 7.343 14.343 6 16 6H54C55.657 6 57 7.343 57 9V40.985H38C34.686 40.985 32 43.678 32 46.999zM38 43.992H57L35 64.036V46.999C35 45.338 36.343 43.992 38 43.992zM10 9V58C8.343 58 7 56.657 7 55V6C7 2.686 9.686 0 13 0H48C49.657 0 51 1.343 51 3H16C12.686 3 10 5.686 10 9z" />
    <glyph glyph-name="download"
      unicode="&#xF168;"
      horiz-adv-x="64" d=" M20.77 34.993L29.77 24.993L29.77 24.993C30.319 24.384 31.115 24 32 24S33.68 24.384 34.23 24.993L34.23 24.993L43.23 34.993L43.23 34.993C43.708 35.525 44 36.228 44 37C44 38.657 42.657 40 41 40C40.115 40 39.318 39.617 38.77 39.007L38.77 39.007L35 34.818V53C35 54.657 33.657 56 32 56S29 54.657 29 53V34.818L25.23 39.007L25.23 39.007C24.681 39.616 23.885 40 23 40C21.343 40 20 38.657 20 37C20 36.228 20.292 35.525 20.77 34.993L20.77 34.993zM55 29C53.343 29 52 27.657 52 26V14H12V26C12 27.657 10.657 29 9 29S6 27.657 6 26V11C6 9.343 7.343 8 9 8H31.997C31.998 8 31.999 8 32 8S32.002 8 32.003 8H55C56.657 8 58 9.343 58 11V26C58 27.657 56.657 29 55 29z" />
    <glyph glyph-name="dribbble"
      unicode="&#xF169;"
      horiz-adv-x="64" d=" M63.35 38.442C62.93 40.498 62.301 42.523 61.485 44.457C60.682 46.356 59.69 48.184 58.534 49.893C57.389 51.587 56.075 53.18 54.629 54.626C53.181 56.075 51.589 57.39 49.894 58.533C48.185 59.691 46.355 60.682 44.458 61.486C42.523 62.3 40.5 62.932 38.443 63.349C36.336 63.782 34.167 64.001 32.001 64.001C29.832 64.001 27.663 63.781 25.555 63.349C23.499 62.932 21.475 62.3 19.542 61.486C17.646 60.682 15.815 59.691 14.105 58.533C12.411 57.39 10.818 56.076 9.37 54.627C7.924 53.181 6.61 51.588 5.466 49.894C4.31 48.185 3.317 46.357 2.515 44.458C1.697 42.524 1.069 40.498 0.648 38.443C0.217 36.34 -0.002 34.17 -0.002 32.003C-0.002 29.831 0.217 27.661 0.648 25.555C1.069 23.499 1.697 21.475 2.515 19.542C3.317 17.646 4.31 15.813 5.466 14.104C6.61 12.41 7.924 10.819 9.37 9.371C10.817 7.925 12.41 6.612 14.104 5.467C15.815 4.312 17.645 3.318 19.541 2.517C21.474 1.697 23.498 1.072 25.554 0.65C27.663 0.215 29.831 -0.001 32 -0.001C34.167 -0.001 36.335 0.216 38.441 0.65C40.499 1.072 42.523 1.697 44.456 2.517C46.352 3.318 48.184 4.312 49.893 5.467C51.586 6.613 53.18 7.925 54.627 9.371C56.073 10.819 57.389 12.41 58.532 14.104C59.687 15.813 60.681 17.645 61.482 19.542C62.299 21.475 62.929 23.499 63.349 25.555C63.781 27.661 64 29.83 64 32.003C64.001 34.169 63.783 36.339 63.35 38.442zM32.001 59.33C38.92 59.33 45.234 56.751 50.05 52.511C49.983 52.405 46.09 46.481 35.774 42.615C31.104 51.198 25.971 58.018 25.56 58.559C27.626 59.059 29.78 59.33 32.001 59.33zM25.455 58.536C25.454 58.533 25.45 58.531 25.45 58.531S25.418 58.523 25.368 58.513C25.396 58.521 25.426 58.526 25.455 58.536zM20.34 56.718C20.703 56.23 25.757 49.378 30.488 40.971C17.365 37.484 5.977 37.621 5.255 37.634C7.032 46.099 12.718 53.117 20.34 56.718zM11.673 13.736C7.321 18.579 4.672 24.98 4.672 32.003C4.672 32.294 4.685 32.579 4.695 32.865C5.176 32.855 18.681 32.549 32.752 36.759C33.536 35.227 34.284 33.669 34.971 32.114C34.608 32.013 34.251 31.904 33.893 31.788C19.143 27.021 11.663 13.75 11.663 13.75S11.671 13.742 11.673 13.736zM32.001 4.67C25.663 4.67 19.844 6.846 15.208 10.465C15.207 10.463 15.203 10.455 15.203 10.455S14.951 10.643 14.591 10.934C14.79 10.77 15.004 10.624 15.208 10.465C15.308 10.682 20.598 21.936 36.65 27.527C36.71 27.549 36.771 27.568 36.832 27.585C40.678 17.592 42.266 9.223 42.67 6.834C39.393 5.441 35.785 4.67 32.001 4.67zM47.271 9.332C46.994 10.982 45.538 19.003 41.952 28.853C50.775 30.265 58.42 27.845 58.984 27.661C57.768 20.045 53.408 13.477 47.271 9.332zM40.286 33.168C40.094 33.636 39.898 34.106 39.697 34.579C39.128 35.916 38.515 37.241 37.88 38.543C48.673 42.948 53.055 49.284 53.106 49.36C56.94 44.705 59.258 38.758 59.321 32.273C58.925 32.359 49.676 34.349 40.286 33.168z" />
    <glyph glyph-name="drop"
      unicode="&#xF16A;"
      horiz-adv-x="64" d=" M31.583 60.153C31.583 60.153 11.967 34.948 11.991 24.441C12.017 13.11 21.329 3.951 31.939 3.979C42.548 4.008 52.076 13.218 52.05 24.549C52.024 35.408 31.583 60.153 31.583 60.153z" />
    <glyph glyph-name="dropbox"
      unicode="&#xF16B;"
      horiz-adv-x="64" d=" M32.04 24.523L18.826 13.654L13.172 17.316V13.211L32.04 1.997L50.904 13.212V17.318L45.252 13.656L32.04 24.523zM0.001 28.154L18.826 15.97L32 26.866L13.018 38.487L0.001 28.154zM32 26.866L45.174 15.97L64 28.154L50.982 38.487L32 26.866zM18.826 61.003L0.001 48.824L13.018 38.487L32 50.107L18.826 61.003zM63.999 48.824L45.174 61.003L32 50.107L50.982 38.488L63.999 48.824z" />
    <glyph glyph-name="eject"
      unicode="&#xF16C;"
      horiz-adv-x="64" d=" M42 22H22C20.343 22 19 20.657 19 19S20.343 16 22 16H42C43.657 16 45 17.343 45 19S43.657 22 42 22zM22 25H42C43.657 25 45 26.343 45 28C45 28.584 44.833 29.129 44.544 29.59L44.544 29.59L34.568 45.552C34.564 45.557 34.562 45.562 34.558 45.568L34.543 45.59L34.543 45.59C34.014 46.437 33.073 47 32 47S29.987 46.437 29.456 45.59L29.456 45.59L29.442 45.568C29.439 45.563 29.435 45.558 29.432 45.552L19.456 29.59L19.456 29.59C19.168 29.129 19 28.584 19 28C19 26.343 20.343 25 22 25z" />
    <glyph glyph-name="equalizer"
      unicode="&#xF16D;"
      horiz-adv-x="64" d=" M13 41H7C5.343 41 4 39.657 4 38V26C4 24.343 5.343 23 7 23H13C14.657 23 16 24.343 16 26V38C16 39.657 14.657 41 13 41zM13 61C13 62.657 11.657 64 10 64S7 62.657 7 61V44H13V61zM35 61C35 62.657 33.657 64 32 64S29 62.657 29 61V36H35V61zM57 61C57 62.657 55.657 64 54 64S51 62.657 51 61V52H57V61zM7 3C7 1.343 8.343 0 10 0S13 1.343 13 3V20H7V3zM57 49H51C49.343 49 48 47.657 48 46V34C48 32.343 49.343 31 51 31H57C58.657 31 60 32.343 60 34V46C60 47.657 58.657 49 57 49zM51 3C51 1.343 52.343 0 54 0S57 1.343 57 3V28H51V3zM29 3C29 1.343 30.343 0 32 0S35 1.343 35 3V12H29V3zM35 33H29C27.343 33 26 31.657 26 30V18C26 16.343 27.343 15 29 15H35C36.657 15 38 16.343 38 18V30C38 31.657 36.657 33 35 33z" />
    <glyph glyph-name="facebook_1"
      unicode="&#xF16E;"
      horiz-adv-x="64" d=" M36.963 41.952C37.055 45.297 36.438 49.955 37.479 51.545C39.38 54.456 46.975 53.699 46.975 53.699S46.975 60.311 46.975 64.002C34.993 64.002 31.071 64.503 26.959 60.327C23.301 56.612 23.188 49.316 22.887 41.952H17.015V31.88H22.953C22.951 21.376 22.956 9.864 22.953 -0.004C27.415 -0.004 36.907 -0.004 36.907 -0.004V32.006C36.907 32.006 42.08 32.006 44.949 32.006C45.575 35.391 46.185 38.042 47.037 41.953L36.963 41.952L36.963 41.952z" />
    <glyph glyph-name="facebook_2"
      unicode="&#xF16F;"
      horiz-adv-x="64" d=" M59.059 64.006H4.942C2.22 64.006 0.013 61.798 0.013 59.074V4.72C0.013 1.995 2.22 -0.008 4.942 -0.008H59.059C61.78 -0.008 63.987 1.994 63.987 4.72V59.074C63.986 61.798 61.781 64.006 59.059 64.006zM33.615 42.801C32.053 43.713 30.812 44.435 29.264 44.435C27.741 44.435 26.428 44.052 25.767 43.411C25.106 42.771 24.775 41.539 24.775 39.719V37.028H32.923L31.155 29.534H24.774V4.64H14.545V29.535H9.759V37.029H14.546V39.888C14.546 42.9 14.901 44.705 15.613 46.189C16.324 47.672 17.702 49.323 19.611 50.255C21.52 51.187 24.352 51.654 27.272 51.654C30.267 51.654 32.609 50.66 35.48 49.851L33.615 42.801z" />
    <glyph glyph-name="fast_forward"
      unicode="&#xF170;"
      horiz-adv-x="64" d=" M51 32C51 33.073 50.438 34.013 49.59 34.544L49.59 34.544L49.569 34.558C49.563 34.561 49.559 34.565 49.552 34.568L33.59 44.544L33.59 44.544C33.129 44.832 32.584 45 32 45C30.343 45 29 43.657 29 42V37.413L17.59 44.544L17.59 44.544C17.129 44.832 16.584 45 16 45C14.343 45 13 43.657 13 42V22C13 20.343 14.343 19 16 19C16.584 19 17.129 19.167 17.59 19.456L17.59 19.456L29 26.587V22C29 20.343 30.343 19 32 19C32.584 19 33.129 19.167 33.59 19.456L33.59 19.456L49.552 29.432C49.557 29.436 49.563 29.44 49.569 29.442L49.59 29.457L49.59 29.457C50.438 29.986 51 30.927 51 32z" />
    <glyph glyph-name="first_aid"
      unicode="&#xF171;"
      horiz-adv-x="64" d=" M61 46H47C47 54.284 40.284 61 32 61C23.716 61 17 54.284 17 46H3C1.343 46 0 44.657 0 43V6C0 4.343 1.343 3 3 3H8V3H11V3H53V3H56V3H61C62.657 3 64 4.343 64 6V43C64 44.657 62.657 46 61 46zM32 55C36.971 55 41 50.971 41 46H23C23 50.97 27.03 55 32 55zM43 22H35V14C35 12.343 33.657 11 32 11C30.343 11 29 12.343 29 14V22H21C19.343 22 18 23.343 18 25C18 26.657 19.343 28 21 28H29V36C29 37.657 30.343 39 32 39C33.657 39 35 37.657 35 36V28H43C44.657 28 46 26.657 46 25C46 23.343 44.657 22 43 22z" />
    <glyph glyph-name="folder"
      unicode="&#xF172;"
      horiz-adv-x="64" d=" M0 10C0 8.343 1.343 7 3 7H61C62.657 7 64 8.343 64 10V42H0V10zM61 51H23.982L18 57H3C1.343 57 0 55.657 0 54V45H64V48C64 49.657 62.657 51 61 51z" />
    <glyph glyph-name="folder_add"
      unicode="&#xF173;"
      horiz-adv-x="64" d=" M60 15H57V18C57 19.657 55.657 21 54 21S51 19.657 51 18V15H48C46.343 15 45 13.657 45 12S46.343 9 48 9H51V6C51 4.343 52.343 3 54 3S57 4.343 57 6V9H60C61.657 9 63 10.343 63 12S61.657 15 60 15zM0 13C0 11.343 1.343 10 3 10H42.367C42.145 10.628 42 11.295 42 12C42 15.314 44.686 18 48 18C48 21.314 50.686 24 54 24S60 21.314 60 18C61.544 18 62.938 17.4 64 16.443V45H0V13zM61 54H23.982L18 60H3C1.343 60 0 58.657 0 57V48H64V51C64 52.657 62.657 54 61 54z" />
    <glyph glyph-name="folder_delete"
      unicode="&#xF174;"
      horiz-adv-x="64" d=" M64 18C64 19.657 62.657 21 61 21C60.172 21 59.422 20.664 58.879 20.121L55 16.243L51.121 20.122C50.578 20.664 49.828 21 49 21C47.343 21 46 19.657 46 18C46 17.171 46.336 16.422 46.879 15.879L50.757 12L46.878 8.121C46.336 7.578 46 6.828 46 6C46 4.343 47.343 3 49 3C49.828 3 50.578 3.336 51.121 3.879L55 7.757L58.879 3.878C59.422 3.336 60.172 3 61 3C62.657 3 64 4.343 64 6C64 6.828 63.664 7.578 63.121 8.121L59.243 12L63.122 15.879C63.664 16.422 64 17.171 64 18zM0 13C0 11.343 1.343 10 3 10H44L44 10H44.557C44.627 10.078 44.684 10.168 44.757 10.243L46.516 12L44.758 13.758C43.672 14.843 43 16.343 43 18C43 21.314 45.686 24 49 24C50.657 24 52.157 23.328 53.243 22.243L55 20.484L56.757 22.242C57.843 23.328 59.343 24 61 24C62.098 24 63.113 23.684 64 23.168V45H0V13zM61 54H23.982L18 60H3C1.343 60 0 58.657 0 57V48H64V51C64 52.657 62.657 54 61 54z" />
    <glyph glyph-name="folder_ok"
      unicode="&#xF175;"
      horiz-adv-x="64" d=" M61 18C60.172 18 59.422 17.664 58.879 17.121L53 11.242L51.121 13.121C50.578 13.664 49.828 14 49 14C47.343 14 46 12.657 46 11C46 10.172 46.336 9.422 46.879 8.879L50.879 4.879C51.422 4.336 52.172 4 53 4S54.578 4.336 55.121 4.879L63.121 12.879C63.664 13.421 64 14.172 64 15C64 16.657 62.657 18 61 18zM61 53H23.982L18 59H3C1.343 59 0 57.657 0 56V47H64V50C64 51.657 62.657 53 61 53zM0 12C0 10.343 1.343 9 3 9H43.367L43.367 9C43.145 9.628 43 10.295 43 11C43 14.314 45.686 17 49 17C50.533 17 51.916 16.408 52.977 15.462L56.758 19.243C57.843 20.328 59.343 21 61 21C62.1 21 63.113 20.684 64 20.168V44H0V12z" />
    <glyph glyph-name="folder_remove"
      unicode="&#xF176;"
      horiz-adv-x="64" d=" M0 10C0 8.343 1.343 7 3 7H42.367C42.145 7.628 42 8.295 42 9C42 12.314 44.686 15 48 15H60C61.544 15 62.938 14.4 64 13.443V42H0V10zM60 12H48C46.343 12 45 10.657 45 9S46.343 6 48 6H60C61.657 6 63 7.343 63 9S61.657 12 60 12zM61 51H23.982L18 57H3C1.343 57 0 55.657 0 54V45H64V48C64 49.657 62.657 51 61 51z" />
    <glyph glyph-name="followers"
      unicode="&#xF177;"
      horiz-adv-x="64" d=" M34 11C34 12.657 34.672 14.157 35.757 15.242L42.757 22.242L42.774 22.224C43.153 22.599 43.58 22.926 44.046 23.193C40.067 24.894 39.025 25.486 39.025 25.486L38.97 31.38C38.97 31.38 41.294 33.144 42.019 38.717C43.47 38.297 43.961 40.418 44.04 41.773C44.126 43.082 44.898 47.162 43.123 46.798C43.486 49.522 43.771 51.985 43.643 53.289C43.199 57.865 40.035 62.644 32.048 62.993C25.258 62.644 20.85 57.862 20.405 53.285C20.277 51.981 20.538 49.521 20.901 46.792C19.127 47.161 19.891 43.073 19.969 41.765C20.055 40.41 20.535 38.283 21.989 38.703C22.711 33.129 25.035 31.351 25.035 31.351L24.977 25.426C24.977 25.426 23.507 24.529 17.302 21.96C11.097 19.386 13.043 21.427 7.988 18.913C0 14.938 0 4.007 0 4.007H0.002C0.001 4.005 0 4.002 0 4C0 2.343 1.343 1 3 1H41.516L35.758 6.758C34.672 7.843 34 9.343 34 11zM52.898 17H58.726C57.937 17.725 57.064 18.391 56.013 18.913C54.159 19.836 53.248 20.159 52.531 20.328C52.833 19.613 53 18.826 53 18C53 17.657 52.954 17.327 52.898 17zM47.243 8H61C62.657 8 64 9.343 64 11S62.657 14 61 14H47.243L49.122 15.879C49.664 16.421 50 17.172 50 18C50 19.657 48.657 21 47 21C46.172 21 45.422 20.664 44.879 20.121L37.879 13.121C37.336 12.578 37 11.828 37 11C37 10.171 37.336 9.422 37.879 8.879L44.879 1.879C45.422 1.336 46.172 1 47 1C48.657 1 50 2.343 50 4C50 4.828 49.664 5.578 49.121 6.121L47.243 8zM64.001 4.007C64.001 4.007 64.001 4.686 63.877 5.766C63.02 5.293 62.049 5 61 5H52.896C52.953 4.674 53 4.343 53 4C53 2.9 52.684 1.886 52.168 1H61C62.657 1 64 2.343 64 4C64 4.003 63.999 4.005 63.999 4.007H64.001z" />
    <glyph glyph-name="following"
      unicode="&#xF178;"
      horiz-adv-x="64" d=" M64.001 4.007C64.001 4.007 63.994 4.559 63.909 5.424L59.484 1H61C62.657 1 64 2.343 64 4C64 4.003 63.999 4.005 63.999 4.007H64.001zM48.102 5H40C36.686 5 34 7.686 34 11S36.686 17 40 17H48.102C48.046 17.327 48 17.657 48 18C48 19.186 48.355 20.282 48.947 21.212C48.338 21.425 47.615 21.698 46.7 22.077C40.495 24.646 39.025 25.486 39.025 25.486L38.97 31.379C38.97 31.379 41.294 33.143 42.019 38.716C43.47 38.296 43.961 40.417 44.04 41.772C44.126 43.081 44.898 47.161 43.123 46.797C43.486 49.521 43.771 51.984 43.643 53.288C43.2 57.864 40.035 62.643 32.048 62.992C25.258 62.643 20.85 57.861 20.405 53.284C20.277 51.98 20.538 49.52 20.901 46.791C19.127 47.16 19.891 43.072 19.969 41.764C20.055 40.409 20.535 38.282 21.989 38.702C22.711 33.128 25.035 31.349 25.035 31.349L24.977 25.425C24.977 25.425 23.507 24.529 17.302 21.959C11.097 19.385 13.043 21.426 7.988 18.912C0 14.938 0 4.006 0 4.006H0.002C0.001 4.005 0 4.002 0 4C0 2.343 1.343 1 3 1H48.832C48.316 1.885 48 2.9 48 4C48 4.343 48.046 4.673 48.102 5zM64 11C64 11.828 63.664 12.578 63.121 13.121L56.121 20.121C55.578 20.664 54.828 21 54 21C52.343 21 51 19.657 51 18C51 17.172 51.336 16.422 51.879 15.879L53.757 14H40C38.343 14 37 12.657 37 11S38.343 8 40 8H53.757L51.878 6.121C51.336 5.578 51 4.828 51 4C51 2.343 52.343 1 54 1C54.828 1 55.578 1.336 56.121 1.879L63.121 8.879C63.664 9.422 64 10.171 64 11z" />
    </font>
</defs>
</svg>
